<svg xmlns="http://www.w3.org/2000/svg" width="820.2" height="112.6"><path d="M783.1 112.3c-21.7 0-37.1-16.7-37.1-38.1s15.4-38.1 37.1-38.1 37.1 16.7 37.1 38.1-15.4 38.1-37.1 38.1zM49.6 55.2l-18.9 56.1h-5.8L0 37.4h9.5L28 92.6l18.6-55.2h6l18.7 55.2 18.4-55.2h9.6l-25 73.9h-5.7l-19-56.1zM112.1 70h56.1c-1.7-15-12.5-26.1-28-26.1S113.9 55 112.1 70zm0 8c1.4 15.2 12.3 26.6 28.1 26.6 6.7 0 13.1-2 18.6-5.9 2.1-1.5 4.6-3.7 6-5.9l.5-.8h9.7l-1.4 2.7c-1.7 3.3-4.9 6.7-7.8 9.1-7.3 6.1-16.2 8.8-25.7 8.8-21.9 0-37.2-16.8-37.2-38.3 0-21.5 15.3-38.4 37.2-38.4 8.3 0 16.4 2.6 23 7.7 4.7 3.7 8.4 8.4 10.8 13.8 2.6 5.9 3.7 12.4 3.4 18.8l-.1 1.7h-65.1zm87.8-3.8c0 16.8 11 30.3 28.3 30.3s28.4-13.6 28.4-30.3-11-30.3-28.4-30.3-28.3 13.6-28.3 30.3zm0 23.5v13.6H191V0h8.9v50.8c1.1-1.6 2.4-3.1 3.6-4.4 6.7-6.9 15.1-10.5 24.7-10.5 21.9 0 37.2 16.8 37.2 38.3 0 21.6-15.4 38.3-37.2 38.3-9.4 0-17.7-3.4-24.4-10.1-1.4-1.5-2.7-3-3.9-4.7zm131.5-50.8c5.4-7.2 13.2-10.8 22.1-10.8 6.4 0 12.5 1.7 17.6 5.6 9.2 7.1 12.2 19 12.2 30.1v39.3h-15.5V73.4c0-9.9-2.2-22.6-14.7-22.6s-14.7 12.6-14.7 22.6v37.7H323V73.4c0-9.9-2.2-22.6-14.7-22.6s-14.7 12.6-14.7 22.6v37.7h-15.5V37.3h15.5v3c4.5-3 9.7-4.3 15.1-4.3 9.1.1 17.2 3.5 22.7 10.9zm266.4 50.7c5.5 0 15.9-1.1 15.9-8.5 0-1-.1-2.1-.7-3-2.2-3.8-11.9-5.2-15.9-5.8-12.8-1.7-28.7-6.5-28.7-22.3 0-3.1.6-6.1 1.9-8.8 4.9-10.3 17-13.2 27.4-13.2 8.4 0 17.1 2.1 23.2 8.3 3.8 3.9 4.9 7.1 5.9 11.4H611c-.4-.6-1.1-1.4-1.4-1.6-3.1-2.7-7.8-3.4-11.8-3.4-4.8 0-13.9.8-13.9 7.3 0 .6.1 1.3.4 1.9 1.7 3.4 10.9 5 14.3 5.5 14 2.1 30.5 6.2 30.5 23.6 0 4.1-1 8-3.3 11.5-5.9 9.2-17.9 11.8-28.1 11.8-8.9 0-18.2-2.1-24.9-8.5-2.6-2.5-5.2-6.2-6.1-9.7l-.5-2.2h16.2c.6.7 1.3 1.4 1.8 1.8 3.8 3 9 3.9 13.6 3.9zm51.7-60.2V18.6H665v18.8h20.4V52H665v28.4c0 3.9 0 8 .7 11.8.2 1.3.7 3.5 1.8 4.4.9.8 2.7.9 3.9.9 2.5 0 5-.5 7.5-1l6.6-1.5v14.5l-3.9 1.2c-3.4 1-7.3 1.5-10.8 1.5-4.8 0-9.5-1-13.3-4.1-3.6-3-5.4-7.1-6.5-11.6-1.2-5.3-1.4-10.7-1.4-16.1V52h-14.3V37.4h14.2zm66 2.4c4.3-2.7 9.2-3.8 14.3-3.8 3.5 0 7.3.5 10.7 1.5l3.8 1.2v15.1l-6.9-2.1c-2.4-.7-5.1-1-7.6-1-3.3 0-6.5.7-8.9 3.1-4.7 4.7-5.2 14.7-5.2 20.9V111h-15.4V37.3h15.4v2.5zM454 43.7v-6.3h15.4v73.8H454v-6.4c-6.2 5-13.6 7.5-21.7 7.5-21.7 0-37.1-16.7-37.1-38.1s15.4-38.1 37.1-38.1c8.1 0 15.5 2.5 21.7 7.6zm0 30.5c0-13-8.2-23.5-21.7-23.5s-21.7 10.5-21.7 23.4 8.2 23.4 21.7 23.4S454 87.1 454 74.2zm44 7.1c2.5 9.9 10.3 16.3 20.8 16.3 5.2 0 10.1-1.4 14.3-4.5.5-.3 1-.7 1.5-1.2h18.7l-1.1 2.2c-1.8 3.5-4.9 6.8-7.9 9.3-7.2 6-16.1 8.8-25.5 8.8-21.7 0-37.1-16.7-37.1-38.1 0-21.4 15.4-38.2 37.1-38.2 8.3 0 16.3 2.6 22.9 7.7 4.7 3.7 8.4 8.4 10.8 13.8 3.7 8.2 3.6 15 3.2 23.7H498zm.2-14.7h41.2c-2.7-9.6-10.4-15.8-20.6-15.8-10.2-.1-17.9 6.2-20.6 15.8zm306.5 7.6c0-12.9-8.2-23.4-21.7-23.4s-21.7 10.5-21.7 23.4 8.2 23.4 21.7 23.4 21.7-10.5 21.7-23.4z"/></svg>