<svg width="199" height="63" viewBox="0 0 199 63" fill="none" xmlns="http://www.w3.org/2000/svg">
<path d="M6.6843 20.106C6.85439 19.9848 7.03044 19.9133 7.21246 19.8914C7.44413 19.8636 7.65165 19.9142 7.83503 20.0432C8.03297 20.1537 8.14487 20.3165 8.17073 20.5316C8.17471 20.5647 8.16811 20.6494 8.15093 20.7858C8.17471 20.5647 8.04374 20.9414 7.75801 21.9158C7.47228 22.8902 7.31685 23.4125 7.29171 23.4826L7.30066 23.5571C7.53233 23.5292 7.69021 23.5858 7.7743 23.7268C7.87296 23.8492 7.92793 24.0273 7.93924 24.2609C7.79429 24.3119 7.6606 24.3867 7.53817 24.4854C7.41574 24.584 7.31315 24.6383 7.23041 24.6483C7.18077 24.6543 7.12584 24.686 7.06562 24.7436C7.00539 24.8012 6.97099 24.8641 6.9624 24.9323C6.93726 25.0025 6.91018 25.2659 6.88116 25.7227L6.64924 27.5635C6.63007 27.6833 6.58409 27.7896 6.5113 27.8822C6.43851 27.9749 6.37002 28.0335 6.30582 28.058C6.23764 28.0494 6.10028 28.024 5.89376 27.9817C5.70179 27.9208 5.57072 27.8778 5.50055 27.8527C5.42839 27.811 5.35623 27.7693 5.28407 27.7276L5.26617 27.5787C5.23831 27.347 5.25084 27.1021 5.30373 26.844C5.38836 26.4309 5.4541 25.8607 5.50093 25.1332C5.36258 25.0995 5.03462 25.1641 4.51703 25.327C3.99746 25.4734 3.71285 25.5496 3.66321 25.5556C3.56989 25.6172 3.37431 25.6659 3.07645 25.7017C2.59657 25.7594 2.25238 25.7588 2.04386 25.6999L1.90388 25.7923C1.8887 25.9452 1.85895 26.1166 1.81464 26.3066C1.69429 26.8415 1.64904 27.233 1.67888 27.4812C1.67364 27.7169 1.66342 27.9111 1.64823 28.064C1.63503 28.2335 1.63178 28.4857 1.63847 28.8206C1.67763 29.2859 1.54828 29.5365 1.25043 29.5723C1.06841 29.5942 0.861878 29.5519 0.630844 29.4454C0.507054 29.3931 0.333937 29.2796 0.111493 29.1049L0.27885 27.1459C0.310587 26.991 0.335361 26.7782 0.353172 26.5075C0.38753 26.2348 0.427857 26.0117 0.474153 25.8383L0.654676 25.036C0.783614 24.433 0.908937 23.9395 1.03064 23.5555C1.03064 23.5555 1.1457 23.0465 1.37582 22.0284C1.41154 21.9066 1.4813 21.5793 1.5851 21.0464C1.70346 20.495 1.77421 20.1759 1.79736 20.0892C1.84166 19.8992 1.9631 19.7923 2.16167 19.7684C2.42444 19.7201 2.65579 19.7594 2.85572 19.8864C3.07021 19.9949 3.19766 20.1475 3.23808 20.3441C3.24405 20.3937 3.24572 20.4774 3.2431 20.5953C3.23849 20.6965 3.2309 20.773 3.22032 20.8246L2.30861 24.1321L2.33248 24.3307C2.40464 24.3724 2.52345 24.3833 2.68893 24.3634C2.82131 24.3474 3.0169 24.2987 3.27569 24.2173C3.55103 24.1338 3.72179 24.0881 3.78798 24.0801C3.93492 24.0457 4.15632 24.0023 4.45219 23.9499C4.74805 23.8976 5.04491 23.8535 5.34277 23.8177C5.57443 23.7898 5.69953 23.7832 5.71807 23.7977L5.89561 22.9706C6.06288 22.128 6.26561 21.4405 6.50378 20.9083C6.51436 20.8567 6.53651 20.7617 6.57024 20.6233C6.60198 20.4684 6.64 20.296 6.6843 20.106ZM11.8834 27.5134C11.8218 27.42 11.7272 27.3307 11.5994 27.2453C11.4862 27.1414 11.4276 27.0729 11.4236 27.0399C11.4017 26.8578 11.3434 26.7221 11.2488 26.6328C11.2117 26.6037 11.1862 26.5312 11.1723 26.4154C11.1404 26.1506 11.2108 25.6889 11.3834 25.0303C11.5706 24.3531 11.8263 23.6173 12.1504 22.8229C12.2378 22.7117 12.341 22.523 12.4601 22.2569C12.5957 21.9888 12.6864 21.8352 12.732 21.7962C12.7241 21.73 12.7419 21.6691 12.7856 21.6135C12.8273 21.5413 12.8812 21.5013 12.9474 21.4933L12.9295 21.3444C12.9116 21.1954 13.1419 20.8068 13.6203 20.1786C14.0967 19.5338 14.4958 19.0829 14.8174 18.826C15.1973 18.495 15.6023 18.3036 16.0326 18.2519C16.3304 18.216 16.5968 18.2679 16.8319 18.4076C16.9265 18.4969 17.3499 18.8069 18.1019 19.3376L19.1188 20.0463L18.8212 21.3411C18.726 21.8058 18.7003 22.2201 18.7441 22.5842C18.8197 23.213 19.0743 23.7951 19.508 24.3305C19.6126 24.5025 19.799 24.6564 20.0671 24.792C20.3352 24.9277 20.5953 24.9971 20.8475 25.0004C21.2195 25.0228 21.4234 25.1829 21.4593 25.4808C21.499 25.8117 21.374 26.0282 21.0841 26.1302C21.0199 26.1547 20.9216 26.1749 20.7892 26.1908C19.8129 26.3082 18.8864 25.7229 18.0098 24.435C17.9316 24.3437 17.8187 24.1726 17.6711 23.9218C17.54 23.669 17.4602 23.4939 17.4317 23.3966C17.3483 23.5409 17.2431 23.7131 17.1161 23.913C16.989 24.1129 16.8673 24.287 16.7508 24.4353C15.164 26.4559 13.8493 27.5288 12.8068 27.6541C12.4759 27.6939 12.1681 27.647 11.8834 27.5134ZM12.6099 26.0159C12.6198 26.0987 12.7055 26.1135 12.867 26.0606C13.0451 26.0056 13.2502 25.897 13.4825 25.7347C13.7314 25.5705 13.9753 25.365 14.2141 25.118C15.49 23.7224 16.3876 22.5317 16.907 21.546L17.3457 20.5868C17.1384 20.2592 16.9348 20.0319 16.7349 19.9048C16.533 19.7612 16.3575 19.6984 16.2086 19.7163C15.8611 19.7581 15.3678 20.2623 14.7286 21.2288C14.0874 22.1788 13.5313 23.278 13.0603 24.5265C12.9452 24.8257 12.8476 25.1312 12.7676 25.443C12.6856 25.7382 12.633 25.9292 12.6099 26.0159ZM29.8195 26.2131C29.7117 26.2932 29.5515 26.2872 29.339 26.1953C29.143 26.1013 28.9401 25.9495 28.7302 25.7397C28.572 25.5405 28.4624 25.327 28.4014 25.0994C28.357 24.8697 28.2911 24.3908 28.2035 23.6627C28.1836 23.4972 28.1406 23.4185 28.0744 23.4264C28.0248 23.4324 27.9189 23.5291 27.7568 23.7164C27.5926 23.8872 27.3941 24.1209 27.1612 24.4175C26.7807 24.8829 26.4223 25.2534 26.0862 25.5288C25.75 25.8042 25.465 25.9476 25.2314 25.9589C25.0494 25.9808 24.8359 25.8806 24.5909 25.6582C24.3625 25.4339 24.1705 25.1632 24.0149 24.8462C23.9413 24.6536 23.8887 24.4249 23.8568 24.1601C23.7733 23.4651 23.8125 22.6043 23.9744 21.5776C24.1529 20.549 24.3897 19.656 24.6847 18.8987C24.9943 18.1229 25.298 17.717 25.5959 17.6812C25.8441 17.6514 26.1086 17.8966 26.3894 18.4168C26.451 18.5101 26.4857 18.5898 26.4937 18.656C26.5076 18.7719 26.4553 18.8956 26.3369 19.0274C26.1265 19.3716 25.9045 19.9691 25.6711 20.8197C25.4376 21.6703 25.2634 22.455 25.1484 23.1739C25.0499 23.8908 25.0586 24.2423 25.1744 24.2283C25.4061 24.2005 25.6682 24.0767 25.9607 23.8568C26.2532 23.637 26.5388 23.3593 26.8173 23.0236C27.0939 22.6714 27.3355 22.3066 27.5419 21.9293C27.7463 21.5354 27.9938 21.0105 28.2842 20.3544C28.8459 19.1622 29.1489 18.4711 29.1932 18.2811C29.3857 17.7879 29.5237 17.4692 29.607 17.3249C29.705 17.162 29.8337 17.0458 29.9932 16.9763L30.3407 16.9345C30.442 16.9391 30.5667 16.9996 30.715 17.1161C30.8368 17.1518 30.91 17.2018 30.9345 17.266C30.9736 17.3117 30.9991 17.3841 31.011 17.4834L30.7243 18.4495L30.5636 18.9976C30.555 19.0658 30.4868 19.2671 30.3592 19.6014C30.08 20.491 29.872 21.2043 29.7351 21.7412C29.5982 22.278 29.513 22.8254 29.4793 23.3834C29.4727 23.4682 29.4814 23.6098 29.5052 23.8084C29.5649 24.3048 29.6563 24.6463 29.7795 24.833C29.9642 25.1129 30.139 25.3101 30.3039 25.4246C30.3946 25.4808 30.4439 25.5421 30.4519 25.6082C30.4658 25.7241 30.3804 25.8518 30.1958 25.9916C30.0277 26.1293 29.9023 26.2031 29.8195 26.2131ZM28.2584 15.951C27.2629 16.1882 26.4854 15.5851 25.9257 14.1415C25.8767 14.0131 25.8492 13.9241 25.8433 13.8745C25.8293 13.7586 25.8475 13.6306 25.8978 13.4902C25.9229 13.42 25.9831 13.3624 26.0784 13.3174C26.1738 13.2724 26.2555 13.2542 26.3237 13.2628C26.5487 13.3196 26.7271 13.4073 26.8589 13.5257C26.9887 13.6276 27.081 13.7676 27.136 13.9457C27.1996 14.0555 27.2383 14.1684 27.2522 14.2842C27.4344 14.682 27.6413 14.8669 27.8729 14.8391C27.9226 14.8331 28.0427 14.7851 28.2333 14.695C28.8945 14.3302 29.3779 13.9531 29.6836 13.5638C29.6836 13.5638 29.9923 13.1994 30.6097 12.4705L30.6316 12.4427C30.6938 12.4016 30.7497 12.3781 30.7994 12.3721C30.9152 12.3582 31.0009 12.3731 31.0565 12.4167C31.1512 12.5061 31.2118 12.5911 31.2383 12.6719C31.2648 12.7526 31.283 12.8344 31.2929 12.9171C31.3029 12.9998 31.3109 13.066 31.3168 13.1157L31.298 13.1683C31.343 13.2636 31.2841 13.4721 31.1214 13.7939C30.9566 14.099 30.7611 14.3576 30.5348 14.5694C30.2502 14.8554 29.7658 15.2242 29.0814 15.6758C28.9736 15.7559 28.8296 15.8152 28.6496 15.8536C28.4695 15.8921 28.3392 15.9245 28.2584 15.951ZM41.3135 24.4283C41.0719 24.3734 40.8428 24.2834 40.6263 24.1584C40.4079 24.0168 40.1762 23.8348 39.9312 23.6124C39.7048 23.4047 39.2453 22.864 38.5527 21.9904C37.8602 21.1168 37.4738 20.6261 37.3937 20.5182C37.36 20.6566 37.3117 20.8135 37.2488 20.9889C37.2006 21.1458 37.1678 21.2924 37.1507 21.4287C37.1315 21.5486 37.1338 21.7077 37.1577 21.9063C37.0201 22.1579 36.9235 22.4716 36.868 22.8476C36.827 23.2051 36.7907 23.4612 36.759 23.6161C36.7034 23.9921 36.5241 24.3158 36.221 24.5873C35.9212 24.6066 35.6097 24.4593 35.2866 24.1457C35.186 24.0067 35.1247 23.8462 35.1028 23.6642C35.081 23.4821 35.0985 23.2786 35.1553 23.0535C35.1705 22.9006 35.2446 22.5392 35.3775 21.9693C35.5104 21.3993 35.6149 20.9419 35.6909 20.597C35.7478 20.372 35.8364 19.992 35.9568 19.4572C36.0917 18.9038 36.1614 18.5764 36.166 18.4752C36.1898 18.2541 36.3019 17.93 36.5024 17.5031C36.7637 16.8841 36.9129 16.3794 36.9499 15.9888C36.969 15.869 37.0388 15.7515 37.1593 15.6363C37.2943 15.5026 37.4362 15.4267 37.5852 15.4088C37.7672 15.3869 37.9271 15.4601 38.0648 15.6281C38.0999 15.6407 38.1525 15.6596 38.2227 15.6847C38.2908 15.6933 38.3445 15.7204 38.3835 15.7661C38.5689 15.9117 38.6745 16.092 38.7004 16.3071C38.7143 16.423 38.6898 16.5686 38.627 16.744C38.537 16.9731 38.4378 17.1948 38.3293 17.4093C38.1579 17.7992 38.0157 18.1521 37.9026 18.4678C37.806 18.7816 37.6995 19.2224 37.5832 19.7904C38.0015 19.6394 38.2728 19.5228 38.3973 19.4407C38.5197 19.3421 38.7172 19.1001 38.9898 18.7148C39.2519 18.3811 39.5014 18.0825 39.7383 17.8191C40.6303 16.7214 41.1044 16.1272 41.1607 16.0365C41.2692 15.822 41.3671 15.6592 41.4544 15.548C41.5398 15.4202 41.6622 15.3215 41.8217 15.252C42.0574 15.2572 42.2196 15.2797 42.3083 15.3194C42.4135 15.3571 42.6383 15.4812 42.9825 15.6916C43.0567 15.7498 43.1037 15.8617 43.1236 16.0271C43.1614 16.3415 43.0972 16.5759 42.9311 16.7301C42.8855 16.7692 42.5936 17.0645 42.0556 17.616C40.969 18.7706 40.0385 19.6882 39.2642 20.3689C39.6979 20.9043 40.1313 21.5068 40.5643 22.1766C40.6452 22.5698 40.8187 22.8259 41.0848 22.945C41.3509 23.0641 41.7073 23.0967 42.1541 23.043C42.2945 23.0933 42.3871 23.1661 42.4322 23.2614C42.4938 23.3547 42.5315 23.4593 42.5454 23.5751C42.5759 23.689 42.6034 23.778 42.6279 23.8422C42.4909 23.9594 42.3569 24.1014 42.2259 24.2682C42.0929 24.4185 41.9767 24.4996 41.8774 24.5116C41.7616 24.5255 41.5736 24.4977 41.3135 24.4283ZM46.5097 28.6633C46.4163 28.7249 46.3283 28.7606 46.2456 28.7706C46.0139 28.7984 45.8004 28.6982 45.6051 28.4699C45.4118 28.2581 45.2952 27.9868 45.2554 27.6558C45.2375 27.5069 45.2425 27.3384 45.2702 27.1504C45.2788 27.0823 45.3013 26.9201 45.3376 26.6639C45.3925 26.4223 45.4183 26.2178 45.4149 26.0503C45.4261 25.8643 45.4856 25.5214 45.5934 25.0216C45.7012 24.5219 45.7948 24.1833 45.8742 24.0059C45.939 23.847 45.9843 23.6653 46.0101 23.4607C46.0338 23.2397 46.0368 23.0546 46.0189 22.9057C46.0909 22.5277 46.1687 22.2666 46.252 22.1223C46.3241 21.7443 46.4144 21.4481 46.5229 21.2336C46.5335 21.182 46.5361 21.0641 46.5307 20.8801C46.54 20.6776 46.584 20.5548 46.6627 20.5117C46.6845 20.2741 46.707 20.1119 46.7301 20.0252C46.7843 19.4983 46.9218 18.8271 47.1427 18.0116C47.2565 17.5614 47.2875 17.1213 47.2357 16.691C47.1741 16.1781 47.0142 15.8951 46.756 15.8422C46.566 15.7979 46.4591 15.6765 46.4352 15.4779C46.4213 15.3621 46.4414 15.2505 46.4957 15.1433C46.55 15.0361 46.632 14.9506 46.7419 14.8871C46.8683 14.8215 46.9977 14.7808 47.1301 14.7649C47.3121 14.743 47.4805 14.7479 47.6354 14.7796C47.8069 14.8094 47.8863 14.8418 47.8738 14.8769C47.8797 14.9265 47.893 14.9669 47.9135 14.998C47.932 15.0126 47.9661 15.0169 48.0158 15.0109C48.0575 14.9387 48.1985 15.0645 48.4388 15.3881C48.6772 15.6952 48.8043 15.9149 48.8202 16.0473C48.7931 16.1009 48.7805 16.136 48.7825 16.1525C48.8011 16.1671 48.8352 16.1714 48.8848 16.1654C48.9947 16.1019 49.1968 15.9684 49.4914 15.7652C49.8004 15.5433 49.9904 15.3778 50.0612 15.2686C50.0923 15.2481 50.1472 15.2163 50.2259 15.1732C50.3027 15.1136 50.3629 15.056 50.4066 15.0004C50.5807 14.9124 50.7835 14.8544 51.0152 14.8265C51.28 14.7947 51.5414 14.8052 51.7996 14.8581C52.0577 14.911 52.2785 15.002 52.4619 15.131C52.8631 15.536 53.0876 15.9371 53.1353 16.3343C53.1771 16.6817 53.116 17.1507 52.952 17.7412C52.9308 17.8445 52.8471 18.056 52.7009 18.3757C52.5693 18.6769 52.4763 18.8811 52.4221 18.9884C52.1402 19.5762 51.7832 20.0976 51.3511 20.5524C50.919 21.0072 50.4094 21.4462 49.8224 21.8693C49.6543 22.007 49.4749 22.1209 49.2843 22.211C49.1102 22.299 48.957 22.351 48.8246 22.3669C48.7584 22.3749 48.6903 22.3663 48.6201 22.3412C48.4222 22.2307 48.2229 21.9693 48.0222 21.5569C47.8688 22.0958 47.7864 22.4582 47.7752 22.6442C47.7812 22.6938 47.7746 22.7786 47.7554 22.8984C47.7508 22.9997 47.7184 23.0791 47.6582 23.1367C47.6602 23.1532 47.6486 23.1966 47.6234 23.2668C47.6149 23.3349 47.5762 23.4319 47.5073 23.5577C47.3427 24.2825 47.2372 24.7317 47.1909 24.9051C47.0051 25.7332 46.9023 26.2743 46.8825 26.5285C46.8991 26.9462 46.8599 27.3874 46.7646 27.8521C46.6714 28.3333 46.5864 28.6037 46.5097 28.6633ZM48.6129 21.2341C48.7519 21.1335 49.1225 20.7952 49.7247 20.2192C50.3249 19.6266 50.6958 19.2211 50.8374 19.0026C51.1061 18.5842 51.2784 18.2026 51.3545 17.8577C51.4702 17.4241 51.5492 17.1041 51.5915 16.8976C51.6292 16.7923 51.6401 16.6735 51.6242 16.5411C51.6023 16.3591 51.5358 16.2244 51.4246 16.1371C51.3233 16.1324 51.1069 16.2172 50.7753 16.3914C50.4583 16.547 50.1161 16.7728 49.7488 17.0687C49.3961 17.3462 49.1082 17.6745 48.8852 18.0539C48.6351 18.4868 48.4469 18.9459 48.3206 19.4311C48.2108 19.9143 48.1758 20.3214 48.2156 20.6524C48.2653 21.0661 48.3978 21.26 48.6129 21.2341ZM56.5762 22.14C56.5146 22.0467 56.42 21.9574 56.2922 21.872C56.179 21.7681 56.1204 21.6996 56.1164 21.6665C56.0945 21.4845 56.0362 21.3488 55.9416 21.2595C55.9045 21.2304 55.879 21.1579 55.8651 21.0421C55.8332 20.7773 55.9036 20.3156 56.0762 19.657C56.2634 18.9798 56.5191 18.244 56.8432 17.4496C56.9306 17.3384 57.0338 17.1497 57.1529 16.8836C57.2885 16.6155 57.3792 16.4619 57.4248 16.4229C57.4169 16.3567 57.4347 16.2958 57.4784 16.2402C57.5201 16.168 57.574 16.1279 57.6402 16.12L57.6223 15.9711C57.6044 15.8221 57.8347 15.4335 58.3131 14.8053C58.7895 14.1604 59.1886 13.7096 59.5102 13.4527C59.8901 13.1216 60.2951 12.9303 60.7253 12.8785C61.0232 12.8427 61.2896 12.8946 61.5246 13.0342C61.6193 13.1236 62.0427 13.4336 62.7947 13.9643L63.8116 14.673L63.514 15.9677C63.4188 16.4324 63.3931 16.8468 63.4369 17.2108C63.5125 17.8396 63.7671 18.4217 64.2008 18.9571C64.3054 19.1292 64.4918 19.2831 64.7599 19.4187C65.028 19.5543 65.2881 19.6238 65.5403 19.627C65.9123 19.6495 66.1162 19.8096 66.152 20.1074C66.1918 20.4384 66.0668 20.6549 65.7769 20.7569C65.7127 20.7814 65.6144 20.8016 65.482 20.8175C64.5057 20.9349 63.5792 20.3496 62.7026 19.0617C62.6244 18.9704 62.5115 18.7993 62.3639 18.5485C62.2328 18.2957 62.153 18.1206 62.1245 18.0233C62.0411 18.1676 61.9359 18.3397 61.8089 18.5397C61.6818 18.7396 61.5601 18.9137 61.4436 19.062C59.8568 21.0825 58.5421 22.1555 57.4996 22.2808C57.1687 22.3206 56.8609 22.2737 56.5762 22.14ZM57.3027 20.6426C57.3126 20.7253 57.3983 20.7402 57.5598 20.6872C57.7379 20.6323 57.943 20.5237 58.1753 20.3614C58.4242 20.1972 58.668 19.9916 58.9069 19.7447C60.1828 18.3491 61.0804 17.1584 61.5998 16.1727L62.0385 15.2135C61.8312 14.8859 61.6276 14.6586 61.4277 14.5315C61.2258 14.3879 61.0503 14.3251 60.9014 14.343C60.5539 14.3848 60.0606 14.8889 59.4214 15.8555C58.7802 16.8055 58.2241 17.9047 57.7531 19.1532C57.638 19.4524 57.5404 19.7579 57.4604 20.0697C57.3784 20.3649 57.3258 20.5559 57.3027 20.6426ZM79.0015 22.3648C78.9213 22.2569 78.7886 22.1302 78.6032 21.9846C78.4344 21.837 78.3109 21.7176 78.2328 21.6262C78.1547 21.5349 78.0974 21.4075 78.061 21.244C78.2872 20.6125 78.4486 20.1399 78.5452 19.8261C78.7926 19.0913 78.9864 18.5392 79.1266 18.1698L78.9936 18.1103C78.8486 18.1613 78.6219 18.2305 78.3135 18.318C78.005 18.4054 77.7648 18.5014 77.5927 18.6061C77.5451 18.6286 77.4829 18.6696 77.4061 18.7292C77.3273 18.7723 77.2558 18.806 77.1916 18.8305C77.1255 18.8385 77.049 18.8309 76.9623 18.8078C76.8359 18.8733 76.4785 19.0422 75.8901 19.3144C75.6975 19.3879 75.4106 19.5147 75.0294 19.6948C74.8076 19.8054 74.5508 19.9034 74.2589 19.9889C73.9816 20.0558 73.7943 20.1035 73.697 20.132C73.6163 20.1585 73.463 20.2105 73.2373 20.288C73.0116 20.3655 72.7995 20.4162 72.6009 20.44C72.0052 20.5117 71.4224 20.481 70.8525 20.3481C70.2805 20.1986 69.8363 19.9247 69.5198 19.5263L69.4334 19.436C69.209 19.2447 69.0465 19.0796 68.9458 18.9406C68.8597 18.7831 68.7472 18.5448 68.6081 18.2258C68.5591 18.0974 68.5276 17.9753 68.5137 17.8595C68.454 17.363 68.5253 16.6998 68.7277 15.8697C68.9446 15.0211 69.1732 14.3389 69.4133 13.8232C69.4239 13.7716 69.4315 13.6951 69.4361 13.5939C69.4387 13.476 69.4536 13.3903 69.4807 13.3367C69.5747 13.1408 69.6345 12.9405 69.6603 12.736C69.6709 12.6843 69.6867 12.6069 69.7079 12.5036C69.7436 12.3818 69.7823 12.2848 69.824 12.2127C70.155 12.1729 70.435 12.198 70.664 12.288C70.891 12.3614 71.095 12.5215 71.2757 12.7684C70.9478 14.369 70.6859 15.3321 70.49 15.6578C70.3921 15.8207 70.2952 16.2016 70.1993 16.8007C70.1181 17.3812 70.0913 17.7873 70.1192 18.019C70.1411 18.201 70.2507 18.4144 70.448 18.6593L70.5562 18.7218C70.6575 18.7264 70.8144 18.7747 71.0269 18.8667C71.2539 18.9401 71.4419 18.9679 71.5909 18.95C72.7823 18.8067 73.461 18.658 73.6271 18.5037C73.6377 18.4521 73.636 18.3683 73.6221 18.2525C73.5943 18.0208 73.5985 17.7769 73.6349 17.5207C73.6692 17.248 73.6897 17.0693 73.6963 16.9846L73.847 15.9341C74.0955 14.5109 74.1923 13.5005 74.1372 12.9028C74.1054 12.638 74.2632 12.4847 74.6107 12.443C74.7596 12.425 74.8877 12.4432 74.995 12.4975C75.1022 12.5517 75.2042 12.6318 75.3008 12.7377C75.3975 12.8436 75.4922 12.9329 75.5849 13.0057C75.6173 13.1361 75.6253 13.4121 75.6089 13.8337C75.607 14.2369 75.5779 14.4838 75.5217 14.5745C75.5389 14.8577 75.5036 15.332 75.4157 15.9973C75.3424 16.644 75.2585 17.1325 75.1639 17.4628C75.1513 17.4979 75.149 17.5485 75.157 17.6147C75.1689 17.714 75.2047 17.802 75.2643 17.8788C75.7262 17.6722 76.1829 17.4914 76.6343 17.3364L77.7403 16.9013C77.8541 16.8708 77.9031 16.7894 77.8872 16.657C77.8852 16.6404 77.8504 16.5607 77.7829 16.4177L77.8482 15.7048C77.8588 15.6532 77.8647 15.493 77.866 15.2243C77.8818 14.937 77.941 14.6613 78.0435 14.3972C78.0707 14.3435 78.1358 13.9076 78.2388 13.0895C78.3565 12.2528 78.4411 11.6299 78.4926 11.2208L78.9463 11.0152L79.55 11.2196L79.9602 11.6991C80.0151 11.8771 80.0222 12.1449 79.9812 12.5023C79.9548 12.8412 79.9128 13.1904 79.8553 13.5498C79.7978 13.9093 79.7585 14.1406 79.7373 14.2439C79.5172 15.3447 79.4458 16.0079 79.5233 16.2336C79.9926 16.2276 80.4401 16.4592 80.8659 16.9284C80.9228 17.1229 80.9573 17.2699 80.9692 17.3692C81.013 17.7332 80.9813 18.0979 80.8741 18.4633C80.765 18.8122 80.5976 19.2352 80.372 19.7324C80.0545 20.442 79.8669 20.9765 79.8094 21.336C79.7545 21.5776 79.6752 21.755 79.5713 21.8682C79.4674 21.9814 79.2774 22.1469 79.0015 22.3648ZM85.2111 8.57494C85.0814 8.47304 84.9582 8.2864 84.8416 8.01504C84.7251 7.74368 84.7082 7.60303 84.7909 7.59308C84.9213 7.56062 85.0533 7.40206 85.187 7.11741C85.3352 6.81421 85.39 6.5726 85.3516 6.39257C85.3437 6.32638 85.3615 6.26548 85.4052 6.20987C85.4469 6.13771 85.4998 6.08938 85.564 6.06487C85.6864 5.96622 85.7973 5.91092 85.8966 5.89899C86.1779 5.86517 86.4583 6.0329 86.7377 6.40219C86.8628 6.60537 86.9353 6.78969 86.9552 6.95517C86.9731 7.1041 86.9507 7.26627 86.8878 7.44169C86.823 7.60057 86.6979 7.81704 86.5127 8.09112C86.2771 8.50553 86.0352 8.72766 85.787 8.7575C85.6216 8.7774 85.4296 8.71654 85.2111 8.57494ZM84.015 18.9418C83.7555 18.738 83.5999 18.421 83.5482 17.9908C83.5203 17.7591 83.5378 17.5556 83.6007 17.3801C83.5907 17.2974 83.5953 17.1961 83.6145 17.0763C83.6337 16.9565 83.6413 16.88 83.6373 16.847C83.6088 16.7497 83.6422 16.4687 83.7374 16.004C83.9556 15.3063 84.2125 14.0919 84.508 12.3609C84.4981 12.2782 84.5232 12.208 84.5834 12.1504C84.6417 12.0763 84.736 12.023 84.8664 11.9905C84.9948 11.9415 85.0838 11.914 85.1334 11.908C85.2327 11.8961 85.3204 11.9275 85.3966 12.0023C85.4873 12.0586 85.6107 12.178 85.767 12.3607C85.8782 12.448 85.9458 12.591 85.9696 12.7895C86.0074 13.1039 85.9456 13.4975 85.7842 13.9701C85.6268 14.4758 85.5359 14.9064 85.5115 15.2619C85.3666 15.7326 85.2592 16.1651 85.1891 16.5597C85.1679 16.6629 85.1422 16.8675 85.1118 17.1733C85.0814 17.4791 85.0192 17.73 84.9253 17.9259C84.8817 18.4012 84.8295 18.7348 84.7686 18.9268C84.7078 19.1187 84.6277 19.2207 84.5284 19.2326C84.4126 19.2466 84.2415 19.1496 84.015 18.9418ZM99.3505 17.7528C99.2718 17.7958 99.0487 17.7555 98.6813 17.6318C98.3119 17.4915 98.0335 17.3404 97.8462 17.1782C97.6568 16.9996 97.5026 16.8334 97.3834 16.6799C97.2808 16.5244 97.2165 16.3391 97.1907 16.1239C97.0635 15.9042 96.9695 15.6805 96.9085 15.4528C96.8621 15.2066 96.8161 14.8932 96.7703 14.5126C96.7285 14.1651 96.7539 13.8179 96.8465 13.4711C96.9391 13.1242 97.0734 12.7052 97.2493 12.214C97.3485 11.7824 97.6188 11.2379 98.0602 10.5805C98.5161 9.90459 99.0167 9.39116 99.562 9.04023C99.9955 8.73631 100.378 8.56445 100.709 8.52466C100.907 8.50079 101.102 8.51101 101.292 8.55531C101.496 8.58108 101.655 8.64591 101.768 8.74981C101.879 8.83716 101.962 8.8944 102.015 8.92152C102.132 8.77323 102.212 8.46144 102.255 7.98618C102.314 7.49237 102.31 6.97244 102.244 6.42637C102.121 5.40043 101.858 4.67668 101.454 4.25513C100.815 3.54305 100.131 3.23077 99.4029 3.31831C99.1216 3.35213 98.784 3.47665 98.3902 3.69186C98.1632 3.61844 97.9613 3.47485 97.7845 3.26109C97.6077 3.04733 97.5395 2.82891 97.5798 2.60583C97.9226 2.24567 98.2638 2.01161 98.6033 1.90364C98.9263 1.79766 99.1623 1.73572 99.3112 1.71782C99.5925 1.68399 99.8487 1.72034 100.08 1.82686C100.939 1.99215 101.622 2.29614 102.128 2.73885C102.635 3.18156 103.011 3.73219 103.258 4.39075C103.522 5.04731 103.732 5.88657 103.889 6.90854C103.923 7.05548 103.955 7.25305 103.985 7.50127C104.011 7.71638 104.032 8.09996 104.048 8.652C103.964 8.79631 103.926 8.96875 103.934 9.16931C103.941 9.36987 103.947 9.4867 103.951 9.51979C103.99 9.85074 103.986 10.0947 103.938 10.2515C103.947 10.4687 103.909 10.7083 103.823 10.9704C103.737 11.2326 103.7 11.4133 103.712 11.5125C103.395 12.9271 102.846 14.2269 102.066 15.4119C101.285 16.597 100.38 17.3772 99.3505 17.7528ZM99.0076 16.1573C99.2512 16.2287 99.6265 15.999 100.133 15.468C100.655 14.9185 101.073 14.3478 101.388 13.756C101.469 13.5951 101.593 13.2949 101.758 12.8554C101.922 12.3993 102.04 12.0577 102.113 11.8306C102.236 11.3123 102.273 10.8546 102.225 10.4575C102.191 10.1761 102.119 9.99182 102.008 9.90447C101.859 9.78801 101.678 9.74271 101.463 9.76857C101.049 9.81831 100.569 10.0858 100.023 10.5711C99.8424 10.7439 99.6687 10.9747 99.502 11.2633C99.3498 11.5334 99.2529 11.7045 99.2112 11.7767C99.0775 12.0613 98.968 12.2675 98.8827 12.3953L98.8886 12.445C98.9026 12.5608 98.8649 12.666 98.7755 12.7607C98.7027 12.8534 98.6528 12.9265 98.6256 12.9802C98.4854 13.3496 98.3958 13.7212 98.3568 14.0952C98.3159 14.4527 98.3043 14.7059 98.3222 14.8548C98.3581 15.1526 98.4332 15.429 98.5478 15.6838C98.6789 15.9366 98.8322 16.0944 99.0076 16.1573ZM107.229 23.4783C107.124 23.4406 106.961 23.4181 106.742 23.4109C106.54 23.4017 106.395 23.3855 106.308 23.3623C106.011 23.2638 105.717 23.1229 105.427 22.9396C105.136 22.7563 104.935 22.5538 104.825 22.3321L104.751 22.1395C104.712 22.0938 104.673 22.0481 104.634 22.0025C104.578 21.9588 104.54 21.9214 104.52 21.8903C104.475 21.795 104.431 21.6408 104.389 21.4276C104.348 21.2311 104.297 21.0861 104.236 20.9928C104.288 20.869 104.332 20.7462 104.368 20.6244C104.387 20.5046 104.423 20.3828 104.475 20.259L104.913 20.1308C105.028 20.1169 105.119 20.1731 105.185 20.2996C105.267 20.424 105.349 20.6156 105.43 20.8744C105.571 21.3443 105.739 21.7017 105.937 21.9466C106.134 22.1914 106.456 22.287 106.903 22.2333C107.449 22.1676 107.881 21.8555 108.2 21.2967C108.519 20.738 108.751 20.0807 108.895 19.3247L109.025 18.73C109.009 18.5976 109.029 18.4188 109.086 18.1938C109.097 18.1422 109.112 18.0564 109.131 17.9366C109.152 17.8334 109.158 17.7404 109.148 17.6576C109.132 17.5252 109.126 17.4084 109.131 17.3071C109.137 17.2224 109.145 17.146 109.154 17.0778C109.18 16.7389 109.183 16.4867 109.163 16.3212C109.135 16.0895 109.079 15.9032 108.995 15.7622L108.792 14.9054C108.715 14.8307 108.607 14.6927 108.465 14.4915C108.321 14.2737 108.193 14.1129 108.08 14.009L107.977 13.3667C108.006 13.3296 108.043 13.2832 108.086 13.2276C108.13 13.172 108.176 13.133 108.223 13.1104C108.965 12.7191 109.601 12.2146 110.131 11.5969C110.676 10.9606 111.012 10.2656 111.14 9.51161C111.17 9.20579 111.176 8.97842 111.158 8.8295C111.136 8.64747 111.103 8.50881 111.058 8.4135C110.914 8.33013 110.77 8.32222 110.627 8.38977C110.068 8.62488 109.655 8.89272 109.389 9.19329C109.123 9.49386 108.861 9.89471 108.602 10.3958C108.387 10.8414 108.156 11.2217 107.908 11.5368C107.816 11.464 107.694 11.4283 107.543 11.4297C107.392 11.431 107.262 11.3963 107.153 11.3255C107.06 11.2527 106.929 11.0753 106.761 10.7934C106.861 10.6471 106.945 10.4356 107.012 10.1589C107.025 10.1238 107.042 10.0546 107.063 9.95137C107.099 9.82957 107.145 9.72333 107.201 9.63263C107.286 9.50486 107.406 9.3142 107.56 9.06065C107.731 8.80511 107.897 8.58366 108.059 8.39631C108.22 8.1924 108.398 8.00305 108.595 7.82826C109.239 7.31447 109.858 7.02176 110.454 6.95014C111.099 6.87255 111.66 7.06537 112.135 7.52861C112.477 7.85684 112.681 8.30227 112.749 8.86488C112.801 9.29512 112.763 9.75284 112.637 10.2381C112.511 10.7233 112.322 11.1824 112.072 11.6153C111.891 11.9225 111.689 12.1985 111.467 12.4435C111.243 12.6719 110.955 12.9331 110.604 13.2271L109.947 13.8349L110.131 14.3164C110.323 14.7969 110.464 15.1996 110.553 15.5246C110.659 15.8476 110.725 16.1838 110.75 16.5333C110.812 17.8856 110.725 19.046 110.489 20.0144C110.253 20.9828 109.737 21.859 108.941 22.6429C108.536 23.0441 107.965 23.3226 107.229 23.4783ZM120.117 14.5258C119.747 14.9396 119.273 15.1813 118.694 15.2509C118.28 15.3007 117.871 15.2491 117.466 15.0963C117.078 14.9415 116.739 14.7053 116.449 14.3876C116.202 14.1487 116.009 13.8698 115.87 13.5508C115.731 13.2318 115.633 12.8323 115.575 12.3524C115.555 12.187 115.532 11.854 115.505 11.3536C115.482 10.7354 115.604 10.0744 115.871 9.37077C116.156 8.6651 116.532 8.02395 117 7.44731C117.466 6.85413 117.943 6.42741 118.432 6.16717C118.677 5.96986 118.907 5.85828 119.122 5.83242C119.238 5.81849 119.355 5.81284 119.473 5.81546C119.591 5.81808 119.717 5.81971 119.851 5.82034C120.221 5.82621 120.503 5.86785 120.697 5.94525C120.906 6.00411 121.087 6.1166 121.241 6.28271C121.705 6.64666 121.969 7.10167 122.035 7.64773C122.016 8.05283 121.815 8.53872 121.429 9.10541C121.044 9.6721 120.556 10.1504 119.965 10.5404C119.679 10.6755 119.346 10.766 118.966 10.8117C118.453 10.8734 118.026 10.8156 117.686 10.6383C117.531 10.6065 117.412 10.5956 117.329 10.6056C117.18 10.6235 117.076 10.7367 117.018 10.9452C116.975 11.1517 116.953 11.5237 116.95 12.0612C116.948 12.179 116.959 12.3455 116.985 12.5606C117.087 13.4046 117.424 13.8341 117.996 13.8492C118.387 13.8861 118.665 13.8947 118.83 13.8748C119.029 13.8509 119.244 13.7579 119.477 13.5956L119.915 13.2659C120.009 13.2043 120.092 13.1272 120.164 13.0345C120.237 12.9418 120.303 12.8584 120.361 12.7843C120.39 12.7472 120.434 12.6916 120.492 12.6174C120.548 12.5267 120.6 12.4701 120.648 12.4476C120.71 12.4066 120.766 12.383 120.816 12.3771C120.882 12.3691 120.961 12.4015 121.054 12.4743C121.145 12.5306 121.217 12.5723 121.27 12.5994C121.419 12.5815 121.465 12.6851 121.409 12.9101C121.35 13.1186 121.196 13.3805 120.949 13.6956C120.716 13.9922 120.439 14.2689 120.117 14.5258ZM119.46 9.2667C119.727 9.11705 119.983 8.87638 120.229 8.54471C120.491 8.21104 120.61 7.94492 120.586 7.74635C120.562 7.54778 120.468 7.39126 120.303 7.27679C120.138 7.16231 119.924 7.12099 119.659 7.15282C119.46 7.17669 119.313 7.21115 119.218 7.25618C118.994 7.35022 118.743 7.56507 118.464 7.90073C118.184 8.21983 117.946 8.54224 117.75 8.86795C117.554 9.19366 117.484 9.37835 117.539 9.42202C117.64 9.561 117.972 9.59667 118.534 9.52903C118.915 9.48327 119.223 9.39583 119.46 9.2667ZM124.739 20.4666C124.549 20.4223 124.349 20.2952 124.139 20.0854C123.932 19.8922 123.819 19.7211 123.801 19.5722C123.771 19.324 123.838 18.485 124.002 17.0552C124.168 15.642 124.356 14.4862 124.567 13.588C124.575 13.5198 124.65 13.2338 124.791 12.7301C124.932 12.2263 125.053 11.6243 125.153 10.9239C125.228 10.4281 125.463 9.45143 125.858 7.9938L126.363 6.12013L126.746 4.48775C126.78 4.3494 126.849 4.22362 126.953 4.11041C127.071 3.97866 127.178 3.89027 127.273 3.84524C127.304 3.82472 127.361 3.80948 127.444 3.79953C127.676 3.77168 127.89 3.88018 128.087 4.12505C128.149 4.21837 128.186 4.31467 128.198 4.41395C128.218 4.57943 128.157 4.91404 128.016 5.41779L127.902 5.93511L128.772 5.62911C129.004 5.60125 129.195 5.58665 129.346 5.58529C129.941 5.51367 130.316 5.48545 130.469 5.50064C130.835 5.47342 131.099 5.50877 131.262 5.6067C131.441 5.70264 131.621 5.86576 131.799 6.09607C132.131 6.34157 132.326 6.56988 132.385 6.78102C132.442 6.97561 132.478 7.13083 132.492 7.24666C132.555 7.77618 132.464 8.34115 132.217 8.94156C131.968 9.52543 131.646 9.98388 131.249 10.3169C131.092 10.403 130.959 10.4861 130.851 10.5662C130.743 10.6463 130.674 10.6967 130.643 10.7172C130.625 10.8535 130.271 11.1144 129.578 11.4998C128.901 11.8667 128.334 12.111 127.879 12.2329C127.717 12.2859 127.529 12.3253 127.314 12.3512C127.132 12.3731 126.988 12.3652 126.883 12.3275C126.68 12.3183 126.546 12.3176 126.48 12.3256C126.43 12.3315 126.409 12.3676 126.417 12.4338C126.151 13.7081 125.946 14.8658 125.803 15.907C125.434 17.7307 125.183 18.9192 125.048 19.4726C124.915 20.0426 124.812 20.3739 124.739 20.4666ZM126.741 10.9345C126.765 10.9987 126.86 11.0209 127.026 11.001C127.373 10.9592 127.884 10.7383 128.558 10.3384C129.246 9.91988 129.776 9.51202 130.148 9.11479C130.446 8.65932 130.67 8.28826 130.82 8.00162C130.985 7.69644 131.058 7.46938 131.04 7.32046C131.032 7.25427 130.991 7.19206 130.917 7.13382C130.722 6.90551 130.409 6.81721 129.979 6.86894C129.432 6.93459 128.804 7.22002 128.092 7.72522C127.775 7.88084 127.554 8.06689 127.429 8.28337C127.319 8.4813 127.222 8.72789 127.14 9.02312C127.058 9.31836 126.993 9.54442 126.945 9.7013C126.756 10.3619 126.688 10.773 126.741 10.9345ZM141.617 12.3691C141.375 12.3142 141.146 12.2242 140.929 12.0991C140.711 11.9575 140.479 11.7756 140.234 11.5532C140.008 11.3454 139.548 10.8047 138.856 9.93117C138.163 9.05759 137.777 8.56687 137.697 8.45899C137.663 8.59734 137.615 8.75423 137.552 8.92965C137.504 9.08654 137.471 9.23316 137.454 9.36952C137.435 9.48933 137.437 9.64852 137.461 9.84709C137.323 10.0986 137.227 10.4124 137.171 10.7884C137.13 11.1458 137.094 11.402 137.062 11.5569C137.007 11.9329 136.827 12.2566 136.524 12.5281C136.224 12.5473 135.913 12.4001 135.59 12.0864C135.489 11.9475 135.428 11.787 135.406 11.6049C135.384 11.4229 135.402 11.2194 135.458 10.9943C135.474 10.8414 135.548 10.48 135.681 9.91004C135.813 9.3401 135.918 8.88269 135.994 8.53781C136.051 8.31275 136.139 7.93279 136.26 7.39793C136.395 6.84454 136.464 6.5172 136.469 6.41593C136.493 6.19484 136.605 5.87081 136.805 5.44383C137.067 4.82488 137.216 4.32013 137.253 3.92959C137.272 3.80978 137.342 3.69227 137.462 3.57707C137.597 3.44333 137.739 3.36751 137.888 3.34961C138.07 3.32772 138.23 3.40083 138.368 3.56893C138.403 3.58149 138.456 3.60035 138.526 3.62548C138.594 3.63407 138.648 3.6612 138.687 3.70686C138.872 3.85244 138.978 4.03279 139.003 4.24791C139.017 4.36374 138.993 4.50937 138.93 4.68479C138.84 4.91384 138.741 5.1356 138.632 5.35009C138.461 5.74 138.319 6.09283 138.206 6.40859C138.109 6.72236 138.003 7.16322 137.886 7.73117C138.305 7.58016 138.576 7.4636 138.7 7.3815C138.823 7.28284 139.02 7.04087 139.293 6.65557C139.555 6.32191 139.804 6.02332 140.041 5.75983C140.933 4.66217 141.407 4.06799 141.464 3.97729C141.572 3.76281 141.67 3.59996 141.758 3.48873C141.843 3.36096 141.965 3.26231 142.125 3.19277C142.36 3.19802 142.523 3.22048 142.611 3.26018C142.717 3.29789 142.941 3.42194 143.286 3.63236C143.36 3.69059 143.407 3.80244 143.427 3.96792C143.464 4.28232 143.4 4.51665 143.234 4.67092C143.189 4.70998 142.897 5.00526 142.359 5.55676C141.272 6.71139 140.342 7.62902 139.567 8.30964C140.001 8.84504 140.434 9.44762 140.867 10.1174C140.948 10.5105 141.122 10.7667 141.388 10.8857C141.654 11.0048 142.01 11.0375 142.457 10.9838C142.598 11.0341 142.69 11.1069 142.735 11.2022C142.797 11.2955 142.835 11.4001 142.848 11.5159C142.879 11.6297 142.906 11.7188 142.931 11.783C142.794 11.9002 142.66 12.0422 142.529 12.209C142.396 12.3593 142.28 12.4404 142.18 12.4523C142.065 12.4663 141.877 12.4385 141.617 12.3691ZM148.214 11.2988C148.053 11.3518 147.906 11.3863 147.774 11.4022C147.559 11.428 147.358 11.4354 147.172 11.4242C146.984 11.3964 146.886 11.3494 146.878 11.2832C146.872 11.2336 146.86 11.2015 146.841 11.1869C146.823 11.1724 146.789 11.1681 146.739 11.174C146.72 11.1595 146.666 11.1241 146.575 11.0678C146.484 11.0116 146.378 10.9656 146.256 10.9299C146.08 10.7161 145.975 10.4769 145.944 10.2121C145.91 9.93082 145.931 9.48336 146.009 8.86975C145.995 8.33426 146.163 7.64251 146.515 6.79452C146.866 5.94652 147.297 5.13094 147.807 4.34778C148.334 3.56263 148.82 3.00055 149.266 2.66155C149.484 2.38349 149.784 2.22159 150.164 2.17583C150.462 2.14002 150.753 2.18066 151.035 2.29776C151.283 2.40228 151.55 2.59683 151.836 2.88139C152.138 3.16396 152.384 3.46177 152.572 3.77481C152.669 4.01507 152.73 4.25103 152.758 4.48269C152.788 4.7309 152.802 5.12375 152.799 5.66123C152.752 5.96903 152.722 6.34203 152.707 6.78022C152.709 7.21642 152.729 7.59173 152.767 7.90613C152.762 8.14177 152.801 8.33008 152.885 8.47105C152.967 8.59547 153.066 8.65072 153.182 8.63679C153.265 8.62685 153.353 8.59108 153.446 8.5295C153.602 8.42687 153.779 8.36362 153.977 8.33974C154.159 8.31786 154.314 8.3496 154.442 8.43496C154.57 8.52032 154.646 8.66228 154.67 8.86085C154.705 9.1587 154.534 9.48143 154.157 9.82902C153.795 10.1746 153.432 10.3693 153.068 10.4131C152.82 10.4429 152.566 10.2805 152.305 9.92574C152.058 9.55248 151.799 9.07165 151.527 8.48327L151.309 7.93029L150.365 9.07628L149.862 9.7158C149.629 10.0124 149.499 10.1875 149.472 10.2411C149.328 10.5774 148.909 10.93 148.214 11.2988ZM148.113 9.82541C148.482 9.546 148.922 9.0819 149.431 8.4331C149.941 7.78431 150.354 7.17227 150.671 6.597C151.102 5.85687 151.344 5.14791 151.397 4.47009C151.307 4.27948 151.176 4.09384 151.003 3.91317C150.83 3.73251 150.685 3.64087 150.567 3.63825C150.236 3.67804 149.911 3.91011 149.593 4.33447C149.275 4.75883 148.908 5.34008 148.493 6.07821L147.82 7.39293C147.737 7.53725 147.606 7.91391 147.427 8.52291C147.247 9.11537 147.164 9.46951 147.178 9.58535C147.221 9.94939 147.351 10.1185 147.566 10.0926C147.731 10.0727 147.914 9.98366 148.113 9.82541ZM156.891 10.5074C156.767 10.4552 156.622 10.4307 156.454 10.4341C156.303 10.4354 156.194 10.4318 156.126 10.4232C155.866 10.2194 155.685 9.97254 155.583 9.68265L155.574 9.60818C155.565 9.52544 155.579 9.43972 155.619 9.35102C155.675 9.26032 155.71 9.19743 155.722 9.16235L156.098 9.14241C156.519 8.7392 156.93 8.1778 157.33 7.45821C157.735 6.77171 158.011 6.06704 158.159 5.34419C158.176 5.20783 158.19 5.04665 158.202 4.86065C158.213 4.67465 158.237 4.52902 158.275 4.42377C158.338 4.24834 158.387 4.03255 158.424 3.77638C158.477 3.51822 158.519 3.31169 158.551 3.15679C158.162 3.13636 157.907 3.10829 157.785 3.07257C157.68 3.03486 157.471 2.90054 157.158 2.6696C157.113 2.43993 157.118 2.27147 157.172 2.16423C157.225 2.04043 157.371 1.93052 157.611 1.83449C157.659 1.81198 157.738 1.77721 157.85 1.73019C157.979 1.68118 158.093 1.6507 158.192 1.63876C158.306 1.60829 158.487 1.57813 158.735 1.54829C158.983 1.51845 159.174 1.50384 159.309 1.50448C159.476 1.50113 159.748 1.52721 160.124 1.58273C160.279 1.61447 160.436 1.66275 160.595 1.72758C160.752 1.77587 160.907 1.81588 161.062 1.84762C161.199 1.8648 161.428 1.95476 161.749 2.11752C162.069 2.26374 162.329 2.46755 162.528 2.72896C162.727 2.99037 162.846 3.27828 162.884 3.59268C162.945 4.10566 162.929 4.59449 162.833 5.05918C162.726 5.84423 162.62 6.49492 162.514 7.01124C162.495 7.13105 162.46 7.32831 162.409 7.60302C162.356 7.86118 162.325 8.09154 162.316 8.29408C162.307 8.36226 162.305 8.76537 162.31 9.50341L161.928 9.67526C161.876 9.66468 161.765 9.64452 161.593 9.61477C161.422 9.58503 161.272 9.52747 161.144 9.44211C161.017 9.35675 160.918 9.23432 160.848 9.07482L160.84 8.7988L160.805 8.50094C160.791 7.96545 160.853 7.37038 160.993 6.71571C161.084 6.35229 161.155 5.96605 161.206 5.55697C161.272 5.12936 161.314 4.84737 161.331 4.71101C161.382 4.43631 161.403 4.12321 161.394 3.77174L161.382 3.67245C161.365 3.52352 161.302 3.35475 161.196 3.16613C160.887 2.96828 160.495 2.85584 160.022 2.82881C159.988 2.96716 159.945 3.09823 159.893 3.22202C159.88 3.25711 159.87 3.30874 159.861 3.37692C159.867 3.42656 159.863 3.46065 159.848 3.47919C159.774 3.55532 159.726 3.64502 159.705 3.74829C159.681 3.835 159.67 3.95382 159.672 4.10474C159.675 4.2722 159.629 4.44564 159.533 4.62504C159.462 4.73427 159.428 4.9398 159.431 5.24164C159.422 5.72947 159.317 6.24579 159.113 6.7906C158.976 7.04216 158.865 7.30728 158.781 7.58596C158.772 7.65414 158.747 7.72431 158.706 7.79647C158.664 7.86863 158.63 7.93979 158.605 8.00996C158.442 8.46606 158.274 8.8136 158.101 9.0526C158.028 9.14528 157.878 9.35647 157.649 9.68615C157.42 10.0158 157.167 10.2896 156.891 10.5074ZM167.445 8.88605C167.155 8.98805 166.821 8.93584 166.444 8.7294C166.067 8.52297 165.827 8.2748 165.725 7.98491C165.701 7.92071 165.679 7.81414 165.662 7.66521C165.588 7.05296 165.725 6.2391 166.073 5.22364C166.436 4.18964 166.907 3.22644 167.488 2.33405C168.067 1.4251 168.625 0.829253 169.162 0.546494C169.487 0.322692 169.7 0.204823 169.799 0.192886C169.898 0.18095 170.133 0.245103 170.502 0.385347C170.742 0.423684 170.924 0.477258 171.05 0.54607C171.176 0.614881 171.345 0.762451 171.557 0.988779C171.824 1.39315 172.044 1.90377 172.219 2.52064C172.36 2.8562 172.44 3.09844 172.458 3.24737C172.474 3.37975 172.438 3.50155 172.351 3.61277C172.336 3.63131 172.307 3.66838 172.263 3.724C172.236 3.77762 172.225 3.82098 172.229 3.85407C172.231 3.87062 172.248 3.8769 172.281 3.87292C172.283 3.88947 172.28 3.93183 172.271 4.00001C172.261 4.05165 172.237 4.13009 172.199 4.23534C172.076 4.88802 172.041 5.43775 172.095 5.88453C172.113 6.03346 172.148 6.18867 172.201 6.35017C172.419 6.76051 172.726 6.94181 173.123 6.89406C173.454 6.85427 173.75 6.66754 174.012 6.33388C174.255 6.12002 174.431 5.97304 174.538 5.89292C174.661 5.79427 174.729 5.80286 174.743 5.91869C174.762 5.93325 174.798 5.95409 174.851 5.98122C174.905 6.00834 174.956 6.01892 175.006 6.01295C175.122 5.99903 175.189 6.06653 175.207 6.21546C175.225 6.36438 175.187 6.53682 175.093 6.73277C174.991 6.86253 174.912 6.97276 174.855 7.06345C174.799 7.15415 174.774 7.22432 174.78 7.27396L174.449 7.66622C174.157 7.88604 173.796 8.02182 173.365 8.07354C172.919 8.12726 172.552 8.07902 172.265 7.92883C172.014 7.79121 171.761 7.57813 171.508 7.28959C171.256 7.00105 171.081 6.73665 170.985 6.4964L170.831 6.2631L170.168 6.82125C170.022 7.00662 169.853 7.20325 169.66 7.41113C169.465 7.60247 169.338 7.73521 169.28 7.80936C169.167 7.99075 169.061 8.08742 168.962 8.09935L168.714 8.12919C168.728 8.24503 168.578 8.3973 168.265 8.58602C167.967 8.7562 167.693 8.85621 167.445 8.88605ZM167.036 7.57555C167.218 7.55366 167.65 7.24147 168.333 6.63897C169.014 6.01993 169.439 5.57436 169.608 5.30227L170.238 4.47109C170.467 4.14141 170.633 3.77732 170.736 3.37882C170.856 2.97833 170.897 2.62089 170.859 2.30648C170.825 2.02518 170.76 1.83158 170.663 1.72569C170.573 1.53508 170.462 1.44773 170.33 1.46365C170.263 1.47161 170.08 1.5524 169.78 1.70604C169.489 1.9424 169.097 2.45118 168.603 3.23235C168.126 4.01154 167.71 4.80858 167.355 5.62348C166.998 6.42183 166.84 6.99476 166.882 7.34226C166.888 7.3919 166.91 7.43955 166.949 7.48521C166.988 7.53088 167.017 7.56099 167.036 7.57555ZM6.5565 61.1396C6.47774 61.1827 6.25467 61.1424 5.88728 61.0187C5.51789 60.8784 5.23952 60.7272 5.05217 60.5651C4.86282 60.3864 4.70855 60.2203 4.58937 60.0668C4.48674 59.9113 4.42249 59.7259 4.39663 59.5108C4.26949 59.2911 4.17545 59.0674 4.1145 58.8397C4.06811 58.5935 4.02204 58.2801 3.97628 57.8995C3.9345 57.552 3.95991 57.2048 4.0525 56.8579C4.14509 56.5111 4.27936 56.092 4.45532 55.6009C4.55451 55.1693 4.82479 54.6248 5.26614 53.9674C5.72205 53.2915 6.22267 52.778 6.76801 52.4271C7.2015 52.1232 7.58372 51.9513 7.91467 51.9115C8.11324 51.8877 8.30752 51.8979 8.4975 51.9422C8.70204 51.968 8.86091 52.0328 8.97412 52.1367C9.08534 52.224 9.16776 52.2813 9.22139 52.3084C9.33785 52.1601 9.41787 51.8483 9.46145 51.3731C9.51959 50.8792 9.51583 50.3593 9.45018 49.8132C9.32683 48.7873 9.06356 48.0636 8.66036 47.642C8.02078 46.9299 7.33695 46.6176 6.60886 46.7052C6.32755 46.739 5.99 46.8635 5.59621 47.0787C5.36916 47.0053 5.16724 46.8617 4.99046 46.648C4.81368 46.4342 4.74545 46.2158 4.78578 45.9927C5.12857 45.6325 5.46974 45.3985 5.80928 45.2905C6.13227 45.1845 6.36823 45.1226 6.51716 45.1047C6.79846 45.0709 7.05464 45.1072 7.28567 45.2137C8.14488 45.379 8.82771 45.683 9.33418 46.1257C9.84064 46.5684 10.2174 47.1191 10.4644 47.7776C10.728 48.4342 10.9381 49.2734 11.0945 50.2954C11.1289 50.4424 11.1611 50.6399 11.1909 50.8881C11.2168 51.1033 11.2377 51.4868 11.2537 52.0389C11.1704 52.1832 11.1324 52.3556 11.1397 52.5562C11.147 52.7567 11.1527 52.8736 11.1566 52.9067C11.1964 53.2376 11.1922 53.4815 11.1439 53.6384C11.1532 53.8555 11.1149 54.0951 11.0289 54.3573C10.9429 54.6194 10.9059 54.8001 10.9178 54.8994C10.6011 56.314 10.0523 57.6138 9.2715 58.7988C8.4907 59.9838 7.5857 60.7641 6.5565 61.1396ZM6.2136 59.5442C6.4572 59.6156 6.83246 59.3858 7.33937 58.8549C7.86084 58.3053 8.27904 57.7347 8.59398 57.1429C8.67536 56.982 8.79874 56.6818 8.96412 56.2422C9.12751 55.7861 9.24592 55.4446 9.31934 55.2175C9.44168 54.6992 9.47898 54.2415 9.43123 53.8443C9.39741 53.563 9.32489 53.3787 9.21366 53.2913C9.06537 53.1749 8.88366 53.1296 8.66854 53.1554C8.25486 53.2052 7.77503 53.4727 7.22905 53.958C7.04839 54.1308 6.87469 54.3615 6.70795 54.6502C6.55577 54.9203 6.45883 55.0914 6.41715 55.1635C6.28351 55.4482 6.17401 55.6544 6.08865 55.7822L6.09462 55.8318C6.10854 55.9477 6.07084 56.0529 5.9815 56.1476C5.90871 56.2403 5.85875 56.3134 5.83162 56.367C5.69138 56.7364 5.60177 57.1081 5.5628 57.4821C5.52185 57.8395 5.51032 58.0927 5.52822 58.2417C5.56403 58.5395 5.63922 58.8159 5.75379 59.0707C5.88491 59.3235 6.03818 59.4813 6.2136 59.5442ZM13.6548 59.9589C13.531 59.9066 13.3854 59.8822 13.2179 59.8855C13.067 59.8869 12.9574 59.8833 12.8893 59.8747C12.6297 59.6709 12.449 59.424 12.347 59.1341L12.338 59.0596C12.3281 58.9769 12.343 58.8912 12.3827 58.8025C12.4389 58.7118 12.4733 58.6489 12.4859 58.6138L12.8612 58.5939C13.2827 58.1907 13.6936 57.6293 14.0939 56.9097C14.4982 56.2232 14.7744 55.5185 14.9225 54.7956C14.9397 54.6593 14.9539 54.4981 14.9651 54.3121C14.9763 54.1261 15.0008 53.9805 15.0385 53.8752C15.1013 53.6998 15.1509 53.484 15.1873 53.2278C15.2402 52.9697 15.2825 52.7631 15.3142 52.6082C14.9257 52.5878 14.6705 52.5597 14.5487 52.524C14.4434 52.4863 14.2342 52.352 13.9211 52.1211C13.8767 51.8914 13.8816 51.7229 13.9359 51.6157C13.9881 51.4919 14.1344 51.382 14.3747 51.2859C14.4223 51.2634 14.5021 51.2287 14.6139 51.1816C14.7423 51.1326 14.8562 51.1022 14.9554 51.0902C15.0693 51.0597 15.2503 51.0296 15.4985 50.9997C15.7467 50.9699 15.938 50.9553 16.0724 50.9559C16.2399 50.9526 16.5116 50.9787 16.8876 51.0342C17.0425 51.0659 17.1994 51.1142 17.3582 51.179C17.5151 51.2273 17.671 51.2673 17.8259 51.2991C17.9623 51.3163 18.1913 51.4062 18.513 51.569C18.8328 51.7152 19.0923 51.919 19.2916 52.1804C19.4909 52.4418 19.6094 52.7297 19.6472 53.0441C19.7089 53.5571 19.6921 54.0459 19.5969 54.5106C19.4899 55.2957 19.3834 55.9464 19.2777 56.4627C19.2585 56.5825 19.2235 56.7798 19.1725 57.0545C19.1196 57.3126 19.0886 57.543 19.0794 57.7455C19.0708 57.8137 19.0689 58.2168 19.0737 58.9549L18.6915 59.1267C18.6398 59.1161 18.5283 59.096 18.3569 59.0662C18.1854 59.0365 18.0358 58.9789 17.908 58.8936C17.7803 58.8082 17.6816 58.6858 17.6121 58.5263L17.6041 58.2503L17.5683 57.9524C17.5542 57.4169 17.617 56.8218 17.7565 56.1672C17.8471 55.8037 17.9182 55.4175 17.9697 55.0084C18.0358 54.5808 18.0774 54.2988 18.0946 54.1625C18.1455 53.8878 18.1666 53.5747 18.158 53.2232L18.146 53.1239C18.1281 52.975 18.0659 52.8062 17.9592 52.6176C17.6501 52.4197 17.2589 52.3073 16.7856 52.2803C16.7519 52.4186 16.7089 52.5497 16.6566 52.6735C16.644 52.7086 16.6335 52.7602 16.6249 52.8284C16.6308 52.878 16.6265 52.9121 16.612 52.9306C16.5372 53.0068 16.4892 53.0965 16.4681 53.1997C16.4449 53.2865 16.434 53.4053 16.4354 53.5562C16.4387 53.7237 16.3924 53.8971 16.2965 54.0765C16.2257 54.1857 16.1917 54.3913 16.1944 54.6931C16.1859 55.1809 16.0801 55.6972 15.877 56.2421C15.7394 56.4936 15.6286 56.7587 15.5446 57.0374C15.536 57.1056 15.5108 57.1758 15.4692 57.2479C15.4275 57.3201 15.3941 57.3912 15.3689 57.4614C15.2055 57.9175 15.0375 58.2651 14.8648 58.5041C14.792 58.5967 14.6411 58.8079 14.4122 59.1376C14.1832 59.4673 13.9308 59.7411 13.6548 59.9589ZM23.1504 59.1698C22.7698 59.2155 22.4755 59.1418 22.2676 58.9486C22.0909 58.7348 21.9359 58.4932 21.8028 58.2239C21.822 58.1041 21.867 57.9895 21.9378 57.8803C22.0066 57.7545 22.0989 57.6847 22.2147 57.6707C22.2809 57.6628 22.3584 57.6787 22.4471 57.7183C22.4802 57.7144 22.5153 57.7269 22.5523 57.7561C22.5894 57.7852 22.6348 57.8133 22.6884 57.8404C23.2046 57.5266 23.6209 57.1492 23.9372 56.7083C24.27 56.2654 24.6253 55.6603 25.0031 54.893C24.7118 54.8441 24.4146 54.7456 24.1114 54.5974C23.8248 54.4472 23.6116 54.2798 23.4719 54.0951C23.2931 53.8648 23.1488 53.5716 23.0388 53.2155C22.9289 52.8594 22.8626 52.6576 22.8401 52.6099C22.8884 52.453 22.9509 52.135 23.0275 51.6557C23.0619 51.383 23.1085 51.1424 23.1674 50.9339C23.2262 50.7253 23.339 50.4768 23.5058 50.1881C23.7142 49.8273 24.0249 49.4794 24.4379 49.1444C24.8488 48.7928 25.1453 48.6061 25.3273 48.5842C25.4657 48.618 25.6394 48.5971 25.8486 48.5216C26.0723 48.4275 26.2358 48.3911 26.339 48.4122C26.4072 48.4208 26.4661 48.4221 26.5158 48.4162C26.5634 48.3936 26.6131 48.3877 26.6647 48.3983C27.1731 48.4379 27.5779 48.5235 27.8791 48.6551C28.1783 48.7702 28.3911 49.0048 28.5176 49.3589C28.4985 49.4788 28.4737 49.6916 28.4433 49.9974C28.4109 50.2866 28.3673 50.5521 28.3124 50.7937C28.2575 51.0353 28.1841 51.2624 28.0922 51.4749L27.8689 52.1312C27.6427 52.7627 27.4389 53.2321 27.2576 53.5392L27.3252 53.6822C27.5463 53.706 27.7663 53.7215 27.9854 53.7287C28.2191 53.7174 28.3783 53.7151 28.463 53.7217C28.6676 53.7474 28.8698 53.8238 29.0697 53.9509C29.2696 54.0779 29.4057 54.1623 29.4778 54.204L29.4898 54.3033C29.5017 54.4025 29.4816 54.5141 29.4293 54.6379C29.2785 55.0589 29.1571 55.3756 29.0651 55.5881C29.0003 55.747 28.9239 55.9492 28.8359 56.1948C28.7459 56.4239 28.6527 56.6953 28.5561 57.0091C28.5184 57.1143 28.4843 57.3198 28.454 57.6257C28.3819 58.0036 28.3406 58.2184 28.33 58.2701C28.1699 58.474 28.065 58.5789 28.0153 58.5849C27.9988 58.5869 27.9647 58.5826 27.9131 58.572C27.8594 58.5449 27.783 58.5373 27.6837 58.5492C27.4461 58.5274 27.2739 58.4222 27.1673 58.2336C27.1428 58.1694 27.0915 58.0916 27.0134 58.0003C26.9498 57.8904 26.9131 57.7941 26.9031 57.7114C26.8812 57.5294 26.9371 57.296 27.0707 57.0114C27.1336 56.836 27.2113 56.5748 27.3039 56.2279C27.3482 56.038 27.4312 55.751 27.5529 55.3671C27.582 55.33 27.6019 55.2856 27.6125 55.234C27.623 55.1824 27.6253 55.1317 27.6194 55.0821L27.4456 55.103L26.6861 55.0684C26.6404 55.1075 26.5573 55.1846 26.4369 55.2998C26.3145 55.3984 26.2311 55.5428 26.1868 55.7327C26.1286 55.8069 25.9952 56.0244 25.7868 56.3852C25.6532 56.6698 25.4844 56.9419 25.2806 57.2014C24.8042 57.8462 24.4174 58.3292 24.1203 58.6503C23.7881 58.9588 23.4648 59.132 23.1504 59.1698ZM25.5082 53.6489C25.6531 53.5979 25.8976 53.2579 26.2417 52.629C26.5858 52.0001 26.7737 51.6082 26.8054 51.4533C26.8537 51.2964 26.9337 50.9846 27.0455 50.518C27.1572 50.0513 27.2405 49.6971 27.2954 49.4555C27.0624 49.3325 26.8632 49.2809 26.6977 49.3008C26.648 49.3067 26.5114 49.3567 26.2877 49.4508C25.0904 49.964 24.3896 50.8373 24.1853 52.0705C24.1615 52.2916 24.1616 52.5014 24.1855 52.7C24.2253 53.0309 24.3335 53.3033 24.5103 53.517C24.6851 53.7142 24.9049 53.7969 25.1697 53.7651C25.2855 53.7512 25.3983 53.7124 25.5082 53.6489ZM48.3666 43.2459C48.4141 42.8037 48.4309 42.5247 48.417 42.4089C48.4071 42.3262 48.3826 42.262 48.3435 42.2163C48.3024 42.1541 48.2376 42.1031 48.1489 42.0634C48.0747 42.0052 47.9903 41.9314 47.8956 41.8421C47.6301 41.5886 47.3951 41.449 47.1906 41.4232C47.0026 41.3955 46.768 41.3985 46.4866 41.4323C46.4205 41.4403 46.3728 41.4628 46.3437 41.4999C46.3311 41.535 46.2732 41.5419 46.1699 41.5208C46.015 41.489 45.8962 41.4781 45.8135 41.4881C45.7638 41.4941 45.6748 41.5216 45.5464 41.5706C45.2731 41.6706 44.8538 41.8133 44.2885 41.9988C43.7233 42.1842 43.4314 42.2697 43.4129 42.2551C42.8331 42.4591 42.2477 42.7561 41.6567 43.1461C41.0657 43.5361 40.7279 43.9377 40.6432 44.3507C40.922 44.8544 41.0799 45.1208 41.117 45.1499C41.5659 45.5324 42.0535 46.0277 42.5798 46.6359C43.1062 47.2441 43.4446 47.8245 43.595 48.3772L42.8811 48.5134C41.8321 49.1431 41.1019 49.9107 40.6904 50.8163C40.5607 51.1341 40.4231 51.3856 40.2775 51.571C40.2067 51.6802 40.1481 51.8216 40.1018 51.995C40.0701 52.1499 40.0168 52.2654 39.9421 52.3416C39.8243 52.7586 39.7258 53.0558 39.6464 53.2332C39.4956 53.6542 39.3937 53.9938 39.3408 54.252C39.2879 54.5101 39.2814 54.8047 39.3212 55.1357C39.3351 55.2515 39.3725 55.4232 39.4335 55.6509C39.7725 56.097 40.0542 56.4156 40.2786 56.6069C40.5176 56.7796 40.8704 56.9218 41.3371 57.0336L41.4364 57.0216C41.5191 57.0117 41.6204 57.0163 41.7402 57.0355C41.8746 57.0361 41.9894 57.0139 42.0847 56.9689C42.1489 56.9444 42.2472 56.9242 42.3796 56.9082C42.5285 56.8903 42.7109 56.8013 42.9266 56.641C43.1569 56.4623 43.4395 56.1597 43.7743 55.7334C45.4108 53.7069 46.1137 51.7339 45.8829 49.8143C45.7476 48.6891 45.378 47.7096 44.7742 46.8757C44.1703 46.0418 43.5625 45.3846 42.9508 44.9042C42.7469 44.7441 42.6171 44.6422 42.5615 44.5985C42.5059 44.5548 42.5049 44.5466 42.5585 44.5737C42.6267 44.5823 42.6578 44.5618 42.6519 44.5121C43.2845 44.05 43.8368 43.7569 44.3088 43.633C44.4557 43.5986 44.6172 43.5456 44.7933 43.4741C44.9693 43.4026 45.0977 43.3535 45.1785 43.327C45.6073 43.1244 45.9624 43.0062 46.2437 42.9723C46.525 42.9385 46.7193 42.9487 46.8266 43.003C46.9504 43.0553 47.0626 43.1509 47.1632 43.2899C47.2884 43.493 47.4625 43.6148 47.6855 43.6551L47.9149 43.6779C48.0307 43.664 48.1241 43.6024 48.1949 43.4932C48.2637 43.3674 48.3209 43.285 48.3666 43.2459ZM44.0956 49.3997C44.189 49.7578 44.2546 50.094 44.2924 50.4084C44.4018 51.3186 44.3206 52.1089 44.0487 52.7795C43.7748 53.4335 43.3613 54.1127 42.8081 54.8171C42.7598 54.974 42.6433 55.1223 42.4587 55.262C42.272 55.3852 42.0712 55.4597 41.856 55.4856C41.6409 55.5114 41.4519 55.4754 41.2891 55.3775C41.1242 55.263 41.0259 55.0734 40.9941 54.8086C40.9861 54.7424 40.9867 54.6081 40.996 54.4055C41.0851 53.4715 41.3715 52.5726 41.8552 51.7087C42.4434 50.5972 43.1902 49.8275 44.0956 49.3997ZM54.7597 46.1536C54.924 46.4024 55.025 46.684 55.0628 46.9984C55.1225 47.4948 55.0438 47.9575 54.8268 48.3865C54.6892 48.6381 54.582 49.0035 54.5053 49.4827C54.4452 49.96 54.404 50.5944 54.3816 51.3861C54.3083 52.0328 54.2427 53.0227 54.1847 54.3558C54.0035 55.0827 53.9007 55.6238 53.8763 55.9793C53.8717 56.0805 53.8138 56.2973 53.7027 56.6296C53.6081 56.96 53.5304 57.2211 53.4696 57.4131C52.9853 58.831 52.3723 59.9455 51.6305 60.7565C50.8887 61.5675 50.0336 62.0648 49.0652 62.2484C48.8045 62.3133 48.6493 62.3487 48.5996 62.3547C48.4507 62.3726 48.307 62.3647 48.1687 62.331C48.0469 62.2953 47.9066 62.245 47.7477 62.1802C47.6775 62.155 47.5795 62.108 47.4538 62.0392C47.328 61.9704 47.2373 61.9142 47.1817 61.8705C47.1446 61.8414 47.1231 61.802 47.1171 61.7524C47.1072 61.6696 47.1469 61.5809 47.2362 61.4863C47.3255 61.3916 47.4778 61.3313 47.6929 61.3054C47.8167 61.3577 48.0192 61.3669 48.3005 61.3331C48.5818 61.2993 48.7433 61.2463 48.785 61.1741C48.8141 61.1371 48.9064 61.0672 49.062 60.9646C49.2195 60.8785 49.4028 60.7977 49.612 60.7222C50.0951 60.4123 50.5114 60.0349 50.8608 59.59C51.2287 59.1597 51.5506 58.6258 51.8265 57.9883C52.1646 57.3098 52.369 56.7061 52.4397 56.1772C52.5468 55.8118 52.6526 55.2954 52.757 54.6282C52.876 53.9424 52.9616 53.3278 53.0138 52.7844L52.7269 53.121C52.6561 53.2303 52.4672 53.4041 52.1601 53.6424C51.851 53.8642 51.6634 53.9791 51.5972 53.9871C51.5807 53.9891 51.5568 54.0003 51.5257 54.0208C51.4946 54.0414 51.4821 54.0765 51.488 54.1261C51.496 54.1923 51.2938 54.3257 50.8815 54.5264C50.4671 54.7105 50.2021 54.8095 50.0862 54.8234C49.9208 54.8433 49.7288 54.7825 49.5103 54.6409C49.3064 54.4807 49.1532 54.3229 49.0505 54.1674C48.987 54.0575 48.9048 53.9331 48.8042 53.7941C48.7036 53.6551 48.6205 53.5224 48.5549 53.396C48.4874 53.253 48.4426 53.0905 48.4208 52.9085C48.3949 52.6934 48.3915 52.5259 48.4107 52.4061C48.5198 51.6376 48.7244 50.5471 49.0246 49.1345C49.3413 47.7199 49.6009 46.8074 49.8034 46.3969C49.9139 46.199 50.0601 46.0891 50.2421 46.0672C50.4904 46.0374 50.7048 46.1459 50.8856 46.3927C51.0584 46.5734 51.1528 46.7299 51.1687 46.8623C51.1806 46.9616 51.1562 47.1072 51.0953 47.2992C51.0344 47.4911 50.9527 47.7192 50.8502 47.9833C50.8059 48.1733 50.747 48.3818 50.6736 48.6089C50.6002 48.8359 50.5665 48.9743 50.5724 49.0239C50.5639 49.0921 50.5391 49.3049 50.4981 49.6623C50.4552 50.0032 50.4006 50.1777 50.3344 50.1856C50.2305 50.2988 50.1522 50.6944 50.0994 51.3722C50.0466 52.05 50.042 52.5709 50.0858 52.935C50.1077 53.117 50.1435 53.205 50.1931 53.199C51.1694 53.0817 52.1409 52.2262 53.1076 50.6328C53.169 49.8868 53.2278 49.2586 53.2839 48.7483C53.3976 47.8785 53.4725 47.1057 53.5088 46.4299C53.5802 46.1863 53.6388 46.0449 53.6844 46.0059C53.7281 45.9502 53.8327 45.9125 53.9982 45.8926C54.1967 45.8687 54.3394 45.8684 54.4261 45.8915C54.5128 45.9147 54.624 46.002 54.7597 46.1536ZM60.8336 54.614C60.7548 54.6571 60.5318 54.6167 60.1644 54.493C59.795 54.3528 59.5166 54.2016 59.3293 54.0395C59.1399 53.8608 58.9856 53.6947 58.8665 53.5412C58.7638 53.3856 58.6996 53.2003 58.6737 52.9852C58.5466 52.7655 58.4525 52.5418 58.3916 52.3141C58.3452 52.0679 58.2991 51.7544 58.2534 51.3739C58.2116 51.0264 58.237 50.6792 58.3296 50.3323C58.4222 49.9854 58.5565 49.5664 58.7324 49.0752C58.8316 48.6436 59.1019 48.0992 59.5432 47.4418C59.9991 46.7658 60.4998 46.2524 61.0451 45.9015C61.4786 45.5976 61.8608 45.4257 62.1918 45.3859C62.3903 45.362 62.5846 45.3723 62.7746 45.4166C62.9791 45.4423 63.138 45.5072 63.2512 45.6111C63.3624 45.6984 63.4449 45.7556 63.4985 45.7828C63.6149 45.6345 63.695 45.3227 63.7385 44.8474C63.7967 44.3536 63.7929 43.8337 63.7273 43.2876C63.6039 42.2617 63.3407 41.5379 62.9374 41.1164C62.2979 40.4043 61.614 40.092 60.886 40.1796C60.6046 40.2134 60.2671 40.3379 59.8733 40.5531C59.6462 40.4797 59.4443 40.3361 59.2676 40.1223C59.0908 39.9086 59.0225 39.6902 59.0629 39.4671C59.4057 39.1069 59.7468 38.8729 60.0864 38.7649C60.4094 38.6589 60.6453 38.597 60.7943 38.5791C61.0756 38.5452 61.3317 38.5816 61.5628 38.6881C62.422 38.8534 63.1048 39.1574 63.6113 39.6001C64.1177 40.0428 64.4945 40.5934 64.7415 41.252C65.0051 41.9086 65.2151 42.7478 65.3716 43.7698C65.406 43.9167 65.4382 44.1143 65.468 44.3625C65.4939 44.5776 65.5148 44.9612 65.5308 45.5132C65.4475 45.6576 65.4094 45.83 65.4168 46.0306C65.4241 46.2311 65.4298 46.3479 65.4337 46.381C65.4735 46.712 65.4693 46.9559 65.421 47.1128C65.4303 47.3299 65.392 47.5695 65.306 47.8317C65.22 48.0938 65.183 48.2745 65.1949 48.3738C64.8782 49.7884 64.3294 51.0882 63.5486 52.2732C62.7678 53.4582 61.8628 54.2385 60.8336 54.614ZM60.4907 53.0185C60.7343 53.09 61.1096 52.8602 61.6165 52.3292C62.1379 51.7797 62.5561 51.2091 62.8711 50.6172C62.9525 50.4564 63.0758 50.1562 63.2412 49.7166C63.4046 49.2605 63.523 48.9189 63.5964 48.6919C63.7188 48.1736 63.7561 47.7158 63.7083 47.3187C63.6745 47.0374 63.602 46.8531 63.4908 46.7657C63.3425 46.6493 63.1608 46.604 62.9456 46.6298C62.5319 46.6796 62.0521 46.9471 61.5061 47.4324C61.3255 47.6052 61.1518 47.8359 60.985 48.1245C60.8329 48.3946 60.7359 48.5658 60.6942 48.6379C60.5606 48.9226 60.4511 49.1288 60.3657 49.2566L60.3717 49.3062C60.3856 49.422 60.3479 49.5273 60.2586 49.622C60.1858 49.7146 60.1358 49.7878 60.1087 49.8414C59.9685 50.2108 59.8789 50.5825 59.8399 50.9565C59.7989 51.3139 59.7874 51.5671 59.8053 51.716C59.8411 52.0139 59.9163 52.2902 60.0309 52.545C60.162 52.7979 60.3153 52.9557 60.4907 53.0185ZM69.8679 53.2005C69.7316 53.1833 69.5704 53.1691 69.3844 53.1579C69.2149 53.1447 69.062 53.1295 68.9257 53.1123C68.8039 53.0766 68.6874 53.0151 68.5761 52.9277C68.1313 52.5784 67.881 52.172 67.8253 51.7087C67.8173 51.6425 67.8199 51.5247 67.8331 51.3552C67.8543 51.2519 67.8592 51.0835 67.8479 50.8498C67.8366 50.6162 67.8561 50.4292 67.9064 50.2888C67.901 50.1048 67.9278 49.9086 67.9866 49.7C68.0455 49.4915 68.0865 49.3439 68.1097 49.2572L68.2614 48.6346C68.3798 48.0832 68.4777 47.7105 68.5551 47.5166C68.6682 47.2008 68.7697 46.9284 68.8597 46.6994C68.9642 46.4518 69.0552 46.231 69.1326 46.0371C69.4462 45.2943 69.6638 44.731 69.7855 44.347C69.8755 44.118 70.0363 43.9895 70.268 43.9617C70.4169 43.9438 70.6731 43.9801 71.0365 44.0707C71.061 44.1349 71.1123 44.2127 71.1904 44.304C71.2831 44.3768 71.351 44.4526 71.394 44.5313C71.4371 44.6101 71.4573 44.7084 71.4547 44.8262C71.0147 45.6345 70.534 46.7331 70.0127 48.1219C69.9142 48.4191 69.8487 48.7124 69.8164 49.0016C69.7463 49.3962 69.6934 49.6543 69.6577 49.7761C69.5842 50.0032 69.5257 50.3543 69.4822 50.8296C69.4915 51.0467 69.4687 51.2761 69.4138 51.5177L69.4039 51.6448C69.4198 51.7771 69.497 51.8602 69.6353 51.8939C69.7306 51.8489 69.9139 51.7681 70.1853 51.6515C70.4712 51.5164 70.7045 51.3625 70.8852 51.1897C71.3795 50.6938 71.6998 50.286 71.846 49.9663C72.0088 49.6445 72.0927 49.156 72.0979 48.5007L72.0889 48.4262C72.071 48.2773 71.9952 48.1354 71.8615 48.0004C71.3597 47.876 71.0889 47.6484 71.0491 47.3174C71.0153 47.0361 71.097 46.8081 71.2942 46.6333C71.4914 46.4585 71.7151 46.3645 71.9653 46.3512L72.1292 46.4574C72.3231 46.5348 72.5932 46.6869 72.9395 46.9139C72.9845 47.0092 73.0583 47.1346 73.161 47.2902C73.2616 47.4291 73.3487 47.5949 73.4222 47.7875C73.4937 47.9636 73.5454 48.184 73.5773 48.4488C73.6827 49.3258 73.5396 50.09 73.1479 50.7414C72.7707 51.3743 72.1797 51.9741 71.375 52.5409C71.2817 52.6025 71.1635 52.667 71.0206 52.7346C70.8776 52.8021 70.776 52.8647 70.7158 52.9223C70.6973 52.9077 70.5751 52.9392 70.3494 53.0167C70.1237 53.0942 69.9632 53.1555 69.8679 53.2005ZM77.7472 48.2496C77.4162 48.2894 77.1217 48.2828 76.8635 48.2299C76.6318 48.2578 76.4634 48.2528 76.3581 48.2151C76.2694 48.1754 76.184 48.0934 76.1019 47.969C75.9847 47.832 75.9211 47.7221 75.9112 47.6394C75.8993 47.5401 75.9813 47.4547 76.1574 47.3831C76.3314 47.2951 76.6471 47.1984 77.1045 47.093C77.6678 46.891 78.1781 46.7373 78.6354 46.632C79.1093 46.5246 79.6772 46.4312 80.3391 46.3516C80.7694 46.2999 81.0619 46.2899 81.2168 46.3216C81.3697 46.3368 81.5471 46.4162 81.7491 46.5598C81.9715 46.7345 82.0937 46.9128 82.1156 47.0949C82.1335 47.2438 82.0802 47.3593 81.9558 47.4414C81.8479 47.5215 81.6844 47.558 81.4653 47.5507L79.9165 47.8629C79.8172 47.8748 79.5472 47.9324 79.1064 48.0358C78.6801 48.1206 78.227 48.1919 77.7472 48.2496ZM86.0616 51.6061C85.681 51.6519 85.3867 51.5781 85.1788 51.3849C85.0021 51.1711 84.8471 50.9296 84.714 50.6602C84.7332 50.5404 84.7782 50.4259 84.849 50.3166C84.9178 50.1908 85.0101 50.121 85.1259 50.1071C85.1921 50.0991 85.2696 50.115 85.3583 50.1547C85.3914 50.1507 85.4265 50.1633 85.4635 50.1924C85.5006 50.2215 85.546 50.2496 85.5996 50.2767C86.1158 49.9629 86.5321 49.5855 86.8484 49.1446C87.1812 48.7017 87.5365 48.0966 87.9143 47.3294C87.623 47.2804 87.3258 47.1819 87.0226 47.0337C86.736 46.8835 86.5228 46.7161 86.3831 46.5314C86.2043 46.3011 86.06 46.0079 85.95 45.6518C85.8401 45.2958 85.7738 45.0939 85.7513 45.0462C85.7996 44.8893 85.8621 44.5713 85.9387 44.092C85.9731 43.8193 86.0197 43.5787 86.0786 43.3702C86.1374 43.1617 86.2502 42.9131 86.417 42.6245C86.6254 42.2637 86.9361 41.9158 87.3491 41.5807C87.76 41.2292 88.0565 41.0424 88.2386 41.0205C88.3769 41.0543 88.5506 41.0334 88.7598 40.9579C88.9835 40.8638 89.147 40.8274 89.2503 40.8486C89.3184 40.8571 89.3773 40.8585 89.427 40.8525C89.4746 40.83 89.5243 40.824 89.5759 40.8346C90.0843 40.8742 90.4891 40.9598 90.7903 41.0915C91.0895 41.2066 91.3023 41.4412 91.4288 41.7953C91.4097 41.9151 91.3849 42.1279 91.3545 42.4337C91.3221 42.723 91.2785 42.9884 91.2236 43.23C91.1687 43.4716 91.0953 43.6987 91.0034 43.9112L90.7801 44.5675C90.5539 45.199 90.3501 45.6684 90.1688 45.9756L90.2364 46.1185C90.4575 46.1423 90.6775 46.1578 90.8966 46.165C91.1303 46.1537 91.2895 46.1514 91.3742 46.158C91.5788 46.1837 91.781 46.2602 91.9809 46.3872C92.1808 46.5142 92.3169 46.5986 92.389 46.6403L92.401 46.7396C92.4129 46.8389 92.3928 46.9504 92.3405 47.0742C92.1897 47.4952 92.0683 47.812 91.9763 48.0245C91.9115 48.1833 91.8351 48.3856 91.7471 48.6312C91.6571 48.8602 91.5639 49.1316 91.4673 49.4454C91.4296 49.5506 91.3955 49.7562 91.3652 50.062C91.2931 50.4399 91.2518 50.6547 91.2412 50.7064C91.0811 50.9103 90.9762 51.0152 90.9265 51.0212C90.91 51.0232 90.8759 51.0189 90.8243 51.0083C90.7706 50.9812 90.6942 50.9736 90.5949 50.9855C90.3573 50.9637 90.1851 50.8585 90.0785 50.6699C90.054 50.6057 90.0027 50.5279 89.9246 50.4366C89.861 50.3267 89.8243 50.2304 89.8143 50.1477C89.7924 49.9657 89.8483 49.7323 89.9819 49.4477C90.0448 49.2723 90.1225 49.0111 90.2151 48.6643C90.2594 48.4743 90.3424 48.1873 90.4641 47.8034C90.4932 47.7663 90.5131 47.722 90.5237 47.6703C90.5342 47.6187 90.5365 47.5681 90.5306 47.5184L90.3568 47.5393L89.5973 47.5047C89.5516 47.5438 89.4686 47.6209 89.3481 47.7361C89.2257 47.8348 89.1423 47.9791 89.098 48.1691C89.0398 48.2432 88.9064 48.4607 88.698 48.8215C88.5644 49.1061 88.3956 49.3782 88.1918 49.6377C87.7154 50.2826 87.3286 50.7655 87.0315 51.0866C86.6993 51.3951 86.376 51.5683 86.0616 51.6061ZM88.4194 46.0852C88.5643 46.0342 88.8088 45.6942 89.1529 45.0653C89.497 44.4364 89.6849 44.0445 89.7166 43.8896C89.7649 43.7327 89.8449 43.421 89.9567 42.9543C90.0684 42.4876 90.1517 42.1335 90.2066 41.8919C89.9736 41.7688 89.7744 41.7172 89.6089 41.7371C89.5592 41.7431 89.4226 41.7931 89.1989 41.8871C88.0016 42.4004 87.3008 43.2736 87.0965 44.5068C87.0728 44.7279 87.0728 44.9377 87.0967 45.1363C87.1365 45.4672 87.2447 45.7396 87.4215 45.9533C87.5963 46.1506 87.8161 46.2332 88.0809 46.2014C88.1967 46.1875 88.3095 46.1487 88.4194 46.0852ZM101.766 49.3906C101.525 49.3357 101.296 49.2457 101.079 49.1207C100.861 48.9791 100.629 48.7971 100.384 48.5748C100.158 48.367 99.6982 47.8263 99.0057 46.9527C98.3131 46.0791 97.9268 45.5884 97.8467 45.4805C97.8129 45.6189 97.7646 45.7758 97.7018 45.9512C97.6535 46.1081 97.6208 46.2547 97.6036 46.3911C97.5844 46.5109 97.5868 46.6701 97.6107 46.8686C97.473 47.1202 97.3765 47.434 97.321 47.8099C97.28 48.1674 97.2437 48.4236 97.2119 48.5785C97.1564 48.9544 96.9771 49.2782 96.674 49.5496C96.3741 49.5689 96.0627 49.4217 95.7396 49.108C95.639 48.969 95.5777 48.8085 95.5558 48.6265C95.5339 48.4445 95.5514 48.2409 95.6083 48.0158C95.6235 47.8629 95.6975 47.5015 95.8305 46.9316C95.9634 46.3616 96.0678 45.9042 96.1439 45.5594C96.2008 45.3343 96.2894 44.9543 96.4097 44.4195C96.5446 43.8661 96.6144 43.5387 96.619 43.4375C96.6428 43.2164 96.7549 42.8923 96.9554 42.4654C97.2167 41.8464 97.3658 41.3417 97.4028 40.9511C97.422 40.8313 97.4918 40.7138 97.6122 40.5986C97.7472 40.4649 97.8892 40.389 98.0381 40.3711C98.2202 40.3493 98.38 40.4224 98.5177 40.5905C98.5528 40.603 98.6054 40.6219 98.6756 40.647C98.7438 40.6556 98.7974 40.6827 98.8365 40.7284C99.0219 40.874 99.1275 41.0543 99.1533 41.2694C99.1673 41.3853 99.1428 41.5309 99.08 41.7063C98.99 41.9354 98.8908 42.1571 98.7822 42.3716C98.6109 42.7615 98.4687 43.1144 98.3555 43.4301C98.259 43.7439 98.1525 44.1848 98.0361 44.7527C98.4544 44.6017 98.7258 44.4851 98.8502 44.403C98.9726 44.3044 99.1702 44.0624 99.4428 43.6771C99.7048 43.3434 99.9543 43.0449 100.191 42.7814C101.083 41.6837 101.557 41.0895 101.614 40.9988C101.722 40.7843 101.82 40.6215 101.907 40.5103C101.993 40.3825 102.115 40.2838 102.275 40.2143C102.51 40.2196 102.673 40.242 102.761 40.2817C102.866 40.3194 103.091 40.4435 103.435 40.6539C103.51 40.7121 103.557 40.824 103.577 40.9895C103.614 41.3039 103.55 41.5382 103.384 41.6925C103.338 41.7315 103.047 42.0268 102.509 42.5783C101.422 43.7329 100.491 44.6506 99.7172 45.3312C100.151 45.8666 100.584 46.4692 101.017 47.1389C101.098 47.5321 101.272 47.7882 101.538 47.9073C101.804 48.0264 102.16 48.0591 102.607 48.0053C102.747 48.0556 102.84 48.1284 102.885 48.2237C102.947 48.317 102.984 48.4216 102.998 48.5374C103.029 48.6513 103.056 48.7403 103.081 48.8045C102.944 48.9217 102.81 49.0637 102.679 49.2305C102.546 49.3808 102.43 49.4619 102.33 49.4739C102.215 49.4878 102.027 49.46 101.766 49.3906ZM113.255 48.1604C112.72 48.04 112.264 47.734 111.886 47.2423C111.508 46.7506 111.242 46.2118 111.087 45.6261C111.052 45.6135 110.883 45.8101 110.579 46.216C110.086 46.8628 109.631 47.4043 109.213 47.8406C108.794 48.2604 108.382 48.4693 107.979 48.4674C107.659 48.3212 107.362 48.1472 107.085 47.9453C106.919 47.8143 106.811 47.6846 106.762 47.5562C106.493 47.0009 106.335 46.5164 106.285 46.1027C106.245 45.7718 106.24 45.4534 106.271 45.1476C106.316 44.8232 106.402 44.3513 106.528 43.7317C106.55 43.6284 106.658 42.9943 106.854 41.8293C107.064 40.6457 107.244 39.9778 107.393 39.8255L107.713 39.7619C107.879 39.742 108.01 39.785 108.106 39.8909C108.147 39.9531 108.248 40.0249 108.409 40.1063C108.587 40.1857 108.683 40.2916 108.699 40.4239C108.729 40.6721 108.623 41.3228 108.38 42.376C108.184 43.2557 108.036 43.9869 107.939 44.5694C107.839 45.1353 107.816 45.6417 107.869 46.0885C107.897 46.3201 107.947 46.524 108.018 46.7001C108.118 46.6881 108.263 46.5699 108.454 46.3455C108.66 46.1025 108.808 45.9337 108.897 45.839C109.096 45.6808 109.397 45.3173 109.798 44.7487C110.214 44.1614 110.497 43.7162 110.645 43.413C110.779 43.1284 110.952 42.6124 111.164 41.865C111.393 41.1157 111.492 40.6169 111.462 40.3687C111.44 40.1867 111.448 40.043 111.486 39.9378C111.524 39.8325 111.604 39.7306 111.726 39.6319C111.974 39.6021 112.158 39.5885 112.275 39.5911C112.407 39.7096 112.538 39.8197 112.668 39.9216C112.812 40.005 112.93 40.0831 113.023 40.1559C113.072 40.2843 113.101 40.3816 113.109 40.4478C113.148 40.7787 113.066 41.4181 112.861 42.3661C112.719 43.0042 112.615 43.537 112.549 43.9647C112.5 44.3903 112.499 44.8017 112.547 45.1988C112.62 45.8111 112.856 46.3031 113.253 46.6751C113.504 46.5274 113.72 46.3754 113.903 46.2192C114.086 46.0629 114.252 45.9087 114.401 45.7564C114.564 45.569 114.813 45.3376 115.149 45.0622C115.308 45.127 115.447 45.3034 115.565 45.5913C115.698 45.8607 115.778 46.1029 115.804 46.318C115.639 46.4889 115.544 46.6011 115.517 46.6547C115.42 46.9685 115.157 47.2939 114.728 47.6309C114.313 47.9493 113.923 48.1305 113.559 48.1742C113.493 48.1822 113.392 48.1776 113.255 48.1604ZM124.554 46.7768C124.575 46.8079 124.606 46.8545 124.647 46.9167C124.704 46.977 124.743 47.0226 124.764 47.0537C124.829 47.1801 124.867 47.2847 124.877 47.3674C124.901 47.566 124.798 47.6875 124.568 47.7319C124.388 47.7703 124.115 47.6605 123.748 47.4025C123.398 47.1424 123.104 46.8588 122.865 46.5518L122.406 45.8767L122.409 45.9015C122.346 45.7917 122.212 45.5895 122.009 45.295C121.822 44.9985 121.704 44.7777 121.653 44.6328C121.491 44.2661 121.379 44.0361 121.318 43.9428C120.681 44.7915 120.221 45.4344 119.938 45.8713C119.613 46.3804 119.286 46.7975 118.956 47.1225C118.642 47.4456 118.396 47.6347 118.218 47.6896C118.054 47.7261 117.909 47.7016 117.781 47.6163C117.653 47.5309 117.579 47.4055 117.56 47.24C117.53 46.9918 117.628 46.6946 117.855 46.3483C118.234 45.8664 118.777 45.0792 119.485 43.9869L120.506 42.4289L120.074 41.3477C119.721 40.5005 119.447 39.9711 119.254 39.7593C119.112 39.5581 119.037 39.4244 119.029 39.3582C119.023 39.3086 119.052 39.1961 119.115 39.0206L119.161 38.9898C119.261 38.8435 119.357 38.7313 119.448 38.6532C119.539 38.5751 119.643 38.529 119.759 38.5151C119.858 38.5032 119.934 38.5025 119.985 38.5131C120.165 38.609 120.389 38.8674 120.658 39.2884C120.924 39.6927 121.158 40.1011 121.359 40.5134L121.356 40.4886L121.623 41.0356L122.784 39.3852C123.248 38.7755 123.6 38.3471 123.838 38.1002C124.092 37.8347 124.31 37.691 124.492 37.6691C124.624 37.6532 124.799 37.716 125.018 37.8576C125.125 37.9119 125.194 38.0631 125.224 38.3113C125.336 38.5496 124.766 39.4658 123.514 41.06C123.197 41.35 122.921 41.6433 122.689 41.9399C122.454 42.2199 122.312 42.4384 122.264 42.5953L122.298 42.6668C122.272 42.7369 122.297 42.8683 122.37 43.0609C122.46 43.2515 122.541 43.4349 122.612 43.6109C122.699 43.7684 122.765 43.9031 122.812 44.015L123.033 44.5928C123.078 44.6881 123.122 44.7751 123.165 44.8539C123.222 44.9141 123.271 44.967 123.31 45.0127C123.47 45.2284 123.573 45.384 123.618 45.4793L123.615 45.4545C123.721 45.6431 123.912 45.9727 124.187 46.4432C124.267 46.5511 124.315 46.6041 124.332 46.6021C124.439 46.6563 124.513 46.7145 124.554 46.7768ZM136.333 45.4865C136.214 45.4673 136.099 45.4223 135.99 45.3515C135.879 45.2642 135.776 45.1758 135.681 45.0865C135.603 44.9952 135.508 44.9058 135.397 44.8185C135.374 44.4855 135.421 43.9679 135.538 43.2656C135.653 42.5467 135.775 42.0284 135.905 41.7107C135.895 41.4935 135.916 41.2476 135.967 40.9729C136.035 40.6962 136.096 40.4371 136.151 40.1955C136.174 40.1088 136.207 39.9704 136.252 39.7804C136.294 39.5739 136.323 39.3942 136.338 39.2413L136.479 38.3179C136.521 38.1113 136.568 37.8035 136.62 37.3945C136.628 37.3263 136.628 37.2508 136.618 37.1681C136.606 37.0688 136.613 36.9923 136.64 36.9387C136.72 36.7613 136.858 36.5852 137.055 36.4104C137.347 36.4593 137.525 36.4798 137.591 36.4719C137.674 36.4619 137.787 36.4232 137.93 36.3556C137.947 36.3536 138.197 36.3403 138.681 36.3157C139.162 36.2746 139.46 36.2388 139.574 36.2083C139.673 36.1964 139.894 36.2119 140.234 36.2548C140.286 36.2654 140.372 36.2803 140.492 36.2994C140.628 36.3166 140.746 36.3192 140.845 36.3073C141.283 36.4561 141.632 36.6407 141.894 36.8611C142.17 37.0629 142.331 37.3541 142.376 37.7347C142.388 37.834 142.39 37.9177 142.381 37.9859C142.383 38.1368 142.395 38.3788 142.418 38.7117C142.44 39.0281 142.398 39.3101 142.293 39.5577C142.315 39.874 142.231 40.2954 142.042 40.8216C142.017 40.8918 141.97 41.057 141.901 41.3171C141.829 41.5607 141.791 41.8003 141.786 42.036C141.779 42.1207 141.752 42.2415 141.703 42.3984C141.67 42.5368 141.649 42.6483 141.643 42.733C141.647 42.7661 141.649 42.8581 141.651 43.009C141.652 43.16 141.628 43.3056 141.577 43.4459C141.624 43.5578 141.608 43.7024 141.529 43.8798C141.447 44.0407 141.332 44.1301 141.183 44.148C141.117 44.1559 141.04 44.1401 140.951 44.1004L140.685 43.9813C140.468 43.8562 140.335 43.5869 140.286 43.1732C140.258 42.9415 140.252 42.682 140.268 42.3948C140.283 42.1075 140.294 41.9132 140.298 41.8119C140.356 41.7378 140.495 41.142 140.713 40.0247C140.931 38.9073 141.032 38.2824 141.016 38.15C140.984 38.0197 140.925 37.884 140.841 37.743C140.692 37.7609 140.484 37.7692 140.215 37.768C139.781 37.7866 139.456 37.8088 139.241 37.8347C138.877 37.8785 138.566 37.9494 138.31 38.0474C138.198 38.0944 138.132 38.1778 138.113 38.2976C138.062 38.7067 137.985 39.1188 137.884 39.5338C137.85 39.6722 137.807 39.8704 137.754 40.1286C137.716 40.3682 137.683 40.582 137.655 40.77C137.635 41.0242 137.536 41.4558 137.357 42.0648C137.122 42.8989 137.014 43.5413 137.035 43.992C136.968 44.1344 136.934 44.3399 136.933 44.6086C136.909 44.8297 136.879 45.0012 136.844 45.123C136.808 45.2448 136.734 45.3292 136.622 45.3762C136.589 45.3802 136.532 45.3954 136.452 45.4219C136.387 45.4464 136.348 45.4679 136.333 45.4865ZM148.602 44.0618C148.406 44.1022 148.239 44.1138 148.103 44.0966C147.981 44.0609 147.795 43.9825 147.546 43.8615C146.765 43.3678 146.349 42.8387 146.297 42.2741C146.308 42.2225 146.307 42.147 146.295 42.0477C146.283 41.9485 146.266 41.875 146.244 41.8273C146.219 41.7631 146.206 41.7228 146.204 41.7062C146.132 41.6645 146.086 41.6364 146.068 41.6219C146.064 41.5888 146.068 41.5547 146.081 41.5196C146.11 41.4825 146.131 41.4464 146.143 41.4113C146.208 41.3868 146.237 41.3498 146.231 41.3001C146.225 41.2505 146.201 41.1946 146.16 41.1323C146.095 41.0059 146.084 40.7051 146.127 40.2298C146.185 39.736 146.281 39.2713 146.413 38.8358C146.507 38.5054 146.666 38.0752 146.887 37.5449C147.125 37.0127 147.353 36.5993 147.569 36.3047C147.869 35.8657 148.146 35.5218 148.402 35.2729C148.674 35.0219 148.992 34.8074 149.357 34.6293C149.686 34.4386 149.917 34.3353 150.05 34.3193C150.215 34.2994 150.434 34.3739 150.706 34.5426C151.117 34.6107 151.435 34.7403 151.659 34.9316C151.898 35.1043 152.102 35.3988 152.269 35.8151C152.41 36.1507 152.507 36.5336 152.558 36.9638C152.67 37.8905 152.503 38.9429 152.057 40.1213C151.83 40.7528 151.597 41.2509 151.355 41.6157C151.112 41.9639 150.767 42.383 150.323 42.8729C150.009 43.196 149.729 43.4479 149.482 43.6287C149.252 43.8075 148.958 43.9518 148.602 44.0618ZM150.233 40.8693C150.519 40.3146 150.728 39.8194 150.86 39.3838C150.99 38.9317 151.076 38.3843 151.116 37.7415C151.124 37.6734 151.117 37.54 151.093 37.3414C151.053 37.0105 150.982 36.7001 150.88 36.4102C150.778 36.1203 150.677 35.973 150.575 35.9684C150.437 35.9347 150.31 35.9248 150.194 35.9387C149.813 35.9844 149.435 36.2566 149.058 36.7551C148.717 37.2662 148.437 37.8706 148.219 38.5683C148.015 39.2474 147.829 40.0755 147.661 41.0526C147.618 41.3935 147.609 41.6632 147.633 41.8618C147.669 42.1596 147.755 42.3926 147.893 42.5607C148.029 42.7123 148.204 42.7751 148.419 42.7492C148.684 42.7174 148.974 42.5482 149.29 42.2417C149.604 41.9186 149.918 41.4611 150.233 40.8693ZM167.238 39.7816C167.31 39.8233 167.352 39.8938 167.364 39.9931C167.378 40.1089 167.351 40.2297 167.282 40.3555C167.228 40.4628 167.167 40.5204 167.101 40.5283C166.787 40.5661 166.471 40.5202 166.153 40.3905C165.85 40.2423 165.675 39.9779 165.63 39.5973L165.445 38.0584C165.351 37.2807 165.24 36.8491 165.113 36.7638C164.849 36.6612 164.451 36.986 163.92 37.7381C163.406 38.4881 162.924 39.3603 162.472 40.3546C162.326 40.6744 162.205 40.9239 162.109 41.1033C162.013 41.2827 161.932 41.3764 161.866 41.3844C161.816 41.3903 161.729 41.3589 161.603 41.2901C161.072 41.2028 160.781 40.9441 160.729 40.5139C160.723 40.4642 160.727 40.3547 160.74 40.1852C160.84 39.6193 160.933 38.9954 161.018 38.3136C161.102 37.6152 161.166 37.0284 161.21 36.5532C161.148 36.4599 161.059 36.4202 160.944 36.4341C160.778 36.454 160.598 36.5596 160.402 36.7509C160.023 37.082 159.574 37.8158 159.056 38.9524C158.394 40.291 157.922 41.1115 157.639 41.4141C157.547 41.6266 157.459 41.7967 157.373 41.9245C157.303 42.0337 157.226 42.0933 157.143 42.1033C157.077 42.1112 156.947 42.0765 156.753 41.9991C156.239 41.7755 155.951 41.4072 155.89 40.8942C155.86 40.646 155.875 40.1406 155.934 39.3781C155.994 38.6156 156.075 37.9007 156.18 37.2334C156.295 36.9342 156.393 36.6287 156.473 36.3169C156.567 35.9866 156.61 35.7884 156.603 35.7222C156.627 35.3667 156.665 34.9845 156.716 34.5754C156.768 34.1663 156.816 33.934 156.859 33.8783C156.961 33.7486 157.087 33.6748 157.235 33.6569C157.484 33.627 157.682 33.7375 157.829 33.9883C158.033 34.1485 158.152 34.3692 158.186 34.6505C158.224 34.9649 158.181 35.3813 158.059 35.8996C157.851 36.5457 157.653 37.476 157.463 38.6907C157.765 38.2683 157.977 37.9406 158.1 37.7076C158.43 37.0972 158.867 36.4068 159.412 35.6362C159.858 35.0119 160.403 34.6609 161.048 34.5833C161.825 34.6242 162.341 35.2086 162.594 36.3364C162.618 36.535 162.631 36.7852 162.634 37.087C162.634 37.3723 162.631 37.5573 162.625 37.642C162.679 37.5348 162.819 37.2998 163.044 36.937C163.285 36.5722 163.584 36.1922 163.939 35.797C164.269 35.4719 164.591 35.2905 164.906 35.2527C165.171 35.2208 165.415 35.3005 165.64 35.4918C166.011 35.6486 166.293 35.9 166.486 36.2462C166.676 36.5758 166.805 37.0136 166.87 37.5597C166.904 37.841 166.923 38.0654 166.926 38.2328C166.933 38.5678 166.941 38.7766 166.951 38.8593C166.989 39.1737 167.084 39.4812 167.238 39.7816ZM170.596 45.9751C170.503 46.0367 170.415 46.0724 170.332 46.0824C170.1 46.1102 169.887 46.01 169.692 45.7817C169.498 45.5699 169.382 45.2985 169.342 44.9676C169.324 44.8187 169.329 44.6502 169.357 44.4622C169.365 44.394 169.388 44.2319 169.424 43.9757C169.479 43.7341 169.505 43.5295 169.501 43.3621C169.513 43.1761 169.572 42.8332 169.68 42.3334C169.788 41.8336 169.881 41.4951 169.961 41.3176C170.025 41.1588 170.071 40.9771 170.097 40.7725C170.12 40.5514 170.123 40.3664 170.105 40.2175C170.177 39.8395 170.255 39.5784 170.339 39.4341C170.411 39.0561 170.501 38.7599 170.609 38.5454C170.62 38.4938 170.623 38.3759 170.617 38.1919C170.626 37.9894 170.67 37.8666 170.749 37.8235C170.771 37.5859 170.793 37.4237 170.817 37.337C170.871 36.8101 171.008 36.1389 171.229 35.3234C171.343 34.8732 171.374 34.4331 171.322 34.0028C171.261 33.4898 171.101 33.2069 170.842 33.154C170.653 33.1097 170.546 32.9883 170.522 32.7897C170.508 32.6739 170.528 32.5623 170.582 32.4551C170.636 32.3478 170.719 32.2624 170.828 32.1989C170.955 32.1333 171.084 32.0926 171.217 32.0767C171.399 32.0548 171.567 32.0597 171.722 32.0914C171.893 32.1212 171.973 32.1536 171.96 32.1887C171.966 32.2383 171.979 32.2787 172 32.3098C172.019 32.3244 172.053 32.3287 172.102 32.3227C172.144 32.2505 172.285 32.3763 172.525 32.6999C172.764 33.007 172.891 33.2267 172.907 33.3591C172.88 33.4127 172.867 33.4478 172.869 33.4643C172.888 33.4789 172.922 33.4832 172.971 33.4772C173.081 33.4136 173.283 33.2802 173.578 33.0769C173.887 32.8551 174.077 32.6896 174.148 32.5804C174.179 32.5599 174.234 32.5281 174.312 32.485C174.389 32.4254 174.449 32.3678 174.493 32.3122C174.667 32.2242 174.87 32.1662 175.102 32.1383C175.366 32.1065 175.628 32.117 175.886 32.1699C176.144 32.2228 176.365 32.3138 176.548 32.4428C176.95 32.8478 177.174 33.2489 177.222 33.646C177.264 33.9935 177.202 34.4625 177.038 35.053C177.017 35.1563 176.934 35.3678 176.787 35.6875C176.656 35.9887 176.563 36.1929 176.509 36.3002C176.227 36.888 175.87 37.4093 175.438 37.8642C175.005 38.319 174.496 38.758 173.909 39.1811C173.741 39.3188 173.561 39.4327 173.371 39.5228C173.197 39.6108 173.044 39.6628 172.911 39.6787C172.845 39.6867 172.777 39.6781 172.707 39.653C172.509 39.5425 172.309 39.2811 172.109 38.8687C171.955 39.4076 171.873 39.77 171.862 39.956C171.868 40.0056 171.861 40.0904 171.842 40.2102C171.837 40.3114 171.805 40.3909 171.745 40.4485C171.747 40.465 171.735 40.5084 171.71 40.5786C171.701 40.6467 171.663 40.7437 171.594 40.8695C171.429 41.5943 171.324 42.0435 171.277 42.2169C171.092 43.045 170.989 43.5861 170.969 43.8403C170.986 44.258 170.946 44.6992 170.851 45.1639C170.758 45.6451 170.673 45.9155 170.596 45.9751ZM172.699 38.5459C172.838 38.4453 173.209 38.1069 173.811 37.5309C174.411 36.9384 174.782 36.5329 174.924 36.3144C175.193 35.896 175.365 35.5144 175.441 35.1695C175.557 34.7359 175.636 34.4159 175.678 34.2093C175.716 34.1041 175.727 33.9853 175.711 33.8529C175.689 33.6709 175.622 33.5362 175.511 33.4488C175.41 33.4442 175.193 33.529 174.862 33.7032C174.545 33.8588 174.203 34.0846 173.835 34.3805C173.483 34.658 173.195 34.9863 172.972 35.3657C172.722 35.7986 172.533 36.2577 172.407 36.7429C172.297 37.2261 172.262 37.6332 172.302 37.9642C172.352 38.3779 172.484 38.5718 172.699 38.5459ZM184.86 38.9723C184.491 39.3861 184.016 39.6278 183.437 39.6974C183.023 39.7472 182.614 39.6956 182.21 39.5428C181.822 39.388 181.483 39.1518 181.193 38.8341C180.946 38.5952 180.753 38.3163 180.614 37.9973C180.475 37.6783 180.376 37.2788 180.319 36.7989C180.299 36.6335 180.275 36.3005 180.249 35.8001C180.225 35.1819 180.347 34.5209 180.615 33.8173C180.899 33.1116 181.275 32.4704 181.743 31.8938C182.209 31.3006 182.687 30.8739 183.176 30.6137C183.421 30.4164 183.651 30.3048 183.866 30.2789C183.981 30.265 184.098 30.2593 184.216 30.2619C184.334 30.2646 184.46 30.2662 184.594 30.2668C184.964 30.2727 185.246 30.3143 185.44 30.3917C185.649 30.4506 185.83 30.5631 185.985 30.7292C186.448 31.0931 186.713 31.5482 186.778 32.0942C186.76 32.4993 186.558 32.9852 186.173 33.5519C185.788 34.1186 185.3 34.5969 184.709 34.9869C184.423 35.122 184.089 35.2125 183.709 35.2582C183.196 35.3199 182.769 35.2621 182.429 35.0848C182.274 35.053 182.155 35.0421 182.073 35.0521C181.924 35.07 181.82 35.1832 181.761 35.3917C181.719 35.5982 181.696 35.9702 181.694 36.5077C181.691 36.6255 181.703 36.792 181.729 37.0071C181.83 37.851 182.167 38.2806 182.74 38.2956C183.13 38.3326 183.408 38.3412 183.574 38.3213C183.772 38.2974 183.988 38.2044 184.22 38.0421L184.659 37.7124C184.752 37.6508 184.835 37.5737 184.908 37.481C184.981 37.3883 185.046 37.3049 185.104 37.2308C185.133 37.1937 185.177 37.1381 185.235 37.0639C185.292 36.9732 185.344 36.9166 185.391 36.8941C185.453 36.853 185.509 36.8295 185.559 36.8236C185.625 36.8156 185.705 36.848 185.797 36.9208C185.888 36.9771 185.96 37.0187 186.014 37.0459C186.163 37.028 186.209 37.1315 186.152 37.3566C186.093 37.5651 185.94 37.827 185.692 38.1421C185.459 38.4387 185.182 38.7154 184.86 38.9723ZM184.203 33.7132C184.47 33.5635 184.727 33.3229 184.972 32.9912C185.234 32.6575 185.353 32.3914 185.33 32.1928C185.306 31.9943 185.211 31.8378 185.047 31.7233C184.882 31.6088 184.667 31.5675 184.402 31.5993C184.204 31.6232 184.057 31.6576 183.961 31.7027C183.738 31.7967 183.486 32.0116 183.208 32.3472C182.927 32.6663 182.689 32.9887 182.493 33.3144C182.297 33.6401 182.227 33.8248 182.283 33.8685C182.383 34.0075 182.715 34.0432 183.278 33.9755C183.658 33.9298 183.967 33.8423 184.203 33.7132ZM197.997 25.2562C198.045 24.814 198.061 24.535 198.047 24.4192C198.038 24.3364 198.013 24.2722 197.974 24.2265C197.933 24.1643 197.868 24.1134 197.779 24.0737C197.705 24.0155 197.621 23.9417 197.526 23.8523C197.261 23.5989 197.026 23.4593 196.821 23.4335C196.633 23.4057 196.398 23.4088 196.117 23.4426C196.051 23.4506 196.003 23.4731 195.974 23.5101C195.962 23.5452 195.904 23.5522 195.8 23.531C195.645 23.4993 195.527 23.4884 195.444 23.4983C195.394 23.5043 195.305 23.5318 195.177 23.5808C194.904 23.6808 194.484 23.8236 193.919 24.009C193.354 24.1945 193.062 24.2799 193.043 24.2654C192.464 24.4694 191.878 24.7664 191.287 25.1564C190.696 25.5464 190.358 25.9479 190.274 26.361C190.552 26.8646 190.71 27.131 190.747 27.1601C191.196 27.5426 191.684 28.038 192.21 28.6461C192.737 29.2543 193.075 29.8348 193.225 30.3874L192.512 30.5236C191.463 31.1533 190.732 31.921 190.321 32.8266C190.191 33.1443 190.054 33.3959 189.908 33.5813C189.837 33.6905 189.779 33.8318 189.732 34.0053C189.701 34.1602 189.647 34.2757 189.573 34.3518C189.455 34.7688 189.356 35.0661 189.277 35.2435C189.126 35.6645 189.024 36.0041 188.971 36.2622C188.918 36.5204 188.912 36.815 188.952 37.1459C188.966 37.2617 189.003 37.4335 189.064 37.6612C189.403 38.1072 189.685 38.4259 189.909 38.6171C190.148 38.7898 190.501 38.9321 190.968 39.0438L191.067 39.0319C191.15 39.0219 191.251 39.0266 191.371 39.0457C191.505 39.0464 191.62 39.0242 191.715 38.9791C191.779 38.9546 191.878 38.9344 192.01 38.9185C192.159 38.9006 192.341 38.8115 192.557 38.6513C192.787 38.4725 193.07 38.17 193.405 37.7436C195.041 35.7171 195.744 33.7441 195.513 31.8246C195.378 30.6994 195.008 29.7198 194.405 28.8859C193.801 28.052 193.193 27.3949 192.581 26.9145C192.377 26.7543 192.248 26.6524 192.192 26.6088C192.136 26.5651 192.135 26.5568 192.189 26.5839C192.257 26.5925 192.288 26.572 192.282 26.5224C192.915 26.0602 193.467 25.7672 193.939 25.6433C194.086 25.6088 194.248 25.5559 194.424 25.4843C194.6 25.4128 194.728 25.3638 194.809 25.3373C195.238 25.1347 195.593 25.0164 195.874 24.9826C196.155 24.9488 196.35 24.959 196.457 25.0132C196.581 25.0655 196.693 25.1611 196.794 25.3001C196.919 25.5033 197.093 25.625 197.316 25.6654L197.545 25.6882C197.661 25.6742 197.755 25.6127 197.825 25.5034C197.894 25.3776 197.951 25.2952 197.997 25.2562ZM193.726 31.41C193.819 31.7681 193.885 32.1043 193.923 32.4187C194.032 33.3288 193.951 34.1192 193.679 34.7897C193.405 35.4438 192.992 36.123 192.439 36.8274C192.39 36.9843 192.274 37.1326 192.089 37.2723C191.902 37.3954 191.702 37.47 191.486 37.4958C191.271 37.5217 191.082 37.4857 190.92 37.3877C190.755 37.2732 190.656 37.0836 190.625 36.8189C190.617 36.7527 190.617 36.6183 190.626 36.4158C190.716 35.4818 191.002 34.5828 191.486 33.7189C192.074 32.6074 192.821 31.8378 193.726 31.41Z" fill="#9D9B9B"/>
</svg>
