<svg width="272" height="71" viewBox="0 0 272 71" fill="none" xmlns="http://www.w3.org/2000/svg">
<path d="M33.9753 2L2 33.1111H17.5556L33.9753 16.6914V2Z" fill="black" stroke="black"/>
<path d="M40.0247 2L72 33.1111H56.4444L40.0247 16.6914V2Z" fill="black" stroke="black"/>
<path d="M33.9753 69.4074L2 38.2963H17.5556L33.9753 54.7161V69.4074Z" fill="black" stroke="black"/>
<path d="M40.0247 69.4074L72 38.2963H56.4444L40.0247 54.7161V69.4074Z" fill="black" stroke="black"/>
<path d="M94.672 37.014C95.5667 37.2633 96.2707 37.718 96.784 38.378C97.2973 39.0233 97.554 39.8447 97.554 40.842C97.554 42.1767 97.048 43.2033 96.036 43.922C95.0387 44.6407 93.5793 45 91.658 45H84.31V29.6H91.218C92.978 29.6 94.3347 29.952 95.288 30.656C96.256 31.36 96.74 32.3353 96.74 33.582C96.74 34.3887 96.5493 35.0853 96.168 35.672C95.8013 36.2587 95.3027 36.706 94.672 37.014ZM86.51 31.382V36.31H91.02C92.1493 36.31 93.0147 36.1047 93.616 35.694C94.232 35.2687 94.54 34.6527 94.54 33.846C94.54 33.0393 94.232 32.4307 93.616 32.02C93.0147 31.5947 92.1493 31.382 91.02 31.382H86.51ZM91.57 43.218C92.8167 43.218 93.7553 43.0127 94.386 42.602C95.0167 42.1913 95.332 41.546 95.332 40.666C95.332 38.95 94.078 38.092 91.57 38.092H86.51V43.218H91.57ZM102.06 29.6H104.26V43.086H112.598V45H102.06V29.6ZM126.099 41.15H117.915L116.221 45H113.955L120.929 29.6H123.107L130.103 45H127.793L126.099 41.15ZM125.329 39.39L122.007 31.844L118.685 39.39H125.329ZM140.172 45.176C138.632 45.176 137.238 44.8387 135.992 44.164C134.76 43.4747 133.792 42.536 133.088 41.348C132.384 40.1453 132.032 38.796 132.032 37.3C132.032 35.804 132.384 34.462 133.088 33.274C133.792 32.0713 134.767 31.1327 136.014 30.458C137.26 29.7687 138.654 29.424 140.194 29.424C141.396 29.424 142.496 29.6293 143.494 30.04C144.491 30.436 145.342 31.03 146.046 31.822L144.616 33.208C143.457 31.9907 142.012 31.382 140.282 31.382C139.138 31.382 138.104 31.6387 137.18 32.152C136.256 32.6653 135.53 33.3767 135.002 34.286C134.488 35.1807 134.232 36.1853 134.232 37.3C134.232 38.4147 134.488 39.4267 135.002 40.336C135.53 41.2307 136.256 41.9347 137.18 42.448C138.104 42.9613 139.138 43.218 140.282 43.218C141.998 43.218 143.442 42.602 144.616 41.37L146.046 42.756C145.342 43.548 144.484 44.1493 143.472 44.56C142.474 44.9707 141.374 45.176 140.172 45.176ZM155.3 38.158L152.484 41.018V45H150.284V29.6H152.484V38.202L160.844 29.6H163.352L156.774 36.53L163.77 45H161.196L155.3 38.158ZM188.483 45L188.461 33.78L182.895 43.13H181.883L176.317 33.846V45H174.205V29.6H176.009L182.433 40.424L188.769 29.6H190.573L190.595 45H188.483ZM196.317 29.6H198.517V45H196.317V29.6ZM214.523 45L211.201 40.27C210.791 40.2993 210.468 40.314 210.233 40.314H206.427V45H204.227V29.6H210.233C212.228 29.6 213.797 30.0767 214.941 31.03C216.085 31.9833 216.657 33.296 216.657 34.968C216.657 36.156 216.364 37.168 215.777 38.004C215.191 38.84 214.355 39.4487 213.269 39.83L216.921 45H214.523ZM210.167 38.444C211.561 38.444 212.624 38.1433 213.357 37.542C214.091 36.9407 214.457 36.0827 214.457 34.968C214.457 33.8533 214.091 33.0027 213.357 32.416C212.624 31.8147 211.561 31.514 210.167 31.514H206.427V38.444H210.167ZM231.608 45L228.286 40.27C227.875 40.2993 227.552 40.314 227.318 40.314H223.512V45H221.312V29.6H227.318C229.312 29.6 230.882 30.0767 232.026 31.03C233.17 31.9833 233.742 33.296 233.742 34.968C233.742 36.156 233.448 37.168 232.862 38.004C232.275 38.84 231.439 39.4487 230.354 39.83L234.006 45H231.608ZM227.252 38.444C228.645 38.444 229.708 38.1433 230.442 37.542C231.175 36.9407 231.542 36.0827 231.542 34.968C231.542 33.8533 231.175 33.0027 230.442 32.416C229.708 31.8147 228.645 31.514 227.252 31.514H223.512V38.444H227.252ZM245.348 45.176C243.793 45.176 242.393 44.8387 241.146 44.164C239.899 43.4747 238.917 42.5287 238.198 41.326C237.494 40.1233 237.142 38.7813 237.142 37.3C237.142 35.8187 237.494 34.4767 238.198 33.274C238.917 32.0713 239.899 31.1327 241.146 30.458C242.393 29.7687 243.793 29.424 245.348 29.424C246.888 29.424 248.281 29.7687 249.528 30.458C250.775 31.1327 251.75 32.0713 252.454 33.274C253.158 34.462 253.51 35.804 253.51 37.3C253.51 38.796 253.158 40.1453 252.454 41.348C251.75 42.536 250.775 43.4747 249.528 44.164C248.281 44.8387 246.888 45.176 245.348 45.176ZM245.348 43.218C246.477 43.218 247.489 42.9613 248.384 42.448C249.293 41.9347 250.005 41.2307 250.518 40.336C251.046 39.4267 251.31 38.4147 251.31 37.3C251.31 36.1853 251.046 35.1807 250.518 34.286C250.005 33.3767 249.293 32.6653 248.384 32.152C247.489 31.6387 246.477 31.382 245.348 31.382C244.219 31.382 243.192 31.6387 242.268 32.152C241.359 32.6653 240.64 33.3767 240.112 34.286C239.599 35.1807 239.342 36.1853 239.342 37.3C239.342 38.4147 239.599 39.4267 240.112 40.336C240.64 41.2307 241.359 41.9347 242.268 42.448C243.192 42.9613 244.219 43.218 245.348 43.218ZM268.269 45L264.947 40.27C264.536 40.2993 264.213 40.314 263.979 40.314H260.173V45H257.973V29.6H263.979C265.973 29.6 267.543 30.0767 268.687 31.03C269.831 31.9833 270.403 33.296 270.403 34.968C270.403 36.156 270.109 37.168 269.523 38.004C268.936 38.84 268.1 39.4487 267.015 39.83L270.667 45H268.269ZM263.913 38.444C265.306 38.444 266.369 38.1433 267.103 37.542C267.836 36.9407 268.203 36.0827 268.203 34.968C268.203 33.8533 267.836 33.0027 267.103 32.416C266.369 31.8147 265.306 31.514 263.913 31.514H260.173V38.444H263.913Z" fill="#020000"/>
</svg>
