<svg width="172" height="36" viewBox="0 0 172 36" fill="none" xmlns="http://www.w3.org/2000/svg">
<path d="M26.1537 17.359L20.4746 13.4234V33.7492C20.4754 34.1688 20.3093 34.5714 20.0123 34.87C19.7186 35.1671 19.3177 35.3351 18.8979 35.3351V35.3335H13.7015V35.3351C13.2687 35.3351 12.8752 35.1573 12.5896 34.8708L12.5888 34.87L12.588 34.8692L12.5872 34.8684C12.2902 34.5705 12.1241 34.168 12.1249 33.7492V3.44521H12.1257C12.1257 3.31778 12.1854 3.19198 12.2975 3.11406L15.396 0.951057L15.3969 0.951869L15.3977 0.951057C15.6595 0.766005 15.972 0.666174 16.2936 0.664551C16.6152 0.665362 16.9285 0.764382 17.1903 0.948622L30.8894 10.4431C31.6062 10.9455 31.7862 11.9243 31.2928 12.6451L28.3473 16.9516C28.1141 17.299 27.7484 17.5368 27.3344 17.6115C27.1306 17.6504 26.922 17.6488 26.7191 17.6066C26.5154 17.5628 26.3231 17.4783 26.1537 17.359Z" fill="#008DD2"/>
<path d="M10.7953 13.9501L6.16105 17.1828C5.99168 17.3029 5.80023 17.3881 5.59731 17.4336C5.3944 17.4758 5.18576 17.4782 4.98203 17.4393C4.76439 17.4011 4.55738 17.3167 4.37574 17.1917C4.21538 17.0805 4.07628 16.9409 3.96664 16.7802L1.01704 12.4802C0.779762 12.1344 0.688941 11.7091 0.765034 11.2976C0.837854 10.8983 1.06122 10.5266 1.41714 10.2782L10.3658 4.04731C10.5458 3.92232 10.7937 3.96615 10.9197 4.14471L10.923 4.14958C10.9696 4.21695 10.9941 4.29649 10.9941 4.37846H10.9958V13.6011C10.9958 13.7447 10.9197 13.877 10.7953 13.9501Z" fill="#061F5E"/>
<path d="M169.613 22.3466C169.638 21.8694 169.487 21.4295 169.291 21.0123C168.774 19.9158 168.036 19.3225 166.764 19.4118C166.269 19.4499 165.779 19.5522 165.31 19.7161C164.09 20.139 162.942 20.6998 161.845 21.3735C161.186 21.7777 160.547 22.2062 160.045 22.8028C159.542 23.4001 159.359 24.034 160.002 24.6663C160.133 24.7961 160.168 24.9211 160.081 25.0924C159.974 25.3067 159.898 25.5347 159.792 25.7482C159.169 26.9932 159.018 28.3008 159.284 29.6562C159.491 30.7251 160.098 31.4791 161.149 31.8476C161.86 32.0976 162.607 32.1219 163.339 32.0189C164.779 31.816 165.873 31.0019 166.806 29.9419C167.497 29.1546 168.053 28.2764 168.529 27.3544C169.063 26.3212 169.571 25.2661 169.62 24.0673C169.621 24.0032 169.653 23.9431 169.705 23.9042V22.5617C169.639 22.5098 169.604 22.4294 169.613 22.3466ZM167.675 22.7622C167.645 24.1022 167.186 25.3172 166.554 26.4787C166.167 27.1953 165.703 27.8698 165.17 28.4891C164.506 29.2593 163.712 29.8291 162.716 30.0896C162.432 30.1627 162.139 30.1545 161.852 30.1245C161.491 30.0864 161.25 29.7447 161.204 29.2812C161.138 28.6409 161.316 28.0467 161.543 27.464C161.987 26.3326 162.633 25.2896 163.451 24.3855C163.96 23.8133 164.401 23.181 164.868 22.5731C165.445 21.8239 166.21 21.5131 167.146 21.5991C167.441 21.6259 167.635 21.8402 167.671 22.1884C167.691 22.3767 167.675 22.569 167.675 22.7622ZM57.4179 21.7769C57.467 21.0935 57.5602 20.4174 57.6723 19.7453C57.7762 19.1196 57.9186 18.4954 57.9022 17.8551C57.8859 17.2009 58.0225 16.5556 58.0111 15.8998C58.0062 15.5849 58.0683 15.2676 58.1232 14.9527C58.2794 14.0607 58.4922 13.1784 58.7188 12.3002C58.8194 11.9074 58.8039 11.513 58.6836 11.1234C58.5364 10.6437 58.1804 10.4611 57.719 10.3832C57.2354 10.2987 57.03 10.595 56.8361 10.9529C56.2896 11.9699 55.9067 13.0518 55.4992 14.1264C55.4444 14.2725 55.3986 14.4275 55.3986 14.5923C55.3937 15.0216 55.3413 15.4494 55.3192 15.8787C55.2701 16.7042 55.2022 17.528 55.1146 18.3502C55.0001 19.4085 54.8577 20.4645 54.6884 21.5155C54.4724 22.9148 54.1246 24.2897 53.7638 25.6597C53.4799 26.7392 53.0372 27.77 52.7795 28.8584C52.6985 29.2155 52.6011 29.5686 52.4874 29.9167C52.3148 30.4191 51.9736 30.4922 51.5743 30.131C51.3992 29.9671 51.2528 29.7739 51.1415 29.5612C50.5696 28.5248 50.392 27.3642 50.0917 26.2441C49.7743 25.0624 49.5967 23.8457 49.4462 22.634C49.3373 21.7525 49.2195 20.8711 49.2163 19.9726C49.213 18.8558 49.3087 17.743 49.3038 16.6254C49.303 15.938 49.159 15.2586 48.88 14.6296C48.7327 14.292 48.5052 13.9933 48.2156 13.7612C47.7648 13.4032 47.2698 13.4763 46.9302 13.943C46.5898 14.4089 46.3239 14.9242 46.1431 15.4705C45.9721 16.0013 45.8518 16.5467 45.7872 17.101C45.68 17.9362 45.5254 18.7665 45.473 19.6041C45.4313 20.2445 45.3609 20.8735 45.2112 21.4895C44.7219 23.4829 44.3807 25.5088 43.8939 27.5029C43.8088 27.8471 43.7793 28.2139 43.5682 28.5767C43.4561 28.3519 43.3498 28.1725 43.2729 27.9826C43.0029 27.3349 42.7779 26.6694 42.597 25.9917C42.3728 25.1127 42.1593 24.2288 42.0832 23.3255C41.9907 22.216 41.9981 21.1016 41.8975 19.9888C41.8067 18.9913 41.6275 18.0036 41.3607 17.0377C41.2118 16.4818 40.9672 15.955 40.6391 15.4802C40.5294 15.3219 40.3797 15.1961 40.2046 15.1142C39.879 14.9575 39.8274 14.9494 39.5836 15.2278C39.2563 15.5995 38.9438 15.9851 38.6427 16.3779C38.4479 16.6279 38.4651 16.7123 38.6975 16.9533C38.8783 17.14 39.0534 17.3194 39.0853 17.5961C39.1344 18.0085 39.1892 18.4151 39.1811 18.8331C39.1508 20.346 39.186 21.8548 39.4543 23.3547C39.6572 24.4804 39.807 25.6167 40.0614 26.7319C40.392 28.1693 40.8518 29.5612 41.7649 30.7543C42.3115 31.4702 42.9464 32.1025 43.772 32.5115C44.0452 32.6479 44.3275 32.6852 44.609 32.5602C44.8741 32.4434 45.1073 32.2835 45.2815 32.0343C45.6072 31.5684 45.8085 31.0522 45.9459 30.5068C46.2928 29.1343 46.6438 27.7594 46.9908 26.3861C47.0292 26.2344 47.0153 26.0314 47.2395 26.042C47.4579 26.0501 47.444 26.2749 47.4661 26.4113C47.5234 26.7587 47.6036 27.1004 47.7181 27.4315C48.3424 29.2277 49.2604 30.911 50.4362 32.4109C50.7046 32.7526 51.0302 33.035 51.418 33.2461C52.0439 33.5853 52.5823 33.4684 53.0692 33.0748C53.3678 32.8337 53.6329 32.5537 53.8644 32.2421C54.6605 31.178 55.2783 29.993 55.6931 28.7326C56.2397 27.0833 56.6193 25.3878 57.0382 23.7037C57.1839 23.0601 57.3721 22.431 57.4179 21.7769ZM97.8172 28.1133C97.6708 27.2854 97.6192 26.4429 97.6642 25.6037C97.7027 24.8416 97.8115 24.0843 97.8606 23.3222C97.9179 22.4489 98.0332 21.5813 98.0848 20.7079C98.1339 19.8541 98.2681 19.0019 98.345 18.1481C98.4268 17.2609 98.4628 16.369 98.5667 15.4867C98.6101 15.1069 98.6002 14.7189 98.6673 14.348C98.7794 13.7352 98.7688 13.107 98.6371 12.4975C98.4791 11.7573 98.1609 11.1063 97.4646 10.7127C97.0768 10.496 96.8272 10.5333 96.5016 10.8263C96.2397 11.0625 96.0205 11.336 95.8036 11.6152C94.6876 13.0615 93.6354 14.5444 92.8974 16.2237C92.8066 16.4266 92.7248 16.636 92.629 16.8397C92.5873 16.9298 92.5145 16.9963 92.3991 16.9777C92.2764 16.959 92.26 16.8608 92.2567 16.761C92.2535 16.4737 92.2567 16.1855 92.2567 15.899H92.2559C92.2559 15.6766 92.251 15.451 92.2559 15.2286C92.2805 14.2798 91.8215 13.6224 90.9926 13.1995C90.4019 12.8984 89.8872 13.0745 89.5951 13.6719C89.533 13.8018 89.4863 13.9349 89.4528 14.0761C89.3677 14.4641 89.2777 14.852 89.1713 15.2343C88.8105 16.5256 88.3188 17.7706 87.7878 19.0043C86.5105 21.983 85.3078 24.9909 83.8719 27.8982C83.6673 28.313 83.6837 28.7204 83.894 29.1327C84.0445 29.4257 84.263 29.6586 84.5166 29.8534C84.8823 30.1351 85.2963 30.0896 85.6408 29.7633C85.9746 29.4484 86.171 29.0475 86.387 28.6538C87.3132 26.9697 88.0529 25.2036 88.714 23.405C88.7851 23.2102 88.867 23.0203 88.9488 22.8296C88.979 22.7565 89.02 22.6745 89.1181 22.6916C89.2139 22.7078 89.3178 22.7435 89.3399 22.8482C89.3644 22.9562 89.3669 23.0706 89.362 23.1794C89.3456 23.4854 89.4004 23.7873 89.4847 24.0778C89.6541 24.6606 89.8504 25.2328 90.3242 25.667C90.8683 26.1662 91.3608 26.1329 91.7732 25.5404C91.8984 25.3554 92.0121 25.163 92.1152 24.965C92.8671 23.5657 93.3949 22.0764 93.9054 20.5813C94.2474 19.583 94.6434 18.6091 95.1548 17.6822C95.2014 17.5978 95.2399 17.5109 95.2923 17.4273C95.3446 17.3429 95.4125 17.2707 95.5255 17.2942C95.6482 17.3186 95.6531 17.4192 95.6531 17.5166C95.6449 17.7877 95.6498 18.0588 95.6228 18.3307C95.5435 19.1358 95.4395 19.9385 95.3659 20.7469C95.2865 21.6007 95.2587 22.4643 95.1393 23.3133C95.0771 23.7556 95.082 24.2004 94.9944 24.6395C94.9134 25.0932 94.8832 25.5542 94.9036 26.0144C94.92 26.5054 95.0075 26.9932 95.0697 27.4818C95.1622 28.1928 95.2391 28.903 95.5075 29.5759C95.7807 30.2592 96.1113 30.9159 96.4811 31.5497C96.7298 31.9759 97.0113 32.3882 97.3721 32.7347C97.7469 33.0975 98.4906 33.1527 98.9144 32.8516C99.1018 32.7234 99.2196 32.5164 99.2319 32.2908C99.2753 31.8184 99.0625 31.4256 98.8981 31.0133C98.5209 30.058 98.0013 29.1465 97.8172 28.1133ZM125.689 19.9296C124.948 19.4816 124.157 19.5368 123.359 19.7283C122.399 19.9596 121.508 20.3468 120.649 20.8297C119.656 21.3865 118.725 22.0447 117.869 22.7938C116.513 23.9788 115.81 25.5364 115.35 27.2262C115.29 27.451 115.206 27.5654 114.967 27.5541C114.694 27.5427 114.415 27.5727 114.147 27.5354C113.605 27.4567 113.108 27.2854 112.9 26.7051C112.788 26.3934 112.807 26.0761 112.875 25.7612C112.968 25.3245 113.116 24.8992 113.174 24.4593C113.273 23.6834 113.325 22.8969 113.027 22.1462C112.839 21.6665 112.567 21.2274 112.119 20.9449C111.597 20.6138 111.124 20.8549 110.979 21.4441C110.872 21.8808 110.995 22.3442 110.768 22.789C110.563 22.3767 110.395 21.9936 110.193 21.6356C109.343 20.1357 108.128 19.3006 106.308 19.4735C105.4 19.5603 104.591 19.8346 103.838 20.3257C103.195 20.751 102.63 21.281 102.165 21.8937C101.528 22.7265 101.033 23.6241 100.746 24.6411C100.489 25.5469 100.447 26.4616 100.475 27.3885C100.508 28.4769 100.778 29.4987 101.355 30.4289C102.077 31.5903 103.144 32.1763 104.511 32.2413C105.858 32.3062 107.068 31.8484 108.235 31.2543C109.457 30.6302 110.434 29.7163 111.295 28.6668C111.461 28.4639 111.588 28.2107 111.817 28.0646C111.965 28.1328 111.99 28.2707 112.052 28.3763C112.547 29.1822 113.849 29.9736 114.951 29.2333C115.233 29.0434 115.265 29.0767 115.364 29.3981C115.711 30.5295 116.453 31.2965 117.541 31.7445C118.183 32.0108 118.869 32.0992 119.559 32.1357C120.462 32.1844 121.356 32.0895 122.242 31.9328C122.983 31.803 123.716 31.6131 124.388 31.2551C124.648 31.1171 124.878 30.9459 125.014 30.6797C125.172 30.3753 125.08 30.1399 124.757 30.045C124.415 29.9451 124.059 29.89 123.71 29.9744C123.316 30.0661 122.911 30.0856 122.519 30.1123C121.381 30.1854 120.244 30.2674 119.101 30.2292C118.797 30.2162 118.495 30.161 118.207 30.0645C117.318 29.7682 117.1 28.7277 117.215 28.0459C117.36 27.2108 117.729 26.4754 118.172 25.7677C118.357 25.4714 118.363 25.4714 118.598 25.7433C118.983 26.1881 119.409 26.5168 120.036 26.6191C121.204 26.8122 122.267 26.5509 123.284 26.0282C124.192 25.5623 124.961 24.9114 125.664 24.1761C126.071 23.7499 126.375 23.267 126.593 22.733C126.75 22.3507 126.858 21.9408 126.809 21.5212C126.725 20.7932 126.29 20.294 125.689 19.9296ZM109.441 27.7959C108.446 28.6993 107.328 29.4022 106.02 29.7812C105.375 29.9679 104.73 30.0125 104.074 29.868C103.28 29.6944 102.786 29.1822 102.507 28.4517C102.212 27.6839 102.255 26.8837 102.365 26.0915C102.614 24.2661 103.663 22.9343 105.105 21.8743C105.539 21.5545 106.018 21.3045 106.576 21.1965C107.21 21.0716 107.732 21.2728 108.184 21.6389C109.097 22.3823 109.556 23.3774 109.661 24.5413C109.704 25.0356 109.827 25.512 109.981 25.9811C110.073 26.266 110.284 26.4154 110.631 26.4308C110.309 27.0338 109.865 27.4104 109.441 27.7959ZM124.768 21.8418C124.675 22.078 124.58 22.319 124.407 22.5122C123.631 23.3742 122.756 24.1095 121.637 24.5056C121.395 24.5867 121.146 24.6427 120.891 24.6703C120.484 24.7247 120.224 24.5324 119.992 24.241C119.864 24.0811 119.888 23.9861 120.044 23.8498C120.66 23.31 121.332 22.8563 122.034 22.4448C122.63 22.095 123.248 21.8077 123.927 21.6478C124.085 21.6097 124.241 21.5991 124.403 21.5934H124.594C124.773 21.5926 124.828 21.69 124.768 21.8418ZM82.5136 27.1612C81.8075 25.5015 80.9296 23.918 79.8946 22.4367C79.3096 21.5959 78.6362 20.8256 77.7509 20.2648C76.8018 19.6626 75.7881 19.3834 74.6802 19.6926C74.0077 19.8793 73.4357 20.2729 72.9105 20.7315C72.7354 20.8865 72.593 21.0813 72.2927 21.2493C72.7108 19.049 73.2058 16.9769 73.4955 14.8699C73.5642 14.3675 73.6616 13.8667 73.6346 13.3505C73.5773 12.2905 72.9735 11.7362 72.0374 11.9293C71.4467 12.0511 71.3976 12.1972 71.4082 12.6598C71.4328 13.65 71.3158 14.6321 71.1947 15.6085C71.0032 17.1708 70.6751 18.7089 70.3086 20.2413C69.7948 22.3897 69.24 24.5324 68.8489 26.7075C68.7098 27.4883 68.5486 28.2805 68.6305 29.0759C68.7483 30.2446 68.9749 30.5701 70.1237 30.5109C70.2047 30.51 70.2832 30.4938 70.3569 30.4622C70.59 30.3542 70.7971 30.4159 70.991 30.549C71.2724 30.7357 71.5784 30.8737 71.8902 31.0019C72.467 31.2429 73.061 31.441 73.6599 31.6204C75.1662 32.07 76.7134 32.3313 78.2721 32.5107C78.556 32.544 78.8547 32.6406 79.1279 32.5951C79.722 32.4953 80.3143 32.527 80.9051 32.527C82.1332 32.5302 82.8409 31.7811 83.016 30.661C83.0872 30.2114 83.0545 29.782 83.016 29.3348C82.9489 28.5873 82.8074 27.8528 82.5136 27.1612ZM80.1229 30.4411C79.4749 30.5222 78.8432 30.4297 78.214 30.3704C77.1504 30.2706 76.1006 30.0458 75.0345 29.9257C74.4299 29.864 73.8317 29.7447 73.2492 29.571C72.9677 29.4841 72.7763 29.3648 72.7296 29.0312C72.6724 28.6165 72.3606 28.3722 71.9916 28.2156C71.765 28.1173 71.6881 28.0143 71.7732 27.7464C72.2984 26.0923 72.7795 24.4179 73.8105 22.9781C74.0805 22.5982 74.4045 22.2671 74.8005 22.0122C75.5082 21.5512 76.2168 21.5975 76.8943 22.1023C77.3623 22.4521 77.7468 22.8783 78.1003 23.3287C78.9021 24.3538 79.5027 25.4958 80.0312 26.6808C80.3888 27.4859 80.6907 28.3032 80.8298 29.1733L80.8715 29.4476C80.8805 30.1692 80.6293 30.3777 80.1229 30.4411ZM66.2282 19.5911C64.987 19.583 63.8677 20.0302 62.7943 20.5781C61.9253 21.0229 61.1047 21.5545 60.3249 22.1543C59.2261 22.9976 58.313 23.9748 57.746 25.2547C57.2861 26.296 56.8574 27.3317 56.9171 28.5102C56.9793 29.6919 57.467 30.6204 58.4292 31.3095C59.2711 31.9142 60.2497 32.0749 61.2511 32.1317C62.134 32.1804 63.0144 32.0854 63.8849 31.9336C64.6417 31.8005 65.3912 31.6106 66.0777 31.2446C66.3379 31.1066 66.5645 30.9329 66.7003 30.6667C66.8533 30.3623 66.7552 30.1375 66.4295 30.0377C66.1227 29.9378 65.797 29.9078 65.4779 29.9508C64.2392 30.1375 62.9898 30.1951 61.9229 30.2219C61.2119 30.2057 60.6817 30.2552 60.1564 30.1351C59.6344 30.0133 59.2588 29.739 59.0404 29.248C58.8726 28.8657 58.8244 28.442 58.9029 28.0329C59.042 27.1978 59.4167 26.4624 59.8594 25.7547C60.0427 25.4649 60.0451 25.4674 60.2857 25.7409C60.6498 26.1556 61.0425 26.4949 61.6308 26.598C62.8605 26.8147 63.9823 26.5436 65.0566 25.9657C65.9451 25.4885 66.6922 24.8457 67.3868 24.1265C67.7877 23.7094 68.0986 23.2143 68.2975 22.6721C68.4447 22.2728 68.5519 21.8613 68.4783 21.4141C68.3171 20.3987 67.2076 19.5984 66.2282 19.5911ZM66.1546 22.4172C65.2873 23.4456 64.276 24.2808 62.9252 24.6143C62.863 24.6306 62.8024 24.6492 62.7394 24.6557C62.6601 24.6638 62.5783 24.659 62.4989 24.659C62.3565 24.6622 62.2068 24.6923 62.0751 24.6103C61.8836 24.4885 61.7003 24.3359 61.6152 24.133C61.5007 23.8563 61.81 23.7938 61.9425 23.685C63.0397 22.7979 64.1926 22.0057 65.5949 21.6559C65.8764 21.5853 66.2593 21.4693 66.4156 21.6641C66.603 21.8962 66.324 22.2143 66.1546 22.4172ZM136.599 25.7376C135.539 24.9349 134.338 24.4277 133.017 24.1696C132.106 23.9934 131.185 23.8498 130.307 23.5292C130.173 23.4805 130.031 23.431 129.916 23.3498C129.667 23.1786 129.659 22.957 129.886 22.7525C130.034 22.6283 130.206 22.5357 130.392 22.4781C131.33 22.1453 132.312 21.9497 133.307 21.8978C134.887 21.8215 134.923 21.7566 136.11 22.6981C136.444 22.9643 136.846 22.858 137.22 22.7979C137.343 22.7792 137.416 22.6461 137.458 22.5187C137.623 22.0277 137.6 21.5699 137.201 21.1949C136.272 20.324 135.148 19.928 133.896 19.8501C133.617 19.8833 133.349 19.8768 133.075 19.9288C132.074 20.1187 131.131 20.4742 130.191 20.8402C129.53 21.0983 128.894 21.4076 128.325 21.8304C127.47 22.4676 127.374 23.2248 128.038 24.1606C128.315 24.5518 128.686 24.8741 129.113 25.1127C129.843 25.5226 130.607 25.8586 131.413 26.0891C132.261 26.3301 133.109 26.5801 133.94 26.8731C134.439 27.0492 134.924 27.2651 135.389 27.5184C135.764 27.7196 135.971 27.9526 135.736 28.5597C135.605 28.9014 135.353 29.1376 135.036 29.3218C134.464 29.6505 133.828 29.8518 133.169 29.9111C132.078 30.019 131.015 29.9029 130.085 29.2439C129.833 29.0726 129.566 28.9249 129.287 28.8016C128.918 28.6279 128.522 28.7496 128.231 29.1108C127.939 29.4768 127.911 29.8185 128.179 30.1545C128.356 30.3794 128.564 30.5774 128.816 30.7349C129.724 31.3046 130.722 31.6439 131.764 31.8736C132.662 32.0716 133.545 32.0197 134.411 31.7299C135.163 31.4775 135.836 31.079 136.47 30.6042C136.882 30.2974 137.231 29.9151 137.498 29.4785C138.28 28.2026 137.739 26.5996 136.599 25.7376ZM148.103 19.9759C148.041 19.9791 147.975 19.9759 147.911 19.9897C147.312 20.1008 146.7 20.096 146.096 20.1544C145.427 20.2226 144.753 20.2413 144.086 20.3338C143.901 20.3606 143.703 20.3825 143.479 20.3038L143.78 18.7308C143.941 17.8705 144.122 17.0134 144.11 16.1328C144.105 15.7334 144.031 15.3439 143.829 14.9859C143.654 14.6767 143.369 14.5168 143.035 14.533C142.721 14.542 142.439 14.7303 142.313 15.016C142.214 15.2359 142.13 15.4551 142.083 15.6937C141.956 16.3341 141.946 16.9874 141.837 17.6302C141.69 18.506 141.384 19.3558 141.394 20.2615C141.399 20.6463 141.26 20.7575 140.881 20.8208C140.706 20.8475 140.53 20.8808 140.359 20.8995C139.918 20.9514 139.495 21.0813 139.027 20.9563C138.57 20.8313 138.042 21.1381 137.897 21.496C137.614 22.2038 138.19 23.1023 138.956 23.142C139.426 23.1664 139.881 23.0852 140.334 22.9683C140.974 22.8036 141.015 22.8547 140.881 23.5138C140.602 24.8838 140.192 26.2287 140.013 27.6198C139.841 28.9493 140.128 30.161 140.94 31.2243C141.495 31.9548 142.244 32.2307 143.158 31.9677C143.42 31.8914 143.685 31.8265 143.942 31.7364C144.391 31.5765 144.692 31.3355 144.757 30.7925C144.853 29.9922 144.38 29.4143 143.559 29.4501C143.343 29.4614 143.207 29.515 143.138 29.7512C143.05 30.0555 142.933 30.0929 142.704 29.8973C142.192 29.463 141.867 28.899 141.91 28.2261C141.959 27.4672 142.101 26.7148 142.21 25.9592C142.33 25.1265 142.593 24.3181 142.582 23.461C142.588 23.1737 142.645 22.8912 142.749 22.6226C142.803 22.4708 142.896 22.3945 143.063 22.3702C144.378 22.1803 145.69 21.9903 147.002 21.7874C147.507 21.7063 148.01 21.6072 148.509 21.4912C148.886 21.4043 149.017 21.2388 149.036 20.9109C149.098 20.0659 148.967 19.9361 148.103 19.9759ZM159.94 21.2858C159.956 21.186 160.011 21.1146 160.071 21.0358C160.305 20.7185 160.297 20.4555 160.016 20.195C159.712 19.9134 159.355 19.7421 158.925 19.7908C158.625 19.8241 158.323 19.872 158.023 19.9239C157.197 20.0619 156.407 20.3338 155.635 20.6479C154.033 21.3021 152.441 21.9773 151.129 23.2224C151.025 22.8912 150.951 22.6145 150.85 22.3466C150.751 22.0918 150.603 21.8637 150.363 21.7095C149.841 21.3751 149.283 21.6283 149.237 22.2387C149.194 22.7947 149.13 23.3458 149.141 23.9066C149.16 24.7986 149.13 25.6938 149.149 26.5866C149.163 27.227 149.092 27.8617 149.005 28.4875C148.882 29.3746 148.982 30.2349 149.221 31.0774C149.437 31.8476 149.757 32.0481 150.546 32.0408C151.098 32.0359 151.265 31.8841 151.252 31.3217C151.238 30.7308 151.307 30.1416 151.383 29.5612C151.498 28.6798 151.691 27.8122 151.84 26.9332C151.966 26.1824 152.205 25.4901 152.728 24.9098C153.01 24.5981 153.327 24.3295 153.669 24.0957C155.386 22.9343 157.245 22.1072 159.313 21.7793C159.614 21.7339 159.884 21.6389 159.94 21.2858Z" fill="#020B1E"/>
</svg>
