<svg width="211" height="45" viewBox="0 0 211 45" fill="none" xmlns="http://www.w3.org/2000/svg">
<path d="M31.965 21.3878L25.024 16.5388V41.5818C25.025 42.0988 24.822 42.5948 24.459 42.9628C24.1 43.3288 23.61 43.5358 23.097 43.5358V43.5338H16.746V43.5358C16.217 43.5358 15.736 43.3168 15.387 42.9638L15.386 42.9628L15.385 42.9618L15.384 42.9608C15.021 42.5938 14.818 42.0978 14.819 41.5818V4.24485H14.82C14.82 4.08785 14.893 3.93285 15.03 3.83685L18.817 1.17185L18.818 1.17285L18.819 1.17185C19.139 0.943848 19.521 0.820848 19.914 0.818848C20.307 0.819848 20.69 0.941848 21.01 1.16885L37.753 12.8668C38.629 13.4858 38.849 14.6918 38.246 15.5798L34.646 20.8858C34.361 21.3138 33.914 21.6068 33.408 21.6988C33.159 21.7468 32.904 21.7448 32.656 21.6928C32.407 21.6388 32.172 21.5348 31.965 21.3878Z" fill="#008DD2"/>
<path d="M13.194 17.1877L7.52999 21.1707C7.32299 21.3187 7.08899 21.4237 6.84099 21.4797C6.59299 21.5317 6.33799 21.5347 6.08899 21.4867C5.82299 21.4397 5.56999 21.3357 5.34799 21.1817C5.15199 21.0447 4.98199 20.8727 4.84799 20.6747L1.24299 15.3767C0.952993 14.9507 0.841993 14.4267 0.934993 13.9197C1.02399 13.4277 1.29699 12.9697 1.73199 12.6637L12.669 4.9867C12.889 4.8327 13.192 4.8867 13.346 5.1067L13.35 5.1127C13.407 5.1957 13.437 5.2937 13.437 5.3947H13.439V16.7577C13.439 16.9347 13.346 17.0977 13.194 17.1877Z" fill="#061F5E"/>
<path d="M207.301 27.5328C207.331 26.9448 207.147 26.4028 206.907 25.8888C206.275 24.5378 205.373 23.8068 203.819 23.9168C203.213 23.9638 202.615 24.0898 202.041 24.2918C200.55 24.8128 199.147 25.5038 197.807 26.3338C197.001 26.8318 196.22 27.3598 195.607 28.0948C194.992 28.8308 194.768 29.6118 195.554 30.3908C195.714 30.5508 195.757 30.7048 195.651 30.9158C195.52 31.1798 195.427 31.4608 195.297 31.7238C194.536 33.2578 194.351 34.8688 194.676 36.5388C194.93 37.8558 195.672 38.7848 196.956 39.2388C197.825 39.5468 198.738 39.5768 199.632 39.4498C201.393 39.1998 202.73 38.1968 203.87 36.8908C204.715 35.9208 205.394 34.8388 205.976 33.7028C206.628 32.4298 207.249 31.1298 207.309 29.6528C207.311 29.5738 207.35 29.4998 207.413 29.4518V27.7978C207.333 27.7338 207.29 27.6348 207.301 27.5328ZM204.932 28.0448C204.895 29.6958 204.334 31.1928 203.562 32.6238C203.089 33.5068 202.522 34.3378 201.871 35.1008C201.059 36.0498 200.089 36.7518 198.871 37.0728C198.524 37.1628 198.166 37.1528 197.815 37.1158C197.374 37.0688 197.079 36.6478 197.023 36.0768C196.943 35.2878 197.16 34.5558 197.437 33.8378C197.98 32.4438 198.77 31.1588 199.77 30.0448C200.391 29.3398 200.93 28.5608 201.501 27.8118C202.206 26.8888 203.142 26.5058 204.285 26.6118C204.646 26.6448 204.883 26.9088 204.927 27.3378C204.951 27.5698 204.932 27.8068 204.932 28.0448ZM70.176 26.8308C70.236 25.9888 70.35 25.1558 70.487 24.3278C70.614 23.5568 70.788 22.7878 70.768 21.9988C70.748 21.1928 70.915 20.3978 70.901 19.5898C70.895 19.2018 70.971 18.8108 71.038 18.4228C71.229 17.3238 71.489 16.2368 71.766 15.1548C71.889 14.6708 71.87 14.1848 71.723 13.7048C71.543 13.1138 71.108 12.8888 70.544 12.7928C69.953 12.6888 69.702 13.0538 69.465 13.4948C68.797 14.7478 68.329 16.0808 67.831 17.4048C67.764 17.5848 67.708 17.7758 67.708 17.9788C67.702 18.5078 67.638 19.0348 67.611 19.5638C67.551 20.5808 67.468 21.5958 67.361 22.6088C67.221 23.9128 67.047 25.2138 66.84 26.5088C66.576 28.2328 66.151 29.9268 65.71 31.6148C65.363 32.9448 64.822 34.2148 64.507 35.5558C64.408 35.9958 64.289 36.4308 64.15 36.8598C63.939 37.4788 63.522 37.5688 63.034 37.1238C62.82 36.9218 62.641 36.6838 62.505 36.4218C61.806 35.1448 61.589 33.7148 61.222 32.3348C60.834 30.8788 60.617 29.3798 60.433 27.8868C60.3 26.8008 60.156 25.7148 60.152 24.6078C60.148 23.2318 60.265 21.8608 60.259 20.4838C60.258 19.6368 60.082 18.7998 59.741 18.0248C59.561 17.6088 59.283 17.2408 58.929 16.9548C58.378 16.5138 57.773 16.6038 57.358 17.1788C56.942 17.7528 56.617 18.3878 56.396 19.0608C56.187 19.7148 56.04 20.3868 55.961 21.0698C55.83 22.0988 55.641 23.1218 55.577 24.1538C55.526 24.9428 55.44 25.7178 55.257 26.4768C54.659 28.9328 54.242 31.4288 53.647 33.8858C53.543 34.3098 53.507 34.7618 53.249 35.2088C53.112 34.9318 52.982 34.7108 52.888 34.4768C52.558 33.6788 52.283 32.8588 52.062 32.0238C51.788 30.9408 51.527 29.8518 51.434 28.7388C51.321 27.3718 51.33 25.9988 51.207 24.6278C51.096 23.3988 50.877 22.1818 50.551 20.9918C50.369 20.3068 50.07 19.6578 49.669 19.0728C49.535 18.8778 49.352 18.7228 49.138 18.6218C48.74 18.4288 48.677 18.4188 48.379 18.7618C47.979 19.2198 47.597 19.6948 47.229 20.1788C46.991 20.4868 47.012 20.5908 47.296 20.8878C47.517 21.1178 47.731 21.3388 47.77 21.6798C47.83 22.1878 47.897 22.6888 47.887 23.2038C47.85 25.0678 47.893 26.9268 48.221 28.7748C48.469 30.1618 48.652 31.5618 48.963 32.9358C49.367 34.7068 49.929 36.4218 51.045 37.8918C51.713 38.7738 52.489 39.5528 53.498 40.0568C53.832 40.2248 54.177 40.2708 54.521 40.1168C54.845 39.9728 55.13 39.7758 55.343 39.4688C55.741 38.8948 55.987 38.2588 56.155 37.5868C56.579 35.8958 57.008 34.2018 57.432 32.5098C57.479 32.3228 57.462 32.0728 57.736 32.0858C58.003 32.0958 57.986 32.3728 58.013 32.5408C58.083 32.9688 58.181 33.3898 58.321 33.7978C59.084 36.0108 60.206 38.0848 61.643 39.9328C61.971 40.3538 62.369 40.7018 62.843 40.9618C63.608 41.3798 64.266 41.2358 64.861 40.7508C65.226 40.4538 65.55 40.1088 65.833 39.7248C66.806 38.4138 67.561 36.9538 68.068 35.4008C68.736 33.3688 69.2 31.2798 69.712 29.2048C69.89 28.4118 70.12 27.6368 70.176 26.8308ZM119.552 34.6378C119.373 33.6178 119.31 32.5798 119.365 31.5458C119.412 30.6068 119.545 29.6738 119.605 28.7348C119.675 27.6588 119.816 26.5898 119.879 25.5138C119.939 24.4618 120.103 23.4118 120.197 22.3598C120.297 21.2668 120.341 20.1678 120.468 19.0808C120.521 18.6128 120.509 18.1348 120.591 17.6778C120.728 16.9228 120.715 16.1488 120.554 15.3978C120.361 14.4858 119.972 13.6838 119.121 13.1988C118.647 12.9318 118.342 12.9778 117.944 13.3388C117.624 13.6298 117.356 13.9668 117.091 14.3108C115.727 16.0928 114.441 17.9198 113.539 19.9888C113.428 20.2388 113.328 20.4968 113.211 20.7478C113.16 20.8588 113.071 20.9408 112.93 20.9178C112.78 20.8948 112.76 20.7738 112.756 20.6508C112.752 20.2968 112.756 19.9418 112.756 19.5888H112.755C112.755 19.3148 112.749 19.0368 112.755 18.7628C112.785 17.5938 112.224 16.7838 111.211 16.2628C110.489 15.8918 109.86 16.1088 109.503 16.8448C109.427 17.0048 109.37 17.1688 109.329 17.3428C109.225 17.8208 109.115 18.2988 108.985 18.7698C108.544 20.3608 107.943 21.8948 107.294 23.4148C105.733 27.0848 104.263 30.7908 102.508 34.3728C102.258 34.8838 102.278 35.3858 102.535 35.8938C102.719 36.2548 102.986 36.5418 103.296 36.7818C103.743 37.1288 104.249 37.0728 104.67 36.6708C105.078 36.2828 105.318 35.7888 105.582 35.3038C106.714 33.2288 107.618 31.0528 108.426 28.8368C108.513 28.5968 108.613 28.3628 108.713 28.1278C108.75 28.0378 108.8 27.9368 108.92 27.9578C109.037 27.9778 109.164 28.0218 109.191 28.1508C109.221 28.2838 109.224 28.4248 109.218 28.5588C109.198 28.9358 109.265 29.3078 109.368 29.6658C109.575 30.3838 109.815 31.0888 110.394 31.6238C111.059 32.2388 111.661 32.1978 112.165 31.4678C112.318 31.2398 112.457 31.0028 112.583 30.7588C113.502 29.0348 114.147 27.1998 114.771 25.3578C115.189 24.1278 115.673 22.9278 116.298 21.7858C116.355 21.6818 116.402 21.5748 116.466 21.4718C116.53 21.3678 116.613 21.2788 116.751 21.3078C116.901 21.3378 116.907 21.4618 116.907 21.5818C116.897 21.9158 116.903 22.2498 116.87 22.5848C116.773 23.5768 116.646 24.5658 116.556 25.5618C116.459 26.6138 116.425 27.6778 116.279 28.7238C116.203 29.2688 116.209 29.8168 116.102 30.3578C116.003 30.9168 115.966 31.4848 115.991 32.0518C116.011 32.6568 116.118 33.2578 116.194 33.8598C116.307 34.7358 116.401 35.6108 116.729 36.4398C117.063 37.2818 117.467 38.0908 117.919 38.8718C118.223 39.3968 118.567 39.9048 119.008 40.3318C119.466 40.7788 120.375 40.8468 120.893 40.4758C121.122 40.3178 121.266 40.0628 121.281 39.7848C121.334 39.2028 121.074 38.7188 120.873 38.2108C120.412 37.0338 119.777 35.9108 119.552 34.6378ZM153.617 24.5548C152.711 24.0028 151.745 24.0708 150.769 24.3068C149.596 24.5918 148.507 25.0688 147.457 25.6638C146.243 26.3498 145.105 27.1608 144.059 28.0838C142.402 29.5438 141.543 31.4628 140.981 33.5448C140.907 33.8218 140.804 33.9628 140.513 33.9488C140.179 33.9348 139.838 33.9718 139.51 33.9258C138.848 33.8288 138.24 33.6178 137.986 32.9028C137.849 32.5188 137.873 32.1278 137.956 31.7398C138.069 31.2018 138.25 30.6778 138.321 30.1358C138.442 29.1798 138.505 28.2108 138.141 27.2858C137.911 26.6948 137.579 26.1538 137.032 25.8058C136.394 25.3978 135.816 25.6948 135.638 26.4208C135.507 26.9588 135.658 27.5298 135.38 28.0778C135.13 27.5698 134.925 27.0978 134.678 26.6568C133.639 24.8088 132.154 23.7798 129.929 23.9928C128.82 24.0998 127.831 24.4378 126.911 25.0428C126.125 25.5668 125.434 26.2198 124.866 26.9748C124.087 28.0008 123.482 29.1068 123.131 30.3598C122.817 31.4758 122.766 32.6028 122.8 33.7448C122.841 35.0858 123.171 36.3448 123.876 37.4908C124.758 38.9218 126.062 39.6438 127.733 39.7238C129.38 39.8038 130.858 39.2398 132.285 38.5078C133.778 37.7388 134.972 36.6128 136.025 35.3198C136.228 35.0698 136.382 34.7578 136.663 34.5778C136.843 34.6618 136.874 34.8318 136.95 34.9618C137.555 35.9548 139.146 36.9298 140.493 36.0178C140.837 35.7838 140.877 35.8248 140.998 36.2208C141.422 37.6148 142.328 38.5598 143.658 39.1118C144.443 39.4398 145.282 39.5488 146.125 39.5938C147.228 39.6538 148.321 39.5368 149.404 39.3438C150.31 39.1838 151.205 38.9498 152.027 38.5088C152.345 38.3388 152.625 38.1278 152.792 37.7998C152.985 37.4248 152.872 37.1348 152.478 37.0178C152.06 36.8948 151.625 36.8268 151.198 36.9308C150.716 37.0438 150.222 37.0678 149.742 37.1008C148.352 37.1908 146.962 37.2918 145.565 37.2448C145.193 37.2288 144.824 37.1608 144.472 37.0418C143.386 36.6768 143.119 35.3948 143.26 34.5548C143.437 33.5258 143.888 32.6198 144.429 31.7478C144.656 31.3828 144.663 31.3828 144.95 31.7178C145.421 32.2658 145.942 32.6708 146.708 32.7968C148.135 33.0348 149.435 32.7128 150.678 32.0688C151.787 31.4948 152.727 30.6928 153.586 29.7868C154.084 29.2618 154.455 28.6668 154.722 28.0088C154.913 27.5378 155.046 27.0328 154.986 26.5158C154.883 25.6188 154.351 25.0038 153.617 24.5548ZM133.759 34.2468C132.543 35.3598 131.176 36.2258 129.578 36.6928C128.789 36.9228 128.001 36.9778 127.199 36.7998C126.229 36.5858 125.625 35.9548 125.284 35.0548C124.923 34.1088 124.976 33.1228 125.11 32.1468C125.414 29.8978 126.697 28.2568 128.459 26.9508C128.99 26.5568 129.575 26.2488 130.257 26.1158C131.032 25.9618 131.67 26.2098 132.222 26.6608C133.338 27.5768 133.899 28.8028 134.027 30.2368C134.08 30.8458 134.23 31.4328 134.418 32.0108C134.531 32.3618 134.789 32.5458 135.213 32.5648C134.819 33.3078 134.277 33.7718 133.759 34.2468ZM152.491 26.9108C152.378 27.2018 152.261 27.4988 152.05 27.7368C151.101 28.7988 150.032 29.7048 148.665 30.1928C148.369 30.2928 148.064 30.3618 147.753 30.3958C147.255 30.4628 146.937 30.2258 146.654 29.8668C146.498 29.6698 146.527 29.5528 146.718 29.3848C147.47 28.7198 148.292 28.1608 149.15 27.6538C149.878 27.2228 150.634 26.8688 151.463 26.6718C151.656 26.6248 151.847 26.6118 152.045 26.6048H152.279C152.497 26.6038 152.564 26.7238 152.491 26.9108ZM100.848 33.4648C99.985 31.4198 98.912 29.4688 97.647 27.6438C96.932 26.6078 96.109 25.6588 95.027 24.9678C93.867 24.2258 92.628 23.8818 91.274 24.2628C90.452 24.4928 89.753 24.9778 89.111 25.5428C88.897 25.7338 88.723 25.9738 88.356 26.1808C88.867 23.4698 89.472 20.9168 89.826 18.3208C89.91 17.7018 90.029 17.0848 89.996 16.4488C89.926 15.1428 89.188 14.4598 88.044 14.6978C87.322 14.8478 87.262 15.0278 87.275 15.5978C87.305 16.8178 87.162 18.0278 87.014 19.2308C86.78 21.1558 86.379 23.0508 85.931 24.9388C85.303 27.5858 84.625 30.2258 84.147 32.9058C83.977 33.8678 83.78 34.8438 83.88 35.8238C84.024 37.2638 84.301 37.6648 85.705 37.5918C85.804 37.5908 85.9 37.5708 85.99 37.5318C86.275 37.3988 86.528 37.4748 86.765 37.6388C87.109 37.8688 87.483 38.0388 87.864 38.1968C88.569 38.4938 89.295 38.7378 90.027 38.9588C91.868 39.5128 93.759 39.8348 95.664 40.0558C96.011 40.0968 96.376 40.2158 96.71 40.1598C97.436 40.0368 98.16 40.0758 98.882 40.0758C100.383 40.0798 101.248 39.1568 101.462 37.7768C101.549 37.2228 101.509 36.6938 101.462 36.1428C101.38 35.2218 101.207 34.3168 100.848 33.4648ZM97.926 37.5058C97.134 37.6058 96.362 37.4918 95.593 37.4188C94.293 37.2958 93.01 37.0188 91.707 36.8708C90.968 36.7948 90.237 36.6478 89.525 36.4338C89.181 36.3268 88.947 36.1798 88.89 35.7688C88.82 35.2578 88.439 34.9568 87.988 34.7638C87.711 34.6428 87.617 34.5158 87.721 34.1858C88.363 32.1478 88.951 30.0848 90.211 28.3108C90.541 27.8428 90.937 27.4348 91.421 27.1208C92.286 26.5528 93.152 26.6098 93.98 27.2318C94.552 27.6628 95.022 28.1878 95.454 28.7428C96.434 30.0058 97.168 31.4128 97.814 32.8728C98.251 33.8648 98.62 34.8718 98.79 35.9438L98.841 36.2818C98.852 37.1708 98.545 37.4278 97.926 37.5058ZM80.944 24.1378C79.427 24.1278 78.059 24.6788 76.747 25.3538C75.685 25.9018 74.682 26.5568 73.729 27.2958C72.386 28.3348 71.27 29.5388 70.577 31.1158C70.015 32.3988 69.491 33.6748 69.564 35.1268C69.64 36.5828 70.236 37.7268 71.412 38.5758C72.441 39.3208 73.637 39.5188 74.861 39.5888C75.94 39.6488 77.016 39.5318 78.08 39.3448C79.005 39.1808 79.921 38.9468 80.76 38.4958C81.078 38.3258 81.355 38.1118 81.521 37.7838C81.708 37.4088 81.588 37.1318 81.19 37.0088C80.815 36.8858 80.417 36.8488 80.027 36.9018C78.513 37.1318 76.986 37.2028 75.682 37.2358C74.813 37.2158 74.165 37.2768 73.523 37.1288C72.885 36.9788 72.426 36.6408 72.159 36.0358C71.954 35.5648 71.895 35.0428 71.991 34.5388C72.161 33.5098 72.619 32.6038 73.16 31.7318C73.384 31.3748 73.387 31.3778 73.681 31.7148C74.126 32.2258 74.606 32.6438 75.325 32.7708C76.828 33.0378 78.199 32.7038 79.512 31.9918C80.598 31.4038 81.511 30.6118 82.36 29.7258C82.85 29.2118 83.23 28.6018 83.473 27.9338C83.653 27.4418 83.784 26.9348 83.694 26.3838C83.497 25.1328 82.141 24.1468 80.944 24.1378ZM80.854 27.6198C79.794 28.8868 78.558 29.9158 76.907 30.3268C76.831 30.3468 76.757 30.3698 76.68 30.3778C76.583 30.3878 76.483 30.3818 76.386 30.3818C76.212 30.3858 76.029 30.4228 75.868 30.3218C75.634 30.1718 75.41 29.9838 75.306 29.7338C75.166 29.3928 75.544 29.3158 75.706 29.1818C77.047 28.0888 78.456 27.1128 80.17 26.6818C80.514 26.5948 80.982 26.4518 81.173 26.6918C81.402 26.9778 81.061 27.3698 80.854 27.6198ZM166.951 31.7108C165.655 30.7218 164.187 30.0968 162.573 29.7788C161.46 29.5618 160.334 29.3848 159.261 28.9898C159.097 28.9298 158.923 28.8688 158.783 28.7688C158.479 28.5578 158.469 28.2848 158.746 28.0328C158.927 27.8798 159.138 27.7658 159.365 27.6948C160.511 27.2848 161.711 27.0438 162.927 26.9798C164.859 26.8858 164.902 26.8058 166.353 27.9658C166.761 28.2938 167.253 28.1628 167.71 28.0888C167.86 28.0658 167.95 27.9018 168.001 27.7448C168.202 27.1398 168.175 26.5758 167.687 26.1138C166.551 25.0408 165.177 24.5528 163.647 24.4568C163.306 24.4978 162.979 24.4898 162.644 24.5538C161.42 24.7878 160.268 25.2258 159.119 25.6768C158.311 25.9948 157.534 26.3758 156.839 26.8968C155.793 27.6818 155.676 28.6148 156.488 29.7678C156.826 30.2498 157.28 30.6468 157.802 30.9408C158.694 31.4458 159.627 31.8598 160.613 32.1438C161.649 32.4408 162.686 32.7488 163.701 33.1098C164.311 33.3268 164.904 33.5928 165.472 33.9048C165.93 34.1528 166.184 34.4398 165.896 35.1878C165.736 35.6088 165.428 35.8998 165.041 36.1268C164.342 36.5318 163.564 36.7798 162.759 36.8528C161.426 36.9858 160.126 36.8428 158.99 36.0308C158.682 35.8198 158.355 35.6378 158.014 35.4858C157.563 35.2718 157.079 35.4218 156.724 35.8668C156.367 36.3178 156.333 36.7388 156.66 37.1528C156.877 37.4298 157.131 37.6738 157.439 37.8678C158.548 38.5698 159.768 38.9878 161.042 39.2708C162.139 39.5148 163.218 39.4508 164.277 39.0938C165.196 38.7828 166.018 38.2918 166.793 37.7068C167.297 37.3288 167.723 36.8578 168.05 36.3198C169.005 34.7478 168.344 32.7728 166.951 31.7108ZM181.011 24.6118C180.935 24.6158 180.855 24.6118 180.777 24.6288C180.045 24.7658 179.297 24.7598 178.558 24.8318C177.74 24.9158 176.917 24.9388 176.102 25.0528C175.875 25.0858 175.634 25.1128 175.36 25.0158L175.727 23.0778C175.924 22.0178 176.145 20.9618 176.131 19.8768C176.125 19.3848 176.034 18.9048 175.787 18.4638C175.573 18.0828 175.225 17.8858 174.817 17.9058C174.433 17.9168 174.089 18.1488 173.935 18.5008C173.814 18.7718 173.711 19.0418 173.654 19.3358C173.498 20.1248 173.486 20.9298 173.353 21.7218C173.173 22.8008 172.799 23.8478 172.812 24.9638C172.818 25.4378 172.648 25.5748 172.184 25.6528C171.97 25.6858 171.756 25.7268 171.546 25.7498C171.008 25.8138 170.49 25.9738 169.918 25.8198C169.36 25.6658 168.715 26.0438 168.538 26.4848C168.191 27.3568 168.895 28.4638 169.832 28.5128C170.406 28.5428 170.962 28.4428 171.516 28.2988C172.298 28.0958 172.348 28.1588 172.184 28.9708C171.843 30.6588 171.342 32.3158 171.124 34.0298C170.913 35.6678 171.264 37.1608 172.256 38.4708C172.935 39.3708 173.85 39.7108 174.967 39.3868C175.287 39.2928 175.611 39.2128 175.926 39.1018C176.474 38.9048 176.842 38.6078 176.922 37.9388C177.039 36.9528 176.461 36.2408 175.458 36.2848C175.194 36.2988 175.027 36.3648 174.943 36.6558C174.836 37.0308 174.693 37.0768 174.412 36.8358C173.787 36.3008 173.389 35.6058 173.442 34.7768C173.502 33.8418 173.676 32.9148 173.809 31.9838C173.956 30.9578 174.277 29.9618 174.264 28.9058C174.271 28.5518 174.34 28.2038 174.467 27.8728C174.534 27.6858 174.647 27.5918 174.851 27.5618C176.459 27.3278 178.062 27.0938 179.666 26.8438C180.283 26.7438 180.898 26.6218 181.507 26.4788C181.968 26.3718 182.128 26.1678 182.151 25.7638C182.227 24.7228 182.067 24.5628 181.011 24.6118ZM195.478 26.2258C195.498 26.1028 195.565 26.0148 195.638 25.9178C195.925 25.5268 195.915 25.2028 195.571 24.8818C195.2 24.5348 194.763 24.3238 194.238 24.3838C193.871 24.4248 193.502 24.4838 193.135 24.5478C192.126 24.7178 191.16 25.0528 190.217 25.4398C188.259 26.2458 186.313 27.0778 184.709 28.6118C184.582 28.2038 184.492 27.8628 184.368 27.5328C184.247 27.2188 184.067 26.9378 183.773 26.7478C183.135 26.3358 182.453 26.6478 182.397 27.3998C182.344 28.0848 182.266 28.7638 182.28 29.4548C182.303 30.5538 182.266 31.6568 182.29 32.7568C182.307 33.5458 182.22 34.3278 182.113 35.0988C181.963 36.1918 182.086 37.2518 182.377 38.2898C182.641 39.2388 183.033 39.4858 183.997 39.4768C184.672 39.4708 184.876 39.2838 184.86 38.5908C184.843 37.8628 184.927 37.1368 185.02 36.4218C185.16 35.3358 185.397 34.2668 185.578 33.1838C185.732 32.2588 186.025 31.4058 186.664 30.6908C187.008 30.3068 187.396 29.9758 187.814 29.6878C189.912 28.2568 192.185 27.2378 194.712 26.8338C195.08 26.7778 195.41 26.6608 195.478 26.2258Z" fill="#020B1E"/>
</svg>
