<?xml version="1.0" encoding="utf-8"?>
<!-- Generator: Adobe Illustrator 22.1.0, SVG Export Plug-In . SVG Version: 6.00 Build 0)  -->
<svg version="1.1" id="Слой_1" xmlns="http://www.w3.org/2000/svg" xmlns:xlink="http://www.w3.org/1999/xlink" x="0px" y="0px"
	 viewBox="0 0 976 976" style="enable-background:new 0 0 976 976;" xml:space="preserve">
<style type="text/css">
	.st0{fill:#00AAFF;}
</style>
<g>
	<g id="_x23_0082c8ff">
		<path class="st0" d="M468.4,0.5c27.8-1.3,55.7,0.2,83.2,4.2c21.9,3.1,43.4,8.6,64.9,13.7c43.3,10.6,84.9,28,122.8,51.4
			c13.5,8.2,26.4,17.5,39.2,26.8c34.6,24.8,65.7,54.6,91.6,88.5c20,26.2,39,53.5,53.7,83.1c15.5,30.7,27.3,63.3,35.1,96.8
			c5.7,23.8,11.5,47.7,14.2,72.1c4.1,35.5,4.1,71.6-0.7,107.1c-2.9,23.8-8.8,47-14.3,70.2C945,670,920.3,722.6,886.6,768.7
			c-12.4,17.4-25.2,34.5-39.8,50.1c-14.3,16-30.2,30.6-46.8,44.3c-13.4,10.8-27.4,20.7-41.4,30.7c-34.6,23.7-72.4,42.7-112.3,55.4
			c-20.6,6.9-42,11.2-63.1,16.3c-61.3,13.9-125.7,14.1-187.2,0.7c-27.3-6.3-54.8-12.2-81.1-22.1c-33.6-12.1-65.6-28.7-95.1-48.7
			c-17.7-12.4-35.5-24.9-51.9-39.1c-25.6-21.8-48.5-46.6-68.3-73.7c-9.9-13.5-19.9-27.1-28.6-41.4C46.6,702,28.6,659,17.9,614.2
			c-4.5-19.5-9.6-38.8-12.6-58.6c-7.6-47.9-7.1-97,1.6-144.7c2.8-15.7,6.8-31.1,10.4-46.6c9.4-40.7,24.9-80.1,45.8-116.3
			c10.3-18.2,22.3-35.4,34.8-52.2c26.5-36.7,58.6-69.2,95.1-95.9c23-17.3,46.9-33.4,72.6-46.4C286,43,307.2,34.2,329,27.1
			c19.8-6.5,40.1-11.1,60.4-15.7C415.2,5.4,441.8,1.7,468.4,0.5 M467.4,60.5c-72.8,3.4-144.7,25.7-206.4,64.6
			c-45.5,28.4-85.6,65.4-117.4,108.6c-36.8,49.7-62.7,107.4-75,168.1c-11.7,56.7-11.6,115.8,0,172.5
			c14.4,71.1,47.6,138.2,94.9,193.1c10.4,11.6,20.7,23.3,32.4,33.6c67.4,63.4,156,103.7,248,112.8c70.5,7.3,142.8-3.1,208.2-30.5
			c66.4-27.6,125.7-72.2,170.5-128.6c32.7-41.1,58-88.2,73.6-138.3c22-69.6,25.5-144.9,10.6-216.3c-14.5-70-47.2-136.1-93.7-190.3
			c-11.1-12.8-22.6-25.4-35.3-36.7c-27.7-25.5-58.8-47.4-92.2-64.8C618.9,73.3,542.7,56.8,467.4,60.5z"/>
	</g>
	<g id="_x23_ffffffff">
		<path class="st0" d="M666.4,321.2c8-1.1,16.6-1.3,24.1,2.3c7.2,3.5,11.2,11.7,10.6,19.4c-1.6,26.5-5.5,52.7-9.3,79
			c-12.5,88.9-28.4,177.3-43.2,265.8c-1.1,7-2.5,14.2-6.6,20.2c-8.8,13.5-26.6,20.8-42.3,16.5c-6.1-1.5-11.1-5.4-16.2-8.8
			c-50.1-33.9-100.4-67.4-150-102c-7.6-5.4-10.6-15.8-8.5-24.7c3-12.8,11.8-23.1,21.5-31.5c41-40.1,85.7-76.2,124.8-118.2
			c3.5-3.3,5.4-8.2,4.9-13c-0.8-3.5-5.2-2.7-7.7-1.9c-9.1,3.1-17.2,8.7-25.2,13.9c-54.9,37.6-108.3,77.5-165.5,111.6
			c-8.8,5.2-17.5,11-27.6,13.5c-15.9,4-32.8,2.1-48.5-1.9c-11.7-2.9-23.1-6.7-34.5-10.3c-8.1-2.8-15.9-6.2-23.8-9.2
			c-8.3-3.4-16.7-6.8-24.1-11.9c-3.7-2.7-7.9-6.7-7-11.7c1.1-4.5,5-7.8,8.9-10.1c37.2-20.3,75.9-37.4,114.6-54.5
			c37.6-16.8,75.6-32.6,113.6-48.4c58.7-24.4,117.5-48.3,176.8-71.1C639.2,329.2,652.2,323,666.4,321.2z"/>
	</g>
</g>
</svg>
