<svg width="45" height="45" viewBox="0 0 45 45" fill="none" xmlns="http://www.w3.org/2000/svg">
<path d="M27.0084 23.1658L27.836 24.3028C29.6866 22.9556 30.8791 21.2217 31.3791 19.1489L30.0122 18.8191C29.5924 20.5586 28.582 22.0211 27.0084 23.1658Z" fill="#75B0F4"/>
<path d="M30.2344 16.875C30.2344 17.0958 30.2266 17.313 30.2105 17.5268L31.6132 17.6295C31.6315 17.382 31.6406 17.1302 31.6406 16.875V16.1719H30.2344V16.875Z" fill="#75B0F4"/>
<path d="M24.6094 14.0625V12.6562C23.8338 12.6562 23.2031 12.0255 23.2031 11.25C23.2031 10.4745 23.8338 9.84375 24.6094 9.84375C25.3849 9.84375 26.0156 10.4745 26.0156 11.25H27.4219C27.4219 9.69891 26.1605 8.4375 24.6094 8.4375C23.0583 8.4375 21.7969 9.69891 21.7969 11.25C21.7969 12.8011 23.0583 14.0625 24.6094 14.0625Z" fill="#75B0F4"/>
<path d="M18.9844 9.84375C18.9844 8.68078 18.038 7.73438 16.875 7.73438V9.14062C17.2624 9.14062 17.5781 9.45633 17.5781 9.84375C17.5781 10.2312 17.2624 10.5469 16.875 10.5469C16.4876 10.5469 16.1719 10.2312 16.1719 9.84375H14.7656C14.7656 11.0067 15.712 11.9531 16.875 11.9531C18.038 11.9531 18.9844 11.0067 18.9844 9.84375Z" fill="#75B0F4"/>
<path d="M19.6875 11.9531V13.3594C20.0749 13.3594 20.3906 13.6751 20.3906 14.0625C20.3906 14.4499 20.0749 14.7656 19.6875 14.7656C19.3001 14.7656 18.9844 14.4499 18.9844 14.0625H17.5781C17.5781 15.2255 18.5245 16.1719 19.6875 16.1719C20.8505 16.1719 21.7969 15.2255 21.7969 14.0625C21.7969 12.8995 20.8505 11.9531 19.6875 11.9531Z" fill="#75B0F4"/>
<path d="M41.4844 22.5711V16.172C41.4844 15.009 40.538 14.0626 39.375 14.0626H34.4384C34.2788 6.92096 28.5785 0.960571 21.5803 0.711664C17.9177 0.58018 14.4492 1.90838 11.8174 4.44877C10.4203 5.79666 9.36844 7.39557 8.67727 9.14073H5.625C5.23758 9.14073 4.92188 8.82502 4.92188 8.4376V7.66346C6.5243 7.33651 7.73438 5.9162 7.73438 4.21885C7.73438 2.28034 6.15727 0.703227 4.21875 0.703227C2.28023 0.703227 0.703125 2.28034 0.703125 4.21885C0.703125 5.9162 1.9132 7.33651 3.51562 7.66346V8.4376C3.51562 9.60057 4.46203 10.547 5.625 10.547H8.2132C7.90734 11.679 7.73438 12.8553 7.73438 14.0626V21.6008L9.88805 22.3187L10.1609 25.3126H5.625C4.46203 25.3126 3.51562 26.259 3.51562 27.422V28.1961C1.9132 28.5231 0.703125 29.9434 0.703125 31.6407C0.703125 33.5792 2.28023 35.1564 4.21875 35.1564C6.15727 35.1564 7.73438 33.5792 7.73438 31.6407C7.73438 29.9434 6.5243 28.5231 4.92188 28.1961V27.422C4.92188 27.0339 5.23758 26.7189 5.625 26.7189H10.2881L10.608 30.2345H17.5781V31.877L9.8332 35.1381C6.42234 36.5739 4.21875 39.8926 4.21875 43.5939V44.297H40.7812V43.5939C40.7812 39.8926 38.5777 36.5739 35.1668 35.1381L27.4219 31.877V27.8361C31.9613 25.5383 34.4531 21.662 34.4531 16.8751V15.4689H39.375C39.7624 15.4689 40.0781 15.7846 40.0781 16.172V22.5711C38.4757 22.8981 37.2656 24.3177 37.2656 26.0157C37.2656 27.9542 38.8427 29.5314 40.7812 29.5314C42.7198 29.5314 44.2969 27.9542 44.2969 26.0157C44.2969 24.3184 43.0868 22.8981 41.4844 22.5711ZM2.10938 4.21885C2.10938 3.05588 3.05578 2.10948 4.21875 2.10948C5.38172 2.10948 6.32812 3.05588 6.32812 4.21885C6.32812 5.38182 5.38172 6.32823 4.21875 6.32823C3.05578 6.32823 2.10938 5.38182 2.10938 4.21885ZM6.32812 31.6407C6.32812 32.8037 5.38172 33.7501 4.21875 33.7501C3.05578 33.7501 2.10938 32.8037 2.10938 31.6407C2.10938 30.4778 3.05578 29.5314 4.21875 29.5314C5.38172 29.5314 6.32812 30.4778 6.32812 31.6407ZM19.0891 17.3631C15.7155 16.6227 13.3594 14.1083 13.3594 11.2501C13.3594 7.7612 16.8293 4.92198 21.0938 4.92198C25.3582 4.92198 28.8281 7.7612 28.8281 11.2501C28.8281 13.4474 27.4584 15.4541 25.1648 16.6206C23.9548 17.2358 23.2031 18.4424 23.2031 19.7692V32.5492C23.2031 33.9955 24.0708 35.2766 25.413 35.8138L29.0433 37.2657H15.9567L19.587 35.8138C20.9292 35.2766 21.7969 33.9955 21.7969 32.5492V20.781C21.7969 19.1448 20.6578 17.7076 19.0891 17.3631ZM13.4845 38.672H31.5155C31.9852 39.084 32.3916 39.5551 32.7234 40.0782H12.2766C12.6084 39.5551 13.0148 39.084 13.4845 38.672ZM11.6044 41.4845H33.3956C33.5475 41.9352 33.6459 42.4063 33.6973 42.8907H11.3027C11.3541 42.4063 11.4525 41.9352 11.6044 41.4845ZM33.0469 16.8751C33.0469 21.2267 30.6928 24.7389 26.4178 26.7617L26.0156 26.9523V32.8107L34.6212 36.4339C37.2909 37.5582 39.0881 40.0452 39.3434 42.8907H35.1225C34.863 39.9053 32.9688 37.3213 30.1437 36.1914L25.9348 34.5074C25.1297 34.1853 24.6094 33.4168 24.6094 32.5492V19.7692C24.6094 18.9739 25.0664 18.2476 25.8019 17.8742C28.5778 16.4638 30.2344 13.9874 30.2344 11.2501C30.2344 6.98565 26.1338 3.51573 21.0938 3.51573C16.0538 3.51573 11.9531 6.98565 11.9531 11.2501C11.9531 14.7749 14.7635 17.8531 18.7882 18.7363C19.717 18.9409 20.3906 19.8001 20.3906 20.781V32.5492C20.3906 33.4168 19.8703 34.1853 19.0645 34.5074L14.8556 36.1914C12.0312 37.3213 10.1362 39.9053 9.8768 42.8907H5.65664C5.91258 40.0452 7.70906 37.5582 10.3788 36.4339L18.9844 32.8107V28.8282H11.892L11.205 21.2753L9.14062 20.5869V14.0626C9.14062 10.7889 10.4379 7.73448 12.7941 5.46057C15.1488 3.18807 18.258 1.99416 21.5297 2.11791C27.8803 2.34291 33.0469 7.83784 33.0469 14.3664V16.8751ZM40.7812 28.1251C39.6183 28.1251 38.6719 27.1787 38.6719 26.0157C38.6719 24.8528 39.6183 23.9064 40.7812 23.9064C41.9442 23.9064 42.8906 24.8528 42.8906 26.0157C42.8906 27.1787 41.9442 28.1251 40.7812 28.1251Z" fill="#75B0F4"/>
</svg>
