<svg width="70" height="70" viewBox="0 0 70 70" fill="none" xmlns="http://www.w3.org/2000/svg">
<path d="M68.8333 41.9999H65.3333V39.7086C65.3287 38.2231 64.3966 36.8988 63 36.3929V3.49992C63 2.85563 62.4776 2.33325 61.8333 2.33325H8.16667C7.52237 2.33325 7 2.85563 7 3.49992V29.1666H1.16667C0.522375 29.1666 0 29.689 0 30.3333V66.4999C0 67.1442 0.522375 67.6666 1.16667 67.6666H26.8333C27.4776 67.6666 28 67.1442 28 66.4999V58.3333H44.3333V66.4999C44.3333 67.1442 44.8557 67.6666 45.5 67.6666H68.8333C69.4776 67.6666 70 67.1442 70 66.4999V43.1666C70 42.5223 69.4776 41.9999 68.8333 41.9999ZM63 39.7086V50.8503L60.6667 53.1836L57.9915 50.5084C57.5359 50.053 56.7974 50.053 56.3418 50.5084L54.8333 52.0169V39.6666C54.8335 39.2692 54.7661 38.8747 54.6338 38.4999H61.7913C62.4587 38.5005 62.9994 39.0412 63 39.7086ZM28 42.6836V31.9829L50.6497 9.33325H56V14.6836L28 42.6836ZM39.6667 34.3162V51.3333H32.6667V41.3163L39.6667 34.3162ZM30.3333 43.6496V51.3333H28V45.9829L30.3333 43.6496ZM32.6667 24.0169V9.33325H39.6667V17.0169L32.6667 24.0169ZM42 14.6836V9.33325H47.3503L42 14.6836ZM50.1667 39.6666C50.1667 39.0223 50.689 38.4999 51.3333 38.4999C51.9776 38.4999 52.5 39.0223 52.5 39.6666V41.9999H50.1667V39.6666ZM51.3333 36.1666C50.9349 36.1704 50.5403 36.243 50.1667 36.3813V23.8162L56 17.9829V36.1666H51.3333ZM9.33333 4.66659H60.6667V36.1666H58.3333V8.16658C58.3333 7.52229 57.811 6.99992 57.1667 6.99992H12.8333C12.189 6.99992 11.6667 7.52229 11.6667 8.16658V29.1666H9.33333V4.66659ZM21 9.33325V29.1666H14V9.33325H21ZM7 65.3332H2.33333V62.9999H7V65.3332ZM25.6667 65.3332H21V62.9999H25.6667V65.3332ZM25.6667 60.6666H19.8333C19.189 60.6666 18.6667 61.189 18.6667 61.8332V65.3332H9.33333V61.8332C9.33333 61.189 8.81096 60.6666 8.16667 60.6666H2.33333V31.4999H11.6667V33.8333H14V31.4999H16.3333V33.8333H18.6667V31.4999H25.6667V60.6666ZM27.37 29.3136C27.2061 29.2208 27.0216 29.1704 26.8333 29.1666H23.3333V9.33325H30.3333V26.3503L27.37 29.3136ZM44.3333 55.9999H28V53.6666H44.3333V55.9999ZM44.3333 43.1666V51.3333H42V31.9829L47.8333 26.1496V41.9999H45.5C44.8557 41.9999 44.3333 42.5223 44.3333 43.1666ZM67.6667 65.3332H46.6667V44.3333H52.5V54.8333C52.4999 55.305 52.7839 55.7306 53.2198 55.9113C53.3614 55.9703 53.5132 56.0004 53.6667 55.9999C53.9761 55.9999 54.2728 55.8768 54.4915 55.6581L57.1667 52.9829L59.8418 55.6581C60.2974 56.1135 61.0359 56.1135 61.4915 55.6581L64.9915 52.1581C65.2103 51.9393 65.3333 51.6427 65.3333 51.3333V44.3333H67.6667V65.3332Z" fill="#75B0F4"/>
<path d="M11.6666 33.8333H9.33331V36.1666H11.6666V33.8333Z" fill="#75B0F4"/>
<path d="M16.3333 33.8333H14V36.1666H16.3333V33.8333Z" fill="#75B0F4"/>
<path d="M14 36.1667H11.6667V38.5001H14V36.1667Z" fill="#75B0F4"/>
<path d="M18.6666 36.1667H16.3333V38.5001H18.6666V36.1667Z" fill="#75B0F4"/>
<path d="M11.6666 38.5H9.33331V40.8333H11.6666V38.5Z" fill="#75B0F4"/>
<path d="M16.3333 38.5H14V40.8333H16.3333V38.5Z" fill="#75B0F4"/>
<path d="M16.3334 44.3333H11.6667C9.73367 44.3333 8.16669 45.9002 8.16669 47.8333C8.16669 49.7663 9.73367 51.3333 11.6667 51.3333H16.3334C18.2664 51.3333 19.8334 49.7663 19.8334 47.8333C19.8334 45.9002 18.2664 44.3333 16.3334 44.3333ZM16.3334 48.9999H11.6667C11.0224 48.9999 10.5 48.4775 10.5 47.8333C10.5 47.189 11.0224 46.6666 11.6667 46.6666H16.3334C16.9776 46.6666 17.5 47.189 17.5 47.8333C17.5 48.4775 16.9776 48.9999 16.3334 48.9999Z" fill="#75B0F4"/>
</svg>
