<svg width="45" height="45" viewBox="0 0 45 45" fill="none" xmlns="http://www.w3.org/2000/svg">
<path d="M41.7873 22.6035C41.5775 22.0298 40.9426 21.7356 40.3721 21.9461L30.0348 25.7325L38.3909 17.383C38.5978 17.1771 38.7133 16.8958 38.7133 16.6026C38.7133 16.3105 38.5976 16.0296 38.3909 15.822L31.9271 9.35452C31.4961 8.92351 30.7978 8.92351 30.3668 9.35452L22.1713 17.5443L26.7677 6.64096C26.8812 6.37123 26.8827 6.06732 26.7735 5.79651C26.6629 5.5257 26.4495 5.30951 26.1794 5.19631L17.7548 1.64401C17.1926 1.4044 16.5454 1.67139 16.3091 2.23195L11.7697 13.0003V1.53517C11.7697 0.925981 11.2755 0.431763 10.6663 0.431763H1.10341C0.494218 0.431763 0 0.925981 0 1.53517V43.4647C0 44.0739 0.494218 44.5681 1.10341 44.5681H10.6663C10.801 44.5681 10.9289 44.54 11.0481 44.4963C11.1674 44.5394 11.2917 44.5681 11.421 44.5681C11.5478 44.5681 11.6756 44.5466 11.8006 44.5005L44.2757 32.6031C44.8474 32.3933 45.142 31.7597 44.9322 31.1878L41.7873 22.6035ZM6.52278 42.3613H2.20682V40.5411V39.3442V38.5252V35.6855V2.63858H9.56288V18.2349V21.075V23.9158V30.1449V31.7037V33.2324V33.264V40.1V41.2479V41.5993V41.661V42.3614H9.36345H8.70222H6.52278V42.3613ZM24.3059 6.80075L18.0335 21.6796L16.897 24.3749L15.7602 27.0702L13.8199 31.6727L12.6478 34.452L11.7697 36.5375V34.7739V32.4242V31.0587V29.4984V27.9396V18.6816L17.9142 4.10707L24.3059 6.80075ZM15.4808 33.414L16.6529 30.6348L19.8988 22.9346L31.1456 11.6954L36.0499 16.6019L25.1064 27.5387L21.3939 31.2482L12.7546 39.8815L15.4808 33.414ZM14.6511 41.1063L26.3216 29.4436L40.0949 24.3979L42.4806 30.9106L14.6511 41.1063Z" fill="#75B0F4"/>
<path d="M5.88485 37.8248C5.83635 37.8248 5.79072 37.8356 5.74372 37.8386C5.33028 37.8759 4.96466 38.0664 4.7027 38.3586C4.52997 38.5512 4.40246 38.7853 4.33926 39.0454C4.31051 39.1661 4.29076 39.2896 4.29076 39.4189C4.29076 39.7694 4.40709 40.0898 4.59822 40.3527C4.88796 40.7506 5.35426 41.0122 5.88485 41.0122C5.96195 41.0122 6.03564 41.0007 6.11002 40.9892C6.42824 40.9439 6.71513 40.8059 6.9433 40.6012C7.05351 40.502 7.15077 40.3901 7.23019 40.2635C7.36096 40.0566 7.44065 39.8167 7.46326 39.5595C7.46762 39.5121 7.4773 39.466 7.4773 39.418C7.47893 38.5381 6.76526 37.8248 5.88485 37.8248Z" fill="#75B0F4"/>
</svg>
