<svg width="72" height="72" viewBox="0 0 72 72" fill="none" xmlns="http://www.w3.org/2000/svg">
<path d="M68.625 45H56.1251C54.9025 44.9988 53.6968 44.7142 52.6027 44.1686L51.903 43.8188C50.4963 43.1178 48.9465 42.752 47.3749 42.75H33.75C33.2033 42.7468 32.6766 42.5435 32.2695 42.1785C32.1786 42.1021 32.0936 42.019 32.0153 41.9299C31.6887 41.5328 31.507 41.0365 31.5 40.5225C31.5028 40.2417 31.5616 39.9642 31.6728 39.7063C31.7841 39.4485 31.9456 39.2154 32.148 39.0206C32.6251 38.5343 33.2757 38.2571 33.957 38.25H46.125C46.566 38.2532 47.0031 38.1678 47.4105 37.9989C47.8178 37.83 48.1872 37.581 48.4965 37.2668C48.8506 36.9207 49.1232 36.5002 49.2946 36.0357C49.4661 35.5713 49.532 35.0745 49.4876 34.5814C49.4198 33.9259 49.1627 33.3043 48.7476 32.7925C48.3324 32.2806 47.7773 31.9007 47.1499 31.6991L51.165 24.75H53.0887C53.9136 24.7492 54.7284 24.9303 55.4753 25.2803C56.2222 25.6303 56.8827 26.1406 57.4099 26.775L58.9849 28.6672C59.7232 29.5554 60.6483 30.2697 61.6942 30.7594C62.7402 31.249 63.8813 31.5019 65.0363 31.5H68.625C68.9234 31.5 69.2095 31.3815 69.4205 31.1705C69.6315 30.9595 69.75 30.6734 69.75 30.375C69.75 30.0766 69.6315 29.7905 69.4205 29.5795C69.2095 29.3685 68.9234 29.25 68.625 29.25H65.0363C64.2114 29.2508 63.3966 29.0697 62.6497 28.7197C61.9028 28.3697 61.2423 27.8594 60.7151 27.225L59.1401 25.3328C58.4018 24.4446 57.4767 23.7303 56.4308 23.2406C55.3848 22.751 54.2437 22.4981 53.0887 22.5H52.4644L59.1323 10.9406C59.7196 9.90761 59.8745 8.68423 59.5631 7.53744C59.2518 6.39064 58.4995 5.41355 57.4704 4.81939C56.4413 4.22522 55.2189 4.06222 54.0701 4.36596C52.9213 4.66969 51.9392 5.4155 51.3382 6.44062L42.75 21.3188V7.875C42.7482 6.38371 42.155 4.954 41.1005 3.8995C40.046 2.84499 38.6163 2.25179 37.125 2.25H7.875C6.38371 2.25179 4.954 2.84499 3.8995 3.8995C2.84499 4.954 2.25179 6.38371 2.25 7.875V64.125C2.25179 65.6163 2.84499 67.046 3.8995 68.1005C4.954 69.155 6.38371 69.7482 7.875 69.75H37.125C38.6163 69.7482 40.046 69.155 41.1005 68.1005C42.155 67.046 42.7482 65.6163 42.75 64.125V45H47.3749C48.5975 45.0012 49.8032 45.2858 50.8973 45.8314L51.597 46.1812C53.0037 46.8822 54.5535 47.248 56.1251 47.25H68.625C68.9234 47.25 69.2095 47.1315 69.4205 46.9205C69.6315 46.7095 69.75 46.4234 69.75 46.125C69.75 45.8266 69.6315 45.5405 69.4205 45.3295C69.2095 45.1185 68.9234 45 68.625 45ZM36 23.1851C34.1608 23.943 32.6237 25.2878 31.6283 27.0101L24.6758 39.1095C24.4541 39.4939 24.3105 39.9182 24.253 40.3582C24.1956 40.7981 24.2254 41.2451 24.3409 41.6735C24.4563 42.1019 24.6551 42.5034 24.9259 42.8549C25.1967 43.2064 25.5341 43.501 25.9189 43.722C26.768 44.2153 27.7325 44.4753 28.7145 44.4757C28.9459 44.4739 29.177 44.4574 29.4064 44.4263V44.4352C29.3378 44.5521 29.2916 44.6806 29.2703 44.8144L27.6952 54.2992C27.658 54.525 27.6904 54.7567 27.7882 54.9635C27.886 55.1703 28.0445 55.3424 28.2427 55.4568C28.4408 55.5712 28.6691 55.6225 28.8971 55.6038C29.1251 55.5851 29.342 55.4974 29.5189 55.3522L36 50.0175V63H9V9H12.5674C12.8009 9.65757 13.2321 10.2268 13.8019 10.6296C14.3717 11.0325 15.0522 11.2491 15.75 11.25H29.25C29.9478 11.2491 30.6283 11.0325 31.1981 10.6296C31.7679 10.2268 32.1991 9.65757 32.4326 9H36V23.1851ZM36.8741 45L35.3531 47.6359L30.4031 51.7095L31.4539 45.387L31.9185 44.5838C32.4922 44.8519 33.1168 44.9938 33.75 45H36.8741ZM30.5494 37.4378C30.1369 37.8431 29.8095 38.3268 29.5864 38.8603C29.3632 39.3939 29.2489 39.9667 29.25 40.545C29.2589 41.0775 29.3617 41.6042 29.5538 42.1009C28.706 42.3281 27.8028 42.2104 27.0416 41.7735C26.7831 41.6251 26.594 41.3801 26.516 41.0924C26.4379 40.8047 26.4773 40.4977 26.6254 40.239L33.5801 28.1362C34.1727 27.1085 35.0252 26.2546 36.0519 25.6602C37.0787 25.0659 38.2437 24.752 39.4301 24.75H40.7655L34.2697 36H33.957C32.6755 36.009 31.45 36.5261 30.5494 37.4378ZM45.999 33.75C46.2962 33.7379 46.5875 33.835 46.818 34.023C47.0485 34.211 47.2021 34.4768 47.25 34.7704C47.2657 34.9362 47.2434 35.1033 47.185 35.2593C47.1265 35.4152 47.0333 35.5558 46.9125 35.6704C46.8106 35.7761 46.6882 35.8599 46.5528 35.9166C46.4174 35.9733 46.2718 36.0017 46.125 36H44.6625L45.9619 33.75H45.999ZM42.0671 36H36.8696L49.9118 13.4167L53.8121 15.6667L42.0671 36ZM53.2868 7.56562C53.5872 7.05306 54.0783 6.68016 54.6527 6.52829C55.2271 6.37642 55.8383 6.45792 56.3528 6.75501C56.8674 7.05209 57.2435 7.54063 57.3992 8.11403C57.5549 8.68743 57.4774 9.29912 57.1838 9.81563L54.9338 13.7126L51.0368 11.4626L53.2868 7.56562ZM40.5 64.125C40.5 65.0201 40.1444 65.8785 39.5115 66.5115C38.8785 67.1444 38.0201 67.5 37.125 67.5H7.875C6.97989 67.5 6.12145 67.1444 5.48851 66.5115C4.85558 65.8785 4.5 65.0201 4.5 64.125V7.875C4.5 6.97989 4.85558 6.12145 5.48851 5.48851C6.12145 4.85558 6.97989 4.5 7.875 4.5H37.125C38.0201 4.5 38.8785 4.85558 39.5115 5.48851C40.1444 6.12145 40.5 6.97989 40.5 7.875V22.5H39.4324C39.0369 22.5002 38.642 22.5265 38.25 22.5788V9C38.25 8.40326 38.0129 7.83097 37.591 7.40901C37.169 6.98705 36.5967 6.75 36 6.75H31.5C31.2016 6.75 30.9155 6.86853 30.7045 7.0795C30.4935 7.29048 30.375 7.57663 30.375 7.875C30.375 8.17337 30.2565 8.45952 30.0455 8.6705C29.8345 8.88147 29.5484 9 29.25 9H15.75C15.4516 9 15.1655 8.88147 14.9545 8.6705C14.7435 8.45952 14.625 8.17337 14.625 7.875C14.625 7.57663 14.5065 7.29048 14.2955 7.0795C14.0845 6.86853 13.7984 6.75 13.5 6.75H9C8.40326 6.75 7.83097 6.98705 7.40901 7.40901C6.98705 7.83097 6.75 8.40326 6.75 9V63C6.75 63.5967 6.98705 64.169 7.40901 64.591C7.83097 65.0129 8.40326 65.25 9 65.25H36C36.5967 65.25 37.169 65.0129 37.591 64.591C38.0129 64.169 38.25 63.5967 38.25 63V47.25C38.245 47.217 38.2382 47.1844 38.2297 47.1521L39.4729 45H40.5V64.125Z" fill="#86E0ED"/>
<path d="M22.5945 55.9598L21.2287 56.8699C21.5298 55.9269 21.4639 54.9049 21.0441 54.0084C20.6243 53.1119 19.8816 52.4068 18.9645 52.0342C18.0474 51.6615 17.0234 51.6487 16.0973 51.9984C15.1712 52.3481 14.4111 53.0344 13.9691 53.9202L11.3681 59.1221C11.3021 59.2544 11.2627 59.3983 11.2523 59.5457C11.2419 59.6932 11.2606 59.8412 11.3074 59.9814C11.4019 60.2645 11.6051 60.4985 11.8721 60.6319C12.1391 60.7653 12.4482 60.7871 12.7314 60.6926C12.8716 60.6458 13.0012 60.5718 13.1128 60.4749C13.2244 60.378 13.3158 60.2601 13.3819 60.1279L15.9829 54.9259C16.1732 54.5468 16.4999 54.2537 16.8974 54.1056C17.2949 53.9575 17.7338 53.9652 18.1258 54.1273C18.5178 54.2894 18.8339 54.5939 19.0107 54.9795C19.1875 55.3651 19.2119 55.8033 19.0789 56.2061L18.0574 59.2695C17.9842 59.4914 17.982 59.7305 18.0509 59.9537C18.1199 60.1769 18.2566 60.3731 18.4421 60.515C18.6276 60.657 18.8527 60.7377 19.0861 60.7459C19.3196 60.7542 19.5498 60.6896 19.7449 60.561L23.8376 57.8318C23.9876 57.7317 24.1595 57.6692 24.3388 57.6495C24.5181 57.6298 24.6994 57.6535 24.8676 57.7186C25.0358 57.7837 25.1859 57.8882 25.3052 58.0234C25.4245 58.1586 25.5096 58.3205 25.5532 58.4955L25.9042 59.8984C25.9654 60.1424 26.1065 60.3589 26.3051 60.5133C26.5038 60.6677 26.7484 60.751 27 60.75H32.625C32.9233 60.75 33.2095 60.6315 33.4205 60.4205C33.6315 60.2095 33.75 59.9234 33.75 59.625C33.75 59.3267 33.6315 59.0405 33.4205 58.8295C33.2095 58.6185 32.9233 58.5 32.625 58.5H27.8786L27.7414 57.9499C27.6103 57.4251 27.355 56.9395 26.9969 56.5339C26.6389 56.1284 26.1887 55.8149 25.6841 55.6198C25.1796 55.4248 24.6355 55.3538 24.0978 55.413C23.5601 55.4721 23.0445 55.6597 22.5945 55.9598Z" fill="#86E0ED"/>
<path d="M12.375 24.75H21.375C21.6734 24.75 21.9595 24.6315 22.1705 24.4205C22.3815 24.2095 22.5 23.9234 22.5 23.625V14.625C22.5 14.3266 22.3815 14.0405 22.1705 13.8295C21.9595 13.6185 21.6734 13.5 21.375 13.5H12.375C12.0766 13.5 11.7905 13.6185 11.5795 13.8295C11.3685 14.0405 11.25 14.3266 11.25 14.625V23.625C11.25 23.9234 11.3685 24.2095 11.5795 24.4205C11.7905 24.6315 12.0766 24.75 12.375 24.75ZM13.5 15.75H20.25V22.5H13.5V15.75Z" fill="#86E0ED"/>
<path d="M24.75 14.625C24.75 14.9234 24.8685 15.2095 25.0795 15.4205C25.2905 15.6315 25.5766 15.75 25.875 15.75H32.625C32.9234 15.75 33.2095 15.6315 33.4205 15.4205C33.6315 15.2095 33.75 14.9234 33.75 14.625C33.75 14.3266 33.6315 14.0405 33.4205 13.8295C33.2095 13.6185 32.9234 13.5 32.625 13.5H25.875C25.5766 13.5 25.2905 13.6185 25.0795 13.8295C24.8685 14.0405 24.75 14.3266 24.75 14.625Z" fill="#86E0ED"/>
<path d="M32.625 18H25.875C25.5766 18 25.2905 18.1185 25.0795 18.3295C24.8685 18.5405 24.75 18.8266 24.75 19.125C24.75 19.4234 24.8685 19.7095 25.0795 19.9205C25.2905 20.1315 25.5766 20.25 25.875 20.25H32.625C32.9234 20.25 33.2095 20.1315 33.4205 19.9205C33.6315 19.7095 33.75 19.4234 33.75 19.125C33.75 18.8266 33.6315 18.5405 33.4205 18.3295C33.2095 18.1185 32.9234 18 32.625 18Z" fill="#86E0ED"/>
<path d="M30.375 22.5H25.875C25.5766 22.5 25.2905 22.6185 25.0795 22.8295C24.8685 23.0405 24.75 23.3266 24.75 23.625C24.75 23.9234 24.8685 24.2095 25.0795 24.4205C25.2905 24.6315 25.5766 24.75 25.875 24.75H30.375C30.6734 24.75 30.9595 24.6315 31.1705 24.4205C31.3815 24.2095 31.5 23.9234 31.5 23.625C31.5 23.3266 31.3815 23.0405 31.1705 22.8295C30.9595 22.6185 30.6734 22.5 30.375 22.5Z" fill="#86E0ED"/>
<path d="M24.75 29.25H12.375C12.0766 29.25 11.7905 29.3685 11.5795 29.5795C11.3685 29.7905 11.25 30.0766 11.25 30.375C11.25 30.6734 11.3685 30.9595 11.5795 31.1705C11.7905 31.3815 12.0766 31.5 12.375 31.5H24.75C25.0484 31.5 25.3345 31.3815 25.5455 31.1705C25.7565 30.9595 25.875 30.6734 25.875 30.375C25.875 30.0766 25.7565 29.7905 25.5455 29.5795C25.3345 29.3685 25.0484 29.25 24.75 29.25Z" fill="#86E0ED"/>
<path d="M12.375 36H21.375C21.6734 36 21.9595 35.8815 22.1705 35.6705C22.3815 35.4595 22.5 35.1734 22.5 34.875C22.5 34.5766 22.3815 34.2905 22.1705 34.0795C21.9595 33.8685 21.6734 33.75 21.375 33.75H12.375C12.0766 33.75 11.7905 33.8685 11.5795 34.0795C11.3685 34.2905 11.25 34.5766 11.25 34.875C11.25 35.1734 11.3685 35.4595 11.5795 35.6705C11.7905 35.8815 12.0766 36 12.375 36Z" fill="#86E0ED"/>
<path d="M12.375 40.5H21.375C21.6734 40.5 21.9595 40.3815 22.1705 40.1705C22.3815 39.9595 22.5 39.6734 22.5 39.375C22.5 39.0766 22.3815 38.7905 22.1705 38.5795C21.9595 38.3685 21.6734 38.25 21.375 38.25H12.375C12.0766 38.25 11.7905 38.3685 11.5795 38.5795C11.3685 38.7905 11.25 39.0766 11.25 39.375C11.25 39.6734 11.3685 39.9595 11.5795 40.1705C11.7905 40.3815 12.0766 40.5 12.375 40.5Z" fill="#86E0ED"/>
<path d="M12.375 45H21.375C21.6734 45 21.9595 44.8815 22.1705 44.6705C22.3815 44.4595 22.5 44.1734 22.5 43.875C22.5 43.5766 22.3815 43.2905 22.1705 43.0795C21.9595 42.8685 21.6734 42.75 21.375 42.75H12.375C12.0766 42.75 11.7905 42.8685 11.5795 43.0795C11.3685 43.2905 11.25 43.5766 11.25 43.875C11.25 44.1734 11.3685 44.4595 11.5795 44.6705C11.7905 44.8815 12.0766 45 12.375 45Z" fill="#86E0ED"/>
</svg>
