<svg width="45" height="45" viewBox="0 0 45 45" fill="none" xmlns="http://www.w3.org/2000/svg">
<path d="M35.9307 33.2547C35.9307 30.7504 33.9003 28.72 31.396 28.72C28.8913 28.72 26.8613 30.7504 26.8613 33.2547C26.8613 35.759 28.8913 37.7894 31.396 37.7894C33.8992 37.7868 35.9281 35.7582 35.9307 33.2547ZM31.396 36.2778C29.7261 36.2778 28.3728 34.9242 28.3728 33.2547C28.3728 31.5852 29.7261 30.2315 31.396 30.2315C33.0655 30.2315 34.4191 31.5852 34.4191 33.2547C34.4191 34.9242 33.0655 36.2778 31.396 36.2778Z" fill="#446DBC"/>
<path d="M42.9191 40.4973L37.9615 35.5393C38.0936 35.4215 38.2486 35.2983 38.38 35.1939C38.9727 34.7259 39.7096 34.1432 39.7096 33.2546C39.7096 32.3659 38.9719 31.7832 38.38 31.3153C38.1132 31.133 37.8774 30.909 37.6818 30.6518C37.6272 30.3137 37.6323 29.969 37.6969 29.6328C37.7829 28.8597 37.8811 27.9821 37.2744 27.3762C36.6673 26.7699 35.7894 26.8651 35.0177 26.9536C34.6819 27.0182 34.3372 27.0234 33.9995 26.9688C33.7416 26.7736 33.5172 26.5377 33.3353 26.2702C32.8673 25.6779 32.2846 24.9409 31.396 24.9409C30.507 24.9409 29.9243 25.6786 29.4563 26.2702C29.2744 26.5374 29.0504 26.7732 28.7928 26.9688C28.4551 27.0227 28.1101 27.0175 27.7743 26.9536C27.0019 26.8651 26.1236 26.7691 25.5172 27.3762C24.9113 27.9829 25.0087 28.8597 25.0947 29.6328C25.1593 29.9687 25.1644 30.3133 25.1098 30.651C24.9146 30.9086 24.6788 31.133 24.4116 31.3153C23.8189 31.7832 23.0823 32.3659 23.0823 33.2546C23.0823 34.1432 23.8197 34.7259 24.4116 35.1939C24.543 35.2983 24.698 35.4208 24.8305 35.5393L19.8725 40.4973C19.675 40.6943 19.6023 40.984 19.6832 41.2508C19.764 41.5177 19.985 41.7184 20.2585 41.773L22.4399 42.2107L22.8775 44.3917C22.9321 44.6655 23.1333 44.8866 23.4005 44.967C23.668 45.0486 23.9584 44.9759 24.1562 44.7781L29.1142 39.8201C29.232 39.9522 29.3552 40.1072 29.4597 40.2389C29.9243 40.8313 30.507 41.5682 31.396 41.5682C32.2846 41.5682 32.8673 40.8305 33.3353 40.2389C33.4393 40.1072 33.5619 39.9522 33.6807 39.8201L38.6387 44.7781C38.8358 44.9752 39.1255 45.0479 39.3923 44.967C39.6591 44.8862 39.8598 44.6652 39.9145 44.3917L40.3518 42.2107L42.5331 41.773C42.8066 41.7184 43.0276 41.5177 43.1085 41.2508C43.1893 40.984 43.1166 40.6943 42.9191 40.4973ZM24.0821 42.7119L23.823 41.4169C23.7628 41.118 23.5292 40.8844 23.2303 40.8246L21.9387 40.5652L25.0375 37.4667C24.8991 38.0668 25.0796 38.696 25.515 39.1318C25.9505 39.5673 26.5797 39.7481 27.1801 39.6101L24.0821 42.7119ZM32.1518 39.3009C31.9573 39.5466 31.5547 40.0566 31.396 40.0566C31.2373 40.0566 30.8358 39.5466 30.6402 39.3009C30.3214 38.8145 29.8844 38.4166 29.3704 38.1447C29.0847 38.0336 28.7803 37.9808 28.474 37.9889C28.1839 37.9945 27.8942 38.0159 27.6064 38.0539C27.2705 38.1177 26.9259 38.1225 26.5882 38.0675C26.528 37.7288 26.5306 37.3819 26.5967 37.0442C26.7148 36.4574 26.6838 35.8507 26.5059 35.2795C26.2335 34.7658 25.8357 34.3292 25.3497 34.0104C25.1039 33.8162 24.5939 33.4133 24.5939 33.2546C24.5939 33.0959 25.1039 32.6944 25.3497 32.4988C25.8361 32.1799 26.2339 31.743 26.5059 31.2289C26.6838 30.658 26.7148 30.0513 26.5967 29.4649C26.5321 29.1291 26.5277 28.7844 26.583 28.4471C26.9218 28.387 27.2687 28.3899 27.6064 28.4553C28.1928 28.5741 28.7998 28.5431 29.3711 28.3645C29.8848 28.0921 30.321 27.6943 30.6402 27.2083C30.8343 26.9625 31.2373 26.4525 31.396 26.4525C31.5547 26.4525 31.9558 26.9625 32.1518 27.2083C32.4706 27.6947 32.9072 28.0925 33.4213 28.3645C33.9925 28.5427 34.5992 28.5741 35.1853 28.4553C35.5211 28.3907 35.8658 28.3862 36.2034 28.4416C36.264 28.7804 36.261 29.1273 36.1949 29.4649C36.0768 30.0517 36.1082 30.6584 36.2857 31.2297C36.5584 31.7434 36.9559 32.1799 37.4423 32.4988C37.6877 32.6929 38.1981 33.0959 38.1981 33.2546C38.1981 33.4133 37.6877 33.8148 37.4423 34.0104C36.9559 34.3292 36.5581 34.7661 36.2857 35.2802C36.1082 35.8511 36.0768 36.4578 36.1949 37.0442C36.2595 37.38 36.2643 37.7247 36.2086 38.062C35.8698 38.1214 35.5233 38.1185 35.1853 38.0539C34.5989 37.9351 33.9918 37.9664 33.4205 38.1447C32.9072 38.417 32.4706 38.8148 32.1518 39.3009ZM39.5583 40.8276C39.2594 40.8873 39.0258 41.1213 38.9657 41.4202L38.7066 42.7119L35.6078 39.6131C36.2082 39.7511 36.8374 39.5706 37.2729 39.1348C37.7084 38.699 37.8888 38.0698 37.7504 37.4697L40.8492 40.5681L39.5583 40.8276Z" fill="#446DBC"/>
<path d="M18.5476 40.8125H5.69922C3.61306 40.8099 1.9225 39.1197 1.92029 37.0335V3.77893C1.9225 1.69277 3.61306 0.00258326 5.69922 0H29.8844C31.9702 0.00258326 33.6607 1.69277 33.6633 3.77893V23.4294H32.1518V3.77893C32.1518 2.52679 31.1365 1.51157 29.8844 1.51157H5.69922C4.44671 1.51157 3.43186 2.52679 3.43186 3.77893V37.0335C3.43186 38.2857 4.44671 39.3009 5.69922 39.3009H18.5476V40.8125Z" fill="#446DBC"/>
<path d="M6.45502 19.6505H29.1286V21.1621H6.45502V19.6505Z" fill="#446DBC"/>
<path d="M6.45502 24.1852H27.617V25.6968H6.45502V24.1852Z" fill="#446DBC"/>
<path d="M6.45502 28.72H23.0823V30.2315H6.45502V28.72Z" fill="#446DBC"/>
<path d="M6.45502 15.1157H29.1286V16.6273H6.45502V15.1157Z" fill="#446DBC"/>
<path d="M6.45502 10.5811H29.1286V12.0926H6.45502V10.5811Z" fill="#446DBC"/>
</svg>
