<svg width="30" height="30" viewBox="0 0 30 30" fill="none" xmlns="http://www.w3.org/2000/svg">
<path d="M25.9575 0H4.04287C1.81027 0 0.000305176 1.80989 0.000305176 4.04256V25.9573C0.000305176 28.19 1.81019 29.9999 4.04287 29.9999H14.851L14.8695 19.2795H12.0843C11.7224 19.2795 11.4286 18.9869 11.4272 18.6249L11.4138 15.1693C11.4125 14.8054 11.7071 14.5096 12.071 14.5096H14.8511V11.1706C14.8511 7.29576 17.2176 5.18587 20.6743 5.18587H23.5107C23.8736 5.18587 24.1679 5.48008 24.1679 5.84305V8.75684C24.1679 9.11967 23.8738 9.4138 23.5111 9.41402L21.7704 9.41483C19.8906 9.41483 19.5266 10.3081 19.5266 11.619V14.5097H23.6572C24.0508 14.5097 24.3561 14.8534 24.3098 15.2442L23.9002 18.6998C23.861 19.0305 23.5806 19.2797 23.2476 19.2797H19.545L19.5266 30H25.9576C28.1902 30 30.0001 28.1901 30.0001 25.9575V4.04256C30 1.80989 28.1901 0 25.9575 0Z" fill="#475993"/>
</svg>
