<svg width="45" height="45" viewBox="0 0 45 45" fill="none" xmlns="http://www.w3.org/2000/svg">
<path d="M10.459 11.9797C9.22118 11.9797 8.21777 12.9831 8.21777 14.2209C8.21908 15.4581 9.22174 16.4608 10.459 16.4621C11.6968 16.4621 12.7002 15.4587 12.7002 14.2209C12.7002 12.9831 11.6968 11.9797 10.459 11.9797ZM10.459 14.968C10.0464 14.968 9.71191 14.6335 9.71191 14.2209C9.71219 13.8084 10.0465 13.4741 10.459 13.4738C10.8716 13.4738 11.2061 13.8083 11.2061 14.2209C11.2061 14.6335 10.8716 14.968 10.459 14.968Z" fill="#446DBC"/>
<path d="M16.0058 12.9018L15.1361 12.4517C15.1091 12.3817 15.0799 12.3124 15.0493 12.2431L15.3484 11.3034C15.4221 11.0713 15.3783 10.818 15.2309 10.6242C14.9042 10.1945 14.5217 9.81027 14.0935 9.48175C13.8991 9.33262 13.6438 9.28845 13.4107 9.36353L12.4797 9.66263C12.4148 9.63341 12.3492 9.60576 12.2842 9.58018L11.8333 8.6624C11.708 8.40644 11.4478 8.24423 11.1628 8.24432H9.75403C9.46903 8.24414 9.20886 8.40644 9.08354 8.6624L8.63343 9.58018C8.56778 9.60567 8.50288 9.63341 8.43788 9.66263L7.50694 9.36353C7.27395 9.28789 7.01873 9.33215 6.82477 9.48175C6.39614 9.81009 6.01336 10.1944 5.68661 10.6242C5.53935 10.8178 5.49546 11.0709 5.56914 11.3027L5.8675 12.2431C5.83761 12.311 5.80913 12.3795 5.78289 12.4481L4.8921 12.8982C4.64071 13.0255 4.48215 13.2832 4.48206 13.565V14.9811C4.48196 15.2626 4.64025 15.5201 4.89136 15.6472L5.78214 16.0988C5.80913 16.1674 5.83761 16.236 5.8675 16.3038L5.56914 17.2435C5.49574 17.4746 5.53897 17.7271 5.68512 17.9206C6.01149 18.3509 6.39399 18.7356 6.82253 19.0645C7.01724 19.2135 7.27255 19.258 7.5061 19.1834L8.43844 18.8843C8.50848 18.9156 8.57852 18.9448 8.6493 18.9725L9.09577 19.8042C9.22595 20.0465 9.47883 20.1976 9.75394 20.1974H11.1627C11.4377 20.1973 11.6904 20.0463 11.8208 19.8042L12.268 18.9725C12.3381 18.9455 12.4088 18.9156 12.4789 18.8843L13.4106 19.1834C13.6439 19.257 13.8984 19.2129 14.0935 19.0652C14.5222 18.7363 14.905 18.3516 15.2316 17.9212C15.3784 17.7274 15.422 17.4744 15.3484 17.2427L15.0493 16.303C15.0799 16.2344 15.1091 16.1644 15.1361 16.095L16.0058 15.6441C16.2536 15.5158 16.4092 15.2601 16.4092 14.9809V13.5649C16.4094 13.2859 16.2537 13.0301 16.0058 12.9018ZM14.9152 14.5266L14.1871 14.9045C14.0105 14.996 13.8776 15.1541 13.8179 15.3437C13.7564 15.5368 13.6782 15.7244 13.5844 15.904C13.4932 16.0802 13.4757 16.2854 13.5356 16.4745L13.8012 17.3084C13.6987 17.4229 13.5903 17.532 13.4765 17.6353L12.6521 17.3704C12.4622 17.3092 12.2555 17.3267 12.0786 17.4193C11.9001 17.5129 11.7138 17.5913 11.522 17.6535C11.3363 17.7117 11.1808 17.8403 11.0886 18.0117L10.7165 18.7033H10.2008L9.82939 18.0117C9.73741 17.8401 9.58183 17.7116 9.396 17.6535C9.20419 17.5913 9.01789 17.5129 8.83934 17.4193C8.66247 17.3267 8.45591 17.3091 8.26587 17.3704L7.44073 17.6353C7.32708 17.5318 7.21876 17.4227 7.11604 17.3084L7.38162 16.4739C7.44148 16.2849 7.42392 16.0801 7.33278 15.904C7.23902 15.7244 7.16086 15.5368 7.09932 15.3437C7.039 15.1518 6.90378 14.9924 6.72429 14.9016L5.97657 14.5222V14.0239L6.72439 13.646C6.90415 13.555 7.03956 13.3954 7.10007 13.2032C7.1617 13.0096 7.23977 12.8216 7.33353 12.6414C7.42411 12.4655 7.44139 12.2609 7.38171 12.0723L7.11688 11.2377C7.21932 11.1236 7.32736 11.0148 7.44083 10.9116L8.26596 11.1765C8.45647 11.2379 8.66368 11.22 8.84083 11.1269C9.01957 11.0329 9.20606 10.9545 9.39824 10.8927C9.59211 10.8308 9.75235 10.6925 9.84181 10.5096L10.2197 9.73846H10.6976L11.0763 10.5096C11.1659 10.6923 11.3261 10.8306 11.5198 10.8927C11.712 10.9545 11.8985 11.0329 12.0772 11.1269C12.2544 11.2201 12.4616 11.238 12.6521 11.1765L13.4765 10.9116C13.5901 11.0148 13.6985 11.1236 13.8012 11.2377L13.5356 12.0717C13.4758 12.2605 13.4932 12.4653 13.5838 12.6415C13.6782 12.8215 13.7566 13.0095 13.818 13.2033C13.8777 13.3929 14.0106 13.551 14.1871 13.6425L14.9153 14.0196V14.5266H14.9152Z" fill="#446DBC"/>
<path d="M19.4238 24.6799C17.7735 24.6799 16.4355 26.0178 16.4355 27.6681C16.4355 29.3185 17.7735 30.6564 19.4238 30.6564C21.0742 30.6564 22.4121 29.3185 22.4121 27.6681C22.4104 26.0184 21.0735 24.6816 19.4238 24.6799ZM19.4238 29.1623C18.5986 29.1623 17.9297 28.4934 17.9297 27.6681C17.9297 26.8429 18.5986 26.174 19.4238 26.174C20.2491 26.174 20.918 26.8429 20.918 27.6681C20.9169 28.4929 20.2486 29.1613 19.4238 29.1623Z" fill="#446DBC"/>
<path d="M25.7308 26.1966L24.6576 25.6685C24.6197 25.5707 24.5788 25.4737 24.5351 25.3766L24.8853 24.2786C24.9596 24.0468 24.916 23.7932 24.7686 23.5994C24.4024 23.1188 23.9732 22.6896 23.4926 22.3235C23.2988 22.1759 23.0453 22.1323 22.8134 22.2067L21.7154 22.5569C21.6184 22.5131 21.5213 22.4723 21.4236 22.4344L20.8954 21.3612C20.7691 21.1063 20.5093 20.9448 20.2249 20.9446H18.6228C18.3384 20.9449 18.0786 21.1063 17.9523 21.3612L17.4241 22.4344C17.3264 22.4723 17.2293 22.5132 17.1323 22.5569L16.0343 22.2067C15.8021 22.1311 15.5477 22.1751 15.3544 22.3242C14.8739 22.6901 14.445 23.119 14.0791 23.5994C13.9317 23.7932 13.8881 24.0468 13.9624 24.2786L14.3126 25.3766C14.2688 25.4737 14.228 25.5707 14.1901 25.6685L13.1169 26.1966C12.862 26.3229 12.7005 26.5827 12.7003 26.8671V28.4692C12.7006 28.7537 12.862 29.0135 13.1169 29.1397L14.1901 29.6679C14.228 29.7657 14.2689 29.8627 14.3127 29.9597L13.9625 31.0577C13.8882 31.2896 13.9318 31.5431 14.0792 31.7369C14.4454 32.2176 14.8746 32.6467 15.3552 33.0129C15.5489 33.1605 15.8025 33.2042 16.0344 33.1296L17.1324 32.7794C17.2294 32.8232 17.3264 32.864 17.4242 32.9021L17.9524 33.9752C18.0787 34.2302 18.3384 34.3916 18.6229 34.3918H20.225C20.5094 34.3915 20.7692 34.2302 20.8955 33.9752L21.4237 32.9021C21.5214 32.8641 21.6184 32.8232 21.7155 32.7794L22.8135 33.1296C23.0454 33.2036 23.2988 33.1601 23.4927 33.0129C23.9733 32.6467 24.4025 32.2176 24.7687 31.7369C24.9161 31.5431 24.9597 31.2896 24.8854 31.0577L24.5352 29.9597C24.579 29.8627 24.6198 29.7657 24.6578 29.6679L25.731 29.1397C25.9859 29.0135 26.1473 28.7538 26.1476 28.4692V26.8671C26.1471 26.5827 25.9857 26.3229 25.7308 26.1966ZM24.6532 28.0045L23.7238 28.4619C23.5414 28.5522 23.4037 28.713 23.3422 28.907C23.2702 29.131 23.1792 29.3485 23.0701 29.557C22.9782 29.7335 22.9607 29.9395 23.0213 30.129L23.3386 31.1256C23.1957 31.2874 23.0429 31.4402 22.8812 31.583L21.8846 31.2657C21.6951 31.2044 21.4889 31.2221 21.3126 31.3145C21.1041 31.4236 20.8866 31.5147 20.6626 31.5866C20.4685 31.6481 20.3078 31.7858 20.2175 31.9682L19.7601 32.8977H19.0875L18.6301 31.9682C18.5398 31.7858 18.3791 31.6481 18.185 31.5866C17.961 31.5147 17.7435 31.4236 17.535 31.3145C17.3587 31.222 17.1525 31.2043 16.963 31.2657L15.9664 31.583C15.8046 31.4401 15.6518 31.2874 15.509 31.1256L15.8263 30.129C15.8869 29.9395 15.8694 29.7335 15.7775 29.557C15.6684 29.3485 15.5774 29.131 15.5054 28.907C15.4439 28.713 15.3062 28.5522 15.1238 28.4619L14.1943 28.0045V27.3319L15.1237 26.8745C15.3061 26.7842 15.4438 26.6235 15.5053 26.4294C15.5773 26.2054 15.6683 25.9879 15.7774 25.7794C15.8693 25.6029 15.8868 25.397 15.8262 25.2074L15.5089 24.2108C15.6518 24.049 15.8046 23.8962 15.9663 23.7534L16.9629 24.0708C17.1524 24.1316 17.3585 24.1141 17.5349 24.0219C17.7434 23.9128 17.9609 23.8218 18.1849 23.7498C18.379 23.6883 18.5397 23.5506 18.63 23.3682L19.0874 22.4388H19.76L20.2174 23.3682C20.3077 23.5506 20.4684 23.6883 20.6625 23.7498C20.8865 23.8218 21.104 23.9128 21.3125 24.0219C21.4889 24.1141 21.695 24.1317 21.8845 24.0708L22.8811 23.7534C23.0429 23.8963 23.1957 24.0491 23.3385 24.2108L23.0212 25.2074C22.9606 25.397 22.9781 25.6029 23.07 25.7794C23.1791 25.9879 23.2701 26.2054 23.3421 26.4294C23.4036 26.6235 23.5413 26.7842 23.7237 26.8745L24.6531 27.3319V28.0045H24.6532Z" fill="#446DBC"/>
<path d="M36.6064 29.1623C34.5434 29.1623 32.871 30.8347 32.871 32.8976C32.871 34.9606 34.5434 36.633 36.6064 36.633C38.6693 36.633 40.3417 34.9606 40.3417 32.8976C40.3393 30.8356 38.6684 29.1647 36.6064 29.1623ZM36.6064 35.1388C35.3686 35.1388 34.3652 34.1354 34.3652 32.8976C34.3652 31.6598 35.3686 30.6564 36.6064 30.6564C37.8442 30.6564 38.8476 31.6598 38.8476 32.8976C38.8463 34.1349 37.8436 35.1375 36.6064 35.1388Z" fill="#446DBC"/>
<path d="M44.4075 31.2263L42.9995 30.5332C42.939 30.3697 42.8703 30.2071 42.7952 30.0458L43.2555 28.6049C43.3301 28.3724 43.2862 28.1183 43.1381 27.9242C42.6907 27.3374 42.1665 26.8133 41.5798 26.3659C41.3858 26.2177 41.1315 26.1738 40.8991 26.2484L39.4582 26.7088C39.2969 26.6336 39.1342 26.5651 38.9708 26.5045L38.2777 25.0965C38.1515 24.8415 37.8918 24.6802 37.6072 24.6799H35.6054C35.3209 24.6802 35.0611 24.8415 34.9349 25.0965L34.2418 26.5045C34.0784 26.565 33.9157 26.6336 33.7544 26.7088L32.3135 26.2484C32.0811 26.1731 31.8265 26.217 31.6328 26.3659C31.046 26.8133 30.5219 27.3375 30.0745 27.9242C29.9264 28.1183 29.8826 28.3724 29.9571 28.6049L30.4174 30.0458C30.3423 30.2071 30.2737 30.3697 30.2131 30.5332L28.8051 31.2263C28.5501 31.3525 28.3888 31.6122 28.3885 31.8967V33.8986C28.3888 34.1831 28.5501 34.4428 28.8051 34.5691L30.2131 35.2622C30.2736 35.4256 30.3423 35.5883 30.4174 35.7496L29.9571 37.1905C29.8825 37.4229 29.9264 37.6771 30.0745 37.8712C30.5219 38.458 31.0461 38.982 31.6328 39.4294C31.8267 39.5778 32.0811 39.6217 32.3135 39.5469L33.7544 39.0865C33.9157 39.1617 34.0784 39.2303 34.2418 39.2909L34.9349 40.6989C35.0611 40.9538 35.3208 41.1152 35.6054 41.1155H37.6072C37.8917 41.1152 38.1515 40.9538 38.2777 40.6989L38.9708 39.2909C39.1342 39.2304 39.2969 39.1617 39.4582 39.0865L40.8991 39.5469C41.1316 39.6207 41.3854 39.5769 41.5798 39.4294C42.1666 38.982 42.6907 38.4579 43.1381 37.8712C43.2862 37.6771 43.33 37.4229 43.2555 37.1905L42.7952 35.7496C42.8703 35.5883 42.9389 35.4256 42.9995 35.2622L44.4075 34.5691C44.6625 34.4428 44.8238 34.1832 44.8241 33.8986V31.8967C44.8238 31.6122 44.6625 31.3524 44.4075 31.2263ZM43.33 33.4338L42.0634 34.0576C41.8808 34.148 41.743 34.309 41.6818 34.5034C41.5886 34.7936 41.4708 35.0752 41.3295 35.3453C41.2376 35.5221 41.2201 35.7282 41.2807 35.918L41.7103 37.2618C41.4834 37.5274 41.2361 37.7747 40.9705 38.0016L39.6267 37.5719C39.4371 37.5101 39.2305 37.5278 39.054 37.6207C38.784 37.762 38.5023 37.8799 38.2121 37.973C38.0177 38.0342 37.8568 38.172 37.7664 38.3546L37.1426 39.6212H36.0701L35.4463 38.3546C35.3559 38.172 35.1949 38.0342 35.0006 37.973C34.7104 37.8798 34.4287 37.762 34.1587 37.6207C33.9822 37.5278 33.7756 37.5101 33.5859 37.5719L32.2422 38.0015C31.9766 37.7746 31.7293 37.5273 31.5024 37.2617L31.9321 35.9178C31.9927 35.7281 31.9751 35.5219 31.8833 35.3451C31.742 35.0751 31.624 34.7934 31.5309 34.5032C31.4698 34.3088 31.3319 34.1479 31.1494 34.0575L29.8827 33.4338V32.3614L31.1493 31.7376C31.3318 31.6472 31.4697 31.4862 31.5308 31.2919C31.624 31.0017 31.7419 30.72 31.8832 30.45C31.9751 30.2732 31.9926 30.0671 31.932 29.8772L31.5024 28.5334C31.7293 28.2679 31.9766 28.0206 32.2422 27.7937L33.586 28.2234C33.7757 28.285 33.9823 28.2675 34.1588 28.1746C34.4288 28.0333 34.7105 27.9153 35.0007 27.8222C35.195 27.7611 35.356 27.6232 35.4464 27.4407L36.0701 26.1741H37.1426L37.7664 27.4406C37.8568 27.6231 38.0177 27.761 38.2121 27.8221C38.5023 27.9153 38.784 28.0332 39.054 28.1745C39.2305 28.2674 39.4371 28.285 39.6267 28.2233L40.9705 27.7937C41.2361 28.0206 41.4834 28.2679 41.7103 28.5334L41.2806 29.8772C41.22 30.067 41.2376 30.2732 41.3294 30.45C41.4707 30.72 41.5886 31.0017 41.6817 31.2919C41.7429 31.4862 41.8807 31.6472 42.0633 31.7376L43.3299 32.3614V33.4338H43.33Z" fill="#446DBC"/>
<path d="M44.7403 42.622C41.9311 43.113 39.0846 43.3589 36.2329 43.3567C17.0775 43.3567 1.49414 32.4651 1.49414 19.0769C1.49414 12.3204 5.38488 6.04261 12.4499 1.39818L11.6299 0.14917C4.23878 5.00811 0 11.9068 0 19.0769C0 33.2888 16.2539 44.8508 36.2329 44.8508C39.1717 44.8532 42.1052 44.5996 45 44.0928L44.7403 42.622Z" fill="#446DBC"/>
<path d="M17.9297 6.37669C17.9437 4.53227 18.4622 2.72679 19.429 1.15598L18.1449 0.391357C17.0396 2.1931 16.4484 4.26295 16.4355 6.37669C16.4355 16.9305 25.7184 22.1811 44.8147 22.4292L44.8336 20.935C26.4787 20.6965 17.9297 16.0704 17.9297 6.37669Z" fill="#446DBC"/>
<path d="M22.9337 7.43819C21.9649 5.70023 22.0151 3.57351 23.065 1.88336L21.7591 1.15814C20.463 3.29513 20.4095 5.96236 21.6191 8.1495C23.7552 12.0964 29.7559 15.0774 36.5524 15.5662L36.6604 14.0765C30.3518 13.622 24.8357 10.9546 22.9337 7.43819Z" fill="#446DBC"/>
<path d="M39.5947 14.2209H38.1005V15.715H39.5947V14.2209Z" fill="#446DBC"/>
<path d="M44.7106 14.572C44.6506 14.4759 44.5694 14.3948 44.4734 14.3347L38.4968 10.5993L37.7045 11.8659L42.6677 14.968L37.7045 18.0701L38.4968 19.3367L44.4734 15.6013C44.823 15.3826 44.9293 14.9218 44.7106 14.572Z" fill="#446DBC"/>
</svg>
