<svg width="45" height="45" viewBox="0 0 45 45" fill="none" xmlns="http://www.w3.org/2000/svg">
<g clip-path="url(#clip0)">
<path d="M44.1462 16.8084C44.0839 16.4197 43.6178 16.0895 43.2366 16.1159C41.7185 16.2197 40.2014 16.3235 38.6843 16.4263C38.439 15.8055 38.1804 15.1904 37.9059 14.5809C39.1409 13.526 40.375 12.4721 41.61 11.4164C42.0054 11.0786 41.9469 10.4295 41.61 10.0823C40.3769 8.81138 39.1437 7.53955 37.9106 6.26866C37.5247 5.87051 36.9709 5.94976 36.5765 6.26866C35.4301 7.19517 34.2847 8.12169 33.1384 9.0482C32.2893 8.39436 31.391 7.81788 30.4409 7.32349C30.9891 6.07996 31.5373 4.83644 32.0855 3.59291C32.344 3.00606 32.1383 2.43335 31.5212 2.20691C29.8588 1.59647 28.1954 0.986032 26.533 0.376534C26.165 0.241614 25.6357 0.454844 25.4678 0.810542C24.7536 2.31825 24.0403 3.82595 23.327 5.33366C22.7883 5.3063 22.2495 5.30535 21.7108 5.33177C21.0003 3.82218 20.2889 2.31259 19.5775 0.803938C19.4096 0.447296 18.8794 0.235953 18.5123 0.36993C16.848 0.976597 15.1846 1.58421 13.5203 2.19088C12.9023 2.41637 12.6995 2.99096 12.9561 3.57687C13.5014 4.8204 14.0468 6.06487 14.5921 7.30839C13.6401 7.8009 12.741 8.37549 11.8909 9.02839C10.7464 8.09999 9.60197 7.17064 8.45751 6.2413C8.06313 5.92146 7.50929 5.84503 7.12341 6.2413C5.88743 7.5103 4.65239 8.7793 3.41641 10.0483C3.07864 10.3955 3.02203 11.0446 3.41641 11.3824C4.64862 12.4391 5.88082 13.4958 7.11303 14.5516C6.83753 15.1602 6.57806 15.7744 6.33181 16.3952C4.81373 16.2886 3.29564 16.182 1.77756 16.0753C1.3945 16.0499 0.929359 16.382 0.867088 16.7698C0.58404 18.5181 0.300991 20.2664 0.0179427 22.0156C-0.0858418 22.6591 0.27363 23.1459 0.927472 23.2101C2.28894 23.3431 3.6504 23.4752 5.01186 23.6082C5.03545 24.4621 5.11753 25.3112 5.25717 26.1538C4.0929 26.5708 2.92863 26.9888 1.7653 27.4058C1.27562 27.5813 0.969929 28.0398 1.10674 28.5663C1.55112 30.2806 1.99645 31.9949 2.44084 33.7093C2.55783 34.1612 3.12959 34.5631 3.60134 34.3678C5.37228 33.6376 7.14322 32.9064 8.91322 32.1752C9.28967 32.7601 9.68971 33.329 10.1266 33.8687C9.18305 35.0849 8.23862 36.3001 7.29606 37.5163C6.92338 37.9965 6.9215 38.6504 7.48665 38.9985C8.99624 39.925 10.5058 40.8515 12.0154 41.778C12.49 42.0696 13.0042 41.8441 13.3061 41.4393C14.1855 40.26 15.0657 39.0806 15.9451 37.9012C16.9292 38.3249 17.9434 38.6607 18.986 38.9051C18.7624 40.2486 18.5378 41.5912 18.3151 42.9348C18.2076 43.5811 18.5737 44.0622 19.2247 44.1292C20.9871 44.3094 22.7486 44.4887 24.5111 44.6689C24.8998 44.7085 25.347 44.3538 25.4206 43.9764C25.7386 42.3423 26.0556 40.7072 26.3735 39.0721C26.9028 38.9655 27.4246 38.8334 27.9397 38.6749C29.0031 39.9628 30.0664 41.2506 31.1297 42.5385C31.3826 42.8451 31.9505 42.9065 32.2732 42.6857C33.7356 41.6856 35.1971 40.6855 36.6595 39.6854C37.2039 39.3127 37.2398 38.7023 36.8501 38.2031C36.0142 37.1342 35.1792 36.0652 34.3442 34.9962C35.1584 34.2716 35.8981 33.4762 36.5699 32.6167C38.1729 33.2121 39.7768 33.8074 41.3798 34.4018C41.8044 34.5594 42.1365 34.4056 42.3318 34.1301C42.4214 34.0291 42.496 33.9055 42.5384 33.7442C42.9866 32.0308 43.4348 30.3174 43.8829 28.6031C44.0207 28.0757 43.7121 27.6181 43.2244 27.4426C42.061 27.0227 40.8986 26.6038 39.7363 26.1849C39.8778 25.3424 39.9618 24.4923 39.9863 23.6384C41.3487 23.5082 42.7111 23.3789 44.0735 23.2478C44.7292 23.1855 45.0859 22.6968 44.983 22.0533C44.7056 20.306 44.4254 18.5577 44.1462 16.8084ZM35.4377 31.0194C34.5772 32.2204 33.5394 33.2734 32.3921 34.2018C31.9581 34.5528 32.1024 35.166 32.3921 35.5359C33.2054 36.5766 34.0177 37.6163 34.8301 38.656C33.879 39.307 32.9271 39.958 31.976 40.6081C30.9618 39.3797 29.9475 38.1522 28.9332 36.9228C28.7342 36.6822 28.3049 36.5803 28.0152 36.6803C27.1047 36.9945 26.2707 37.2068 25.3206 37.3663C25.0243 37.4163 24.7186 37.7342 24.662 38.0248C24.3592 39.5835 24.0563 41.1431 23.7535 42.7017C22.608 42.5847 21.4626 42.4677 20.3163 42.3507C20.5342 41.0421 20.7522 39.7335 20.9701 38.4249C21.0485 37.9541 20.8541 37.3644 20.3116 37.2644C18.8595 36.9964 17.4509 36.5662 16.1196 35.9227C15.6158 35.6793 15.1554 35.8236 14.8289 36.2614C13.9713 37.4106 13.1146 38.5607 12.257 39.7099C11.2871 39.1146 10.3181 38.5202 9.34817 37.9248C10.2332 36.7841 11.1191 35.6434 12.0032 34.5028C12.3183 34.0971 12.4004 33.5659 12.0032 33.1687H12.0022C11.2644 32.3638 10.6728 31.4581 10.1058 30.5288C9.90577 30.2004 9.43025 29.9343 9.04059 30.0947C7.35834 30.7892 5.67608 31.4836 3.99289 32.178C3.70984 31.0882 3.42679 29.9985 3.14469 28.9078C4.28915 28.4974 5.43361 28.087 6.57712 27.6775C7.08378 27.4964 7.3489 27.0501 7.23568 26.517C6.9715 25.2735 6.86489 24.0234 6.88942 22.7525C6.8998 22.2015 6.44975 21.858 5.94592 21.809C4.63541 21.6807 3.32395 21.5533 2.01249 21.4259C2.19647 20.2899 2.38045 19.153 2.56444 18.0171C4.02497 18.119 5.4855 18.2218 6.94603 18.3246C7.3857 18.3558 7.71781 18.0086 7.85556 17.6321C8.21126 16.6584 8.63394 15.7093 9.06984 14.7696C9.23967 14.4035 9.26231 13.9176 8.92265 13.626C7.76687 12.6354 6.61203 11.6447 5.45625 10.654C6.26011 9.82941 7.06302 9.00385 7.86688 8.17924C8.98209 9.08405 10.0973 9.98981 11.2125 10.8946C11.639 11.2409 12.1211 11.2522 12.5466 10.8946C13.6779 9.94357 14.9431 9.17934 16.2847 8.56418C16.7895 8.33303 16.8131 7.70561 16.6235 7.27348C16.0932 6.06204 15.562 4.85153 15.0308 3.64008C16.113 3.2457 17.1952 2.85038 18.2783 2.456C18.9558 3.89483 19.6342 5.3346 20.3125 6.77343C20.4418 7.04893 20.8258 7.26594 21.1268 7.24046C22.0967 7.16026 22.9373 7.16121 23.9072 7.24329C24.2092 7.26877 24.5922 7.05082 24.7215 6.77626C25.4017 5.33838 26.082 3.90143 26.7623 2.46355C27.8435 2.86076 28.9247 3.25702 30.006 3.65424C29.472 4.86474 28.9389 6.07525 28.4049 7.28575C28.2143 7.71881 28.2398 8.34435 28.7436 8.57645C30.0843 9.19444 31.3467 9.9615 32.477 10.9144C32.9025 11.2739 33.3846 11.2598 33.8111 10.9144C34.9282 10.0125 36.0444 9.10858 37.1615 8.2066C37.9634 9.0331 38.7654 9.8596 39.5664 10.6861C38.4088 11.6749 37.2511 12.6637 36.0934 13.6525C35.7528 13.944 35.7774 14.4299 35.9462 14.796C36.3812 15.7366 36.801 16.6867 37.1549 17.6614C37.2917 18.0388 37.6257 18.3841 38.0644 18.3539C39.5249 18.2539 40.9845 18.1539 42.4441 18.0548C42.6262 19.1917 42.8073 20.3277 42.9894 21.4637C41.677 21.5891 40.3656 21.7137 39.0532 21.8392C38.5484 21.8873 38.1002 22.2317 38.1097 22.7827C38.1323 24.0535 38.0229 25.3037 37.7559 26.5463C37.6417 27.0793 37.9097 27.5247 38.4144 27.7068C39.557 28.1191 40.6996 28.5314 41.8421 28.9427C41.5544 30.0438 41.2666 31.1449 40.9779 32.2459C39.4853 31.6921 37.9936 31.1373 36.501 30.5844C36.0849 30.4297 35.6698 30.6948 35.4377 31.0194ZM22.4382 8.85006C22.4373 8.85006 22.4373 8.85006 22.4382 8.85006C17.7934 9.10103 13.3778 12.4269 11.304 16.4924C8.94435 21.1164 9.92087 26.5812 13.2099 30.4703C16.848 34.7726 23.1289 35.8208 28.2634 33.8112C32.5166 32.1468 35.0103 28.253 35.5066 23.8148C35.9481 19.8673 34.9141 15.681 32.1251 12.7741C29.6248 10.1691 25.9801 8.96706 22.4382 8.85006ZM31.2042 29.5494C27.8897 33.3507 21.4645 33.9112 17.2348 31.4298C15.3431 30.3193 13.8722 28.6182 12.9514 26.6614C15.7498 26.0877 18.5378 24.4998 19.5492 21.7609C19.6106 21.5948 19.6691 21.4306 19.7379 21.2712C19.7502 21.2995 19.7625 21.3287 19.771 21.3533C19.8729 21.6401 19.9436 21.9392 20.0106 22.2364C20.3512 23.7573 20.4993 25.3273 20.6427 26.8774C20.7126 27.6351 20.7748 28.3946 20.822 29.1541C20.8598 29.7617 21.7146 29.7589 21.7646 29.1588C21.7665 29.1588 21.7683 29.1588 21.7702 29.1588C21.7693 29.1465 21.7683 29.1352 21.7674 29.1229C22.0014 25.983 22.2354 22.844 22.4694 19.705C22.5297 20.5758 22.5901 21.4467 22.6505 22.3175C22.6779 22.71 23.1524 22.9648 23.4563 22.6515C23.7836 22.3128 24.0337 21.8835 24.2535 21.4721C24.3705 21.2533 24.4733 21.0278 24.5686 20.7985C24.5771 21.1004 24.5913 21.4033 24.5988 21.7052C24.6149 22.41 24.6243 23.1148 24.629 23.8196C24.6309 24.1319 24.5177 24.73 24.6969 25.0084C24.8139 25.1905 25.0168 25.2791 25.23 25.2254C25.7914 25.0838 25.949 23.7545 26.0726 23.3148C26.1065 23.194 26.1367 23.0723 26.1707 22.9506C26.2414 23.2186 26.332 23.4799 26.4566 23.7299C26.8623 24.5357 27.7369 24.397 28.4964 24.413C30.1805 24.4479 31.8656 24.4592 33.5498 24.4706C33.2101 26.35 32.443 28.1285 31.2042 29.5494ZM25.2602 18.4718C25.28 18.3765 25.2923 18.4067 25.2602 18.4718V18.4718ZM24.4413 18.4605C24.4196 18.4096 24.4252 18.3935 24.4413 18.4605V18.4605ZM25.5782 24.6763C25.5829 24.7036 25.5819 24.7064 25.5782 24.6763V24.6763ZM25.8593 20.8872C25.8612 20.8985 25.8622 20.9098 25.8631 20.9211C25.8018 20.8494 25.8556 20.857 25.8593 20.8872ZM33.6828 23.529C32.0487 23.5167 30.4145 23.5044 28.7813 23.4752C28.3728 23.4676 27.9643 23.4601 27.5557 23.444C27.5312 23.4431 27.4661 23.4365 27.4095 23.4318C27.3906 23.4223 27.3689 23.411 27.3567 23.394C27.2746 23.2855 27.2217 23.1572 27.1755 23.0308C26.9887 22.5194 26.9227 21.9599 26.8623 21.4212C26.8283 21.1202 26.8726 20.557 26.616 20.3381C26.4952 20.2352 26.3188 20.1541 26.1575 20.2164C25.8291 20.3428 25.7999 20.6088 25.7301 20.9089C25.6735 21.1542 25.6074 21.3976 25.5442 21.641C25.5263 20.6409 25.5102 19.638 25.4149 18.6435C25.3866 18.3473 25.3659 17.8614 24.9894 17.784C24.3356 17.65 24.3139 18.4511 24.2158 18.8738C24.0639 19.5229 23.827 20.2569 23.5015 20.9136C23.3223 18.3228 23.143 15.7319 22.9637 13.142C22.9213 12.5354 22.0712 12.5363 22.0212 13.1373C22.0193 13.1373 22.0174 13.1373 22.0155 13.1373C22.0165 13.1486 22.0174 13.1609 22.0184 13.1722C21.7589 16.6556 21.4994 20.1399 21.239 23.6233C21.1343 22.9714 21.0107 22.3251 20.855 21.6891C20.6767 20.9617 19.988 19.3163 19.1077 20.4673C18.9548 20.6683 18.8624 20.9117 18.7727 21.1447C18.5746 21.6627 18.3887 22.1467 18.083 22.6157C17.5019 23.5091 16.6159 24.1677 15.6922 24.6715C14.8119 25.1518 13.8486 25.4707 12.875 25.6999C12.7778 25.7226 12.6768 25.7452 12.5759 25.766C11.8381 23.7733 11.6522 21.5816 12.1702 19.5012C13.2844 15.029 17.8453 10.9852 22.4373 10.7371C26.7868 10.8805 31.1004 13.0014 32.8101 17.2C33.5988 19.137 33.9092 21.3702 33.6828 23.529Z" fill="#75B0F4"/>
</g>
<defs>
<clipPath id="clip0">
<rect width="45" height="45" fill="white"/>
</clipPath>
</defs>
</svg>
