<svg width="25" height="25" viewBox="0 0 25 25" xmlns="http://www.w3.org/2000/svg">
<path d="M12.5 0C5.60748 0 0 5.60748 0 12.5C0 15.9737 1.46341 19.3193 4.01493 21.679C4.22123 21.8698 4.5431 21.8571 4.73388 21.6509C4.92465 21.4445 4.91211 21.1228 4.70572 20.932C2.36177 18.7642 1.01749 15.6909 1.01749 12.5C1.01749 6.16854 6.16854 1.01749 12.5 1.01749C18.8314 1.01749 23.9824 6.16854 23.9824 12.5C23.9824 18.8314 18.8314 23.9824 12.5 23.9824C12.219 23.9824 11.9912 24.2103 11.9912 24.4912C11.9912 24.7721 12.219 24.9999 12.5 24.9999C19.3925 24.9999 24.9999 19.3924 24.9999 12.5C24.9999 5.60748 19.3925 0 12.5 0Z"/>
<path d="M7.13814 7.64688H17.8619C18.1428 7.64688 18.3706 7.41905 18.3706 7.13814C18.3706 6.85723 18.1428 6.62939 17.8619 6.62939H7.13814C6.85723 6.62939 6.62939 6.85723 6.62939 7.13814C6.62939 7.41905 6.85723 7.64688 7.13814 7.64688Z"/>
<path d="M7.13814 13.0087H17.8619C18.1428 13.0087 18.3706 12.7809 18.3706 12.5C18.3706 12.219 18.1428 11.9912 17.8619 11.9912H7.13814C6.85723 11.9912 6.62939 12.219 6.62939 12.5C6.62939 12.7809 6.85723 13.0087 7.13814 13.0087Z"/>
<path d="M18.3706 17.8618C18.3706 17.5809 18.1428 17.3531 17.8619 17.3531H7.13814C6.85723 17.3531 6.62939 17.5809 6.62939 17.8618C6.62939 18.1428 6.85723 18.3706 7.13814 18.3706H17.8619C18.1428 18.3706 18.3706 18.1428 18.3706 17.8618Z"/>
</svg>
