<svg width="25" height="25" viewBox="0 0 25 25" fill="none" xmlns="http://www.w3.org/2000/svg">
<path d="M12.5 0C5.60748 0 0 5.60748 0 12.5C0 15.9737 1.46341 19.3193 4.01493 21.679C4.22123 21.8698 4.5431 21.8571 4.73388 21.6509C4.92465 21.4445 4.91211 21.1228 4.70572 20.932C2.36177 18.7642 1.01749 15.6909 1.01749 12.5C1.01749 6.16854 6.16854 1.01749 12.5 1.01749C18.8314 1.01749 23.9824 6.16854 23.9824 12.5C23.9824 18.8314 18.8314 23.9824 12.5 23.9824C12.219 23.9824 11.9912 24.2103 11.9912 24.4912C11.9912 24.7721 12.219 24.9999 12.5 24.9999C19.3925 24.9999 24.9999 19.3924 24.9999 12.5C24.9999 5.60748 19.3925 0 12.5 0Z" fill="black"/>
<path d="M13.3006 12.5077L17.8214 8.01156C18.0382 7.79701 18.0382 7.44968 17.8214 7.23568C17.6052 7.02112 17.2541 7.02112 17.0379 7.23568L12.5209 11.728L7.96216 7.16872C7.74596 6.95198 7.39481 6.95198 7.17861 7.16872C6.96242 7.38601 6.96242 7.73772 7.17861 7.95446L11.734 12.5104L7.16215 17.057C6.94595 17.2716 6.94595 17.6189 7.16215 17.8329C7.37834 18.0475 7.7295 18.0475 7.94569 17.8329L12.5137 13.2901L17.0543 17.8313C17.2705 18.048 17.6217 18.048 17.8379 17.8313C18.054 17.614 18.054 17.2623 17.8379 17.0456L13.3006 12.5077Z" fill="black"/>
</svg>
