<svg width="50" height="50" viewBox="0 0 50 50" fill="none" xmlns="http://www.w3.org/2000/svg">
<path d="M25 0C18.2283 0 12.7193 7.08311 12.7193 15.7895C12.7193 24.4958 18.2283 31.5789 25 31.5789C31.7717 31.5789 37.2807 24.4958 37.2807 15.7895C37.2807 7.08311 31.7717 0 25 0ZM25 29.8246C19.1955 29.8246 14.4737 23.5283 14.4737 15.7896C14.4737 8.05078 19.1955 1.75439 25 1.75439C30.8046 1.75439 35.5263 8.05068 35.5263 15.7895C35.5263 23.5282 30.8046 29.8246 25 29.8246Z" fill="#75B0F4"/>
<path d="M37.2807 14.9122V15.7894V35.0876H12.7193V15.7894V14.9122H10.9649V35.9649V46.4912V50H12.7193V47.3684H37.2808V50H39.0351V46.4912V35.9649V14.9122H37.2807ZM37.2807 45.614H12.7193V36.842H37.2808V45.614H37.2807Z" fill="#75B0F4"/>
<path d="M25 38.5964C23.5488 38.5964 22.3685 39.7769 22.3685 41.228C22.3685 42.6791 23.5488 43.8596 25 43.8596C26.4512 43.8596 27.6316 42.6792 27.6316 41.2281C27.6316 39.777 26.4512 38.5964 25 38.5964ZM25 42.1052C24.516 42.1052 24.1229 41.7116 24.1229 41.2281C24.1229 40.7445 24.516 40.3509 25 40.3509C25.484 40.3509 25.8772 40.7446 25.8772 41.2281C25.8772 41.7116 25.484 42.1052 25 42.1052Z" fill="#75B0F4"/>
</svg>
