<svg width="70" height="70" viewBox="0 0 70 70" fill="none" xmlns="http://www.w3.org/2000/svg">
<g clip-path="url(#clip0)">
<path d="M68.4819 63.0725H15.3727V56.6232L16.5446 55.4525C25.0658 63.1177 38.1876 62.4235 45.8528 53.9022C52.9511 46.011 52.9511 34.0355 45.8528 26.1443L48.3408 23.6562L47.5246 22.8399C47.2128 22.5321 46.8995 22.235 46.5848 21.9486L63.2945 5.23769C63.7452 4.78684 63.7452 4.05601 63.2945 3.60516L60.0272 0.337786C59.5763 -0.112921 58.8455 -0.112921 58.3946 0.337786L40.6839 18.0451C37.4645 16.5184 33.9449 15.7294 30.3818 15.736C16.9977 15.7513 6.1516 26.5974 6.1363 39.9815C6.1363 40.7308 6.18594 41.5067 6.25984 42.2906H6.1363C2.94974 42.2944 0.367308 44.8768 0.363556 48.0634V68.8452C0.363556 69.4828 0.880505 69.9998 1.5181 69.9998H68.4819C69.1195 69.9998 69.6365 69.4828 69.6365 68.8452V64.227C69.6365 63.5894 69.1195 63.0725 68.4819 63.0725ZM48.8546 39.9815C48.8552 50.1837 40.585 58.4547 30.3828 58.4553C25.8825 58.4556 21.537 56.813 18.1621 53.8361L20.5866 51.4116L19.7784 50.5941C13.7912 44.8612 13.5849 35.3603 19.3178 29.373C25.0507 23.3856 34.5516 23.1794 40.539 28.9123C40.6948 29.0615 40.8475 29.2142 40.9967 29.3701L41.8142 30.1782L44.2387 27.7537C47.2274 31.1241 48.8705 35.4769 48.8546 39.9815ZM59.2109 2.78658L60.8457 4.42142L44.7871 20.48C44.764 20.4639 44.7398 20.4512 44.7178 20.4339C44.1487 20.0148 43.5633 19.6257 42.971 19.2678C42.9214 19.2377 42.8752 19.2008 42.8255 19.1719L59.2109 2.78658ZM30.3818 18.0451C33.8687 18.0357 37.3064 18.8674 40.4033 20.4697C41.7403 21.1482 43.0006 21.9684 44.1625 22.9161C44.4581 23.1524 44.7552 23.4049 45.0538 23.6735L44.2595 24.4679L41.7841 26.9467C34.5851 20.6495 23.6442 21.3806 17.347 28.5796C11.6361 35.1085 11.6361 44.855 17.347 51.3838L14.0773 54.6524C11.2025 51.4739 9.3279 47.5188 8.68785 43.2812C8.5291 42.1884 8.44814 41.0857 8.4454 39.9815C8.45882 27.8719 18.2722 18.0585 30.3818 18.0451ZM2.67265 48.0634C2.67265 46.1504 4.22336 44.5997 6.1363 44.5997H6.57272C6.6062 44.7752 6.65585 44.9461 6.68817 45.1204C6.74359 45.3756 6.80363 45.6296 6.86482 45.8813C6.95257 46.2346 7.0507 46.5821 7.15461 46.9296C7.2285 47.1767 7.30124 47.4237 7.38552 47.6674C7.50098 48.0137 7.62913 48.3601 7.75959 48.6949C7.84965 48.9258 7.9374 49.1648 8.03553 49.3969C8.18101 49.7432 8.34033 50.0804 8.49735 50.4186C8.60011 50.6345 8.69824 50.8528 8.80792 51.0652C8.99265 51.4231 9.19354 51.7706 9.39559 52.1193C9.50181 52.3017 9.59995 52.4888 9.71078 52.6689C9.97402 53.096 10.2569 53.5117 10.5467 53.9227C10.6113 54.0151 10.6691 54.1109 10.7349 54.2009C11.0981 54.702 11.483 55.1897 11.8894 55.6638C11.9887 55.7792 12.0972 55.8877 12.1977 56.002C12.4794 56.3195 12.7588 56.6394 13.0578 56.9442V63.0725H2.67265V48.0634ZM67.3274 67.6907H2.67265V65.3816H67.3274V67.6907Z" fill="#446DBC"/>
<path d="M30.3818 35.3635C27.8313 35.3635 25.7636 37.4312 25.7636 39.9817C25.7636 42.5323 27.8313 44.5999 30.3818 44.5999C32.9324 44.5999 35 42.5323 35 39.9817C35 37.4312 32.9324 35.3635 30.3818 35.3635ZM30.3818 42.2908C29.1065 42.2908 28.0727 41.2571 28.0727 39.9817C28.0727 38.7064 29.1065 37.6726 30.3818 37.6726C31.6572 37.6726 32.6909 38.7064 32.6909 39.9817C32.6909 41.2571 31.6572 42.2908 30.3818 42.2908Z" fill="#446DBC"/>
<path d="M7.29085 54.9907C5.37791 54.9907 3.8272 56.5414 3.8272 58.4544C3.8272 60.3673 5.37791 61.918 7.29085 61.918C9.20379 61.918 10.7545 60.3673 10.7545 58.4544C10.7545 56.5414 9.20379 54.9907 7.29085 54.9907ZM7.29085 59.6089C6.65325 59.6089 6.1363 59.092 6.1363 58.4544C6.1363 57.8168 6.65325 57.2998 7.29085 57.2998C7.92845 57.2998 8.4454 57.8168 8.4454 58.4544C8.4454 59.092 7.92845 59.6089 7.29085 59.6089Z" fill="#446DBC"/>
</g>
<defs>
<clipPath id="clip0">
<rect width="70" height="70" fill="white"/>
</clipPath>
</defs>
</svg>
