<svg width="45" height="45" viewBox="0 0 45 45" fill="none" xmlns="http://www.w3.org/2000/svg">
<path d="M33.751 25.3125V4.68747C33.7479 2.09997 31.651 0.00307617 29.0635 0H8.43848C8.18983 8.78906e-05 7.95147 0.098877 7.77569 0.274658L0.275635 7.77472C0.0998535 7.9505 0.000976562 8.18895 0.000976562 8.4375V40.3125C0.00405273 42.9 2.10095 44.9969 4.68845 45H29.0634C31.651 44.9969 33.7478 42.9 33.7509 40.3125V38.4376H31.8759V40.3125C31.8759 41.8658 30.6167 43.125 29.0634 43.125H4.68845C3.13516 43.125 1.87595 41.8658 1.87595 40.3125V8.82563L8.8266 1.87497H29.0635C30.6168 1.87497 31.876 3.13418 31.876 4.68747V25.3125H33.751Z" fill="#86E0ED"/>
<path d="M7.50006 0.937561V6.56256C7.50006 7.08032 7.0803 7.50009 6.56253 7.50009H4.68756V9.37506H6.56253C8.11582 9.37506 9.37503 8.11585 9.37503 6.56256V0.937561H7.50006Z" fill="#86E0ED"/>
<path d="M44.7254 22.5581L42.1295 19.9622C41.7634 19.5962 41.17 19.5962 40.8038 19.9622L26.5248 34.2412C26.1588 34.6073 26.1588 35.2007 26.5248 35.5669L29.1207 38.1628C29.2965 38.3387 29.535 38.4375 29.7835 38.4375C30.0321 38.4374 30.2705 38.3386 30.4463 38.1628L44.7253 23.8838C45.0914 23.5177 45.0914 22.9243 44.7254 22.5581ZM29.7835 36.1744L28.5132 34.9041L41.4666 21.9507L42.7369 23.221L29.7835 36.1744Z" fill="#86E0ED"/>
<path d="M28.1251 36.5625V34.6876H26.2501V37.5001C26.2501 38.0178 26.6699 38.4376 27.1877 38.4376H30.0002V36.5625H28.1251Z" fill="#86E0ED"/>
<path d="M27.1875 3.75006H25.3126V5.62503H27.1875C27.7053 5.62503 28.1251 6.0448 28.1251 6.56256V8.43753H30V6.56256C30.0001 5.00927 28.7409 3.75006 27.1875 3.75006Z" fill="#86E0ED"/>
<path d="M24.375 13.1249H9.37509C8.85733 13.1249 8.43756 13.5447 8.43756 14.0625V27.1874C8.43686 27.546 8.64059 27.8734 8.96253 28.0312L15.4829 31.2187C15.9113 31.4634 16.3958 31.5927 16.8891 31.5938C17.3543 31.5968 17.8123 31.4782 18.2176 31.2497L24.7876 28.0312C25.1095 27.8734 25.3134 27.546 25.3126 27.1874V14.0625C25.3126 13.5447 24.8928 13.1249 24.375 13.1249ZM23.4376 26.6024L17.3401 29.5921C17.0315 29.7606 16.656 29.7498 16.3576 29.564L10.3125 26.6024V15H23.4375V26.6024H23.4376Z" fill="#86E0ED"/>
<path d="M20.8997 18.2297L15.9375 23.1919L13.7878 21.0422L12.4622 22.3678L15.2747 25.1803C15.4504 25.3561 15.6889 25.455 15.9374 25.455C16.1861 25.4549 16.4244 25.3561 16.6002 25.1803L22.2252 19.5553L20.8997 18.2297Z" fill="#86E0ED"/>
<path d="M18.7501 36.5625C18.2323 36.5625 17.8125 36.1427 17.8125 35.625V33.75H15.9376V35.625C15.9376 37.1783 17.1968 38.4375 18.7501 38.4375H24.3751V36.5625H18.7501Z" fill="#86E0ED"/>
<path d="M23.4375 3.75006H21.5626V5.62503H23.4375V3.75006Z" fill="#86E0ED"/>
</svg>
