<svg width="45" height="45" viewBox="0 0 45 45" fill="none" xmlns="http://www.w3.org/2000/svg">
<path d="M36.5333 34.8867C36.2487 34.6598 35.834 34.7065 35.6071 34.9911L32.8042 38.5064L31.0422 36.8718C30.7751 36.6239 30.358 36.6397 30.1105 36.9065C29.8629 37.1736 29.8787 37.5907 30.1455 37.8383L32.4286 39.9562C32.5508 40.0695 32.7111 40.132 32.8766 40.132C33.0641 40.132 33.278 40.0273 33.3923 39.8838L36.6377 35.813C36.8646 35.5284 36.818 35.1137 36.5333 34.8867Z" fill="#86E0ED"/>
<path d="M12.1279 24.8782C11.262 24.8782 10.5579 25.5824 10.5579 26.4482V35.2672C10.5579 36.1327 11.2624 36.8372 12.1279 36.8372H13.85C14.7155 36.8372 15.4197 36.1327 15.4197 35.2672V26.4482C15.4197 25.5824 14.7155 24.8782 13.85 24.8782H12.1279ZM14.1013 31.8257H11.8762V29.8893H14.1013V31.8257ZM13.85 35.5188H12.1279C11.9892 35.5188 11.8762 35.4059 11.8762 35.2672V33.144H14.1013V35.2672C14.1013 35.4059 13.9887 35.5188 13.85 35.5188ZM14.1013 26.4482V28.5713H11.8762V26.4482C11.8762 26.3095 11.9892 26.1966 12.1279 26.1966H13.85C13.9887 26.1966 14.1013 26.3095 14.1013 26.4482Z" fill="#86E0ED"/>
<path d="M19.0283 24.8782C18.1628 24.8782 17.4586 25.5824 17.4586 26.4482V35.2672C17.4586 36.1327 18.1628 36.8372 19.0283 36.8372H20.7504C21.6159 36.8372 22.3204 36.1327 22.3204 35.2672V26.4482C22.3204 25.5824 21.6159 24.8782 20.7504 24.8782H19.0283ZM21.0021 31.8257H18.777V29.8893H21.0021V31.8257ZM20.7504 35.5188H19.0283C18.8896 35.5188 18.777 35.4059 18.777 35.2672V33.144H21.0021V35.2672C21.0021 35.4059 20.8891 35.5188 20.7504 35.5188ZM21.0021 26.4482V28.5713H18.777V26.4482C18.777 26.3095 18.8896 26.1966 19.0283 26.1966H20.7504C20.8891 26.1966 21.0021 26.3095 21.0021 26.4482Z" fill="#86E0ED"/>
<path d="M25.2339 41.4404H6.14754C5.76233 41.4404 5.44922 41.127 5.44922 40.7418V21.0862C5.44922 20.701 5.76233 20.3879 6.14754 20.3879H33.6312C34.0161 20.3879 34.3295 20.701 34.3295 21.0862V27.8229C34.3295 28.1868 34.6248 28.4821 34.9887 28.4821C35.3526 28.4821 35.6479 28.1868 35.6479 27.8229V21.0862C35.6479 19.9742 34.7432 19.0695 33.6312 19.0695H32.8495V12.9601C32.8495 5.81383 27.0356 0 19.8894 0C12.7431 0 6.92963 5.81383 6.92963 12.9601V19.0695H6.14754C5.03551 19.0695 4.13086 19.9742 4.13086 21.0862V40.7418C4.13086 41.8538 5.03551 42.7588 6.14754 42.7588H25.2335C25.5978 42.7588 25.8927 42.4635 25.8927 42.0996C25.8927 41.7353 25.5978 41.4404 25.2339 41.4404ZM27.9729 19.0695H11.8058V12.9601C11.8058 8.50273 15.432 4.87656 19.8894 4.87656C24.3467 4.87656 27.9729 8.50273 27.9729 12.9601V19.0695ZM8.24799 12.9601C8.24799 6.54064 13.4703 1.31836 19.8894 1.31836C26.3085 1.31836 31.5311 6.54064 31.5311 12.9601V19.0695H29.2913V12.9601C29.2913 7.77592 25.0735 3.5582 19.8894 3.5582C14.7052 3.5582 10.4875 7.77557 10.4875 12.9601V19.0695H8.24799V12.9601Z" fill="#86E0ED"/>
<path d="M33.4441 30.1983C31.8754 30.1983 30.4194 30.6889 29.2209 31.5246V26.4482C29.2209 25.5824 28.5167 24.8782 27.6512 24.8782H25.9291C25.0632 24.8782 24.3591 25.5824 24.3591 26.4482V35.2672C24.3591 36.1327 25.0632 36.8368 25.9291 36.8368H26.0822C26.0565 37.0874 26.0434 37.3419 26.0434 37.5993C26.0434 41.6801 29.3633 45 33.4441 45C37.5248 45 40.8447 41.6801 40.8447 37.5993C40.8447 33.5183 37.5248 30.1983 33.4441 30.1983ZM25.6774 29.8897H27.9025V31.8257H25.6774V29.8897ZM25.9287 26.1966H27.6508C27.7896 26.1966 27.9025 26.3095 27.9025 26.4482V28.5713H25.6774V26.4482C25.6774 26.3095 25.79 26.1966 25.9287 26.1966ZM25.9287 35.5188C25.79 35.5188 25.6774 35.4059 25.6774 35.2672V33.144H27.5379C27.0051 33.8485 26.5955 34.6509 26.3407 35.5188H25.9287ZM33.4441 43.6816C30.0902 43.6816 27.3614 40.9529 27.3614 37.5993C27.3614 34.2454 30.0902 31.5167 33.4441 31.5167C36.7977 31.5167 39.5264 34.2454 39.5264 37.5993C39.5264 40.9529 36.7977 43.6816 33.4441 43.6816Z" fill="#86E0ED"/>
</svg>
