<svg width="45" height="45" viewBox="0 0 45 45" fill="none" xmlns="http://www.w3.org/2000/svg">
<path d="M40.5118 23.5978C40.9094 23.0083 41.1418 22.2985 41.1418 21.5354V20.8304C41.1418 18.7911 39.4826 17.1319 37.4433 17.1319C36.4257 17.1319 35.5029 17.5451 34.8335 18.2123C33.1015 13.0613 28.2272 9.34058 22.5 9.34058C16.7728 9.34058 11.8985 13.0612 10.1665 18.2123C9.49711 17.5451 8.57435 17.1319 7.55675 17.1319C5.51742 17.1319 3.85822 18.7911 3.85822 20.8304V21.5354C3.85822 22.2985 4.09061 23.0083 4.48822 23.5978C1.92806 24.1373 0 26.4132 0 29.1315V30.9011C0 31.3864 0.393574 31.78 0.878906 31.78H5.44922C5.93455 31.78 6.32812 31.3864 6.32812 30.9011C6.32812 30.4158 5.93455 30.0222 5.44922 30.0222H1.75781V29.1315C1.75781 26.9823 3.50631 25.2338 5.6555 25.2338H9.81527C10.1526 26.7175 10.7438 28.1058 11.5415 29.3498L1.5133 39.3781C0.229219 40.6622 0.229219 42.7518 1.51339 44.0361C2.15552 44.6782 2.99883 44.9992 3.84231 44.9992C4.6858 44.9992 5.52929 44.6781 6.17142 44.0361L11.7 38.5074C12.0432 38.1642 12.0432 37.6077 11.7 37.2644C11.3567 36.9213 10.8004 36.9213 10.457 37.2644L4.92847 42.7931C4.32949 43.392 3.35514 43.3919 2.75625 42.7932C2.15745 42.1943 2.15745 41.2198 2.75625 40.6209L12.6006 30.7767C14.9883 33.577 18.5401 35.3562 22.5 35.3562C28.6812 35.3562 33.8687 31.0223 35.1847 25.2338H39.3445C41.4937 25.2338 43.2422 26.9823 43.2422 29.1315V30.0222H34.9805C34.4951 30.0222 34.1016 30.4158 34.1016 30.9011C34.1016 31.3864 34.4951 31.78 34.9805 31.78H44.1211C44.6064 31.78 45 31.3864 45 30.9011V29.1315C45 26.4132 43.0719 24.1373 40.5118 23.5978ZM9.49746 21.5355C9.49746 22.6056 8.6269 23.4761 7.55675 23.4761C6.48659 23.4761 5.61603 22.6056 5.61603 21.5355V20.8305C5.61603 19.7604 6.48659 18.8898 7.55675 18.8898C8.6269 18.8898 9.49746 19.7604 9.49746 20.8305V21.5355ZM22.5 33.5984C16.2968 33.5984 11.25 28.5516 11.25 22.3484C11.25 16.1452 16.2968 11.0984 22.5 11.0984C28.7032 11.0984 33.75 16.1452 33.75 22.3484C33.75 28.5516 28.7032 33.5984 22.5 33.5984ZM39.3839 21.5355C39.3839 22.6056 38.5133 23.4761 37.4432 23.4761C36.373 23.4761 35.5024 22.6056 35.5024 21.5355V20.8305C35.5024 19.7604 36.373 18.8898 37.4432 18.8898C38.5133 18.8898 39.3839 19.7604 39.3839 20.8305V21.5355Z" fill="#446DBC"/>
<path d="M22.5 12.8562C17.2659 12.8562 13.0078 17.1143 13.0078 22.3484C13.0078 25.0651 14.1553 27.5186 15.9906 29.2504C16.022 29.2844 16.0557 29.3164 16.0926 29.3454C17.7824 30.8941 20.0326 31.8406 22.5 31.8406C24.9674 31.8406 27.2176 30.894 28.9074 29.3454C28.9443 29.3164 28.978 29.2844 29.0094 29.2504C30.8447 27.5186 31.9922 25.0651 31.9922 22.3484C31.9922 17.1144 27.7341 12.8562 22.5 12.8562ZM22.5 30.0828C20.6927 30.0828 19.0284 29.4595 17.7102 28.4169C18.6441 26.6499 20.4639 25.5382 22.5 25.5382C24.5361 25.5382 26.3559 26.6499 27.2898 28.4169C25.9716 29.4595 24.3073 30.0828 22.5 30.0828ZM20.6479 21.9283V21.2455C20.6479 20.2242 21.4787 19.3933 22.5 19.3933C23.5213 19.3933 24.3521 20.2242 24.3521 21.2455V21.9283C24.3521 22.9496 23.5213 23.7804 22.5 23.7804C21.4787 23.7804 20.6479 22.9496 20.6479 21.9283ZM28.5754 27.1296C27.7703 25.8449 26.5917 24.8651 25.2124 24.3065C25.7704 23.6708 26.1099 22.8387 26.1099 21.9284V21.2455C26.1099 19.2551 24.4905 17.6356 22.5 17.6356C20.5095 17.6356 18.8901 19.2551 18.8901 21.2455V21.9284C18.8901 22.8387 19.2295 23.6708 19.7876 24.3065C18.4083 24.8652 17.2298 25.8449 16.4246 27.1296C15.386 25.8128 14.7656 24.1517 14.7656 22.3484C14.7656 18.0837 18.2353 14.614 22.5 14.614C26.7647 14.614 30.2344 18.0837 30.2344 22.3484C30.2344 24.1517 29.614 25.8128 28.5754 27.1296Z" fill="#446DBC"/>
<path d="M14.0511 34.9136C13.8876 34.7502 13.6608 34.6561 13.4297 34.6561C13.1985 34.6561 12.9718 34.7502 12.8083 34.9136C12.6449 35.0771 12.5508 35.3039 12.5508 35.535C12.5508 35.7662 12.6448 35.9929 12.8083 36.1564C12.9718 36.3198 13.1985 36.4139 13.4297 36.4139C13.6608 36.4139 13.8876 36.3199 14.0511 36.1564C14.2145 35.9929 14.3086 35.7662 14.3086 35.535C14.3086 35.3039 14.2146 35.0771 14.0511 34.9136Z" fill="#446DBC"/>
<path d="M22.5178 0.00109863C22.0325 0.00109863 21.6389 0.394673 21.6389 0.880005V3.8704C21.6389 4.35582 22.0325 4.7493 22.5178 4.7493C23.0032 4.7493 23.3967 4.35573 23.3967 3.8704V0.880005C23.3967 0.394673 23.0032 0.00109863 22.5178 0.00109863Z" fill="#446DBC"/>
<path d="M23.1389 6.14692C22.9755 5.98345 22.7495 5.8894 22.5176 5.8894C22.2863 5.8894 22.0597 5.98336 21.8962 6.14692C21.7327 6.31049 21.6387 6.53716 21.6387 6.76831C21.6387 6.99946 21.7326 7.22622 21.8962 7.38961C22.0597 7.55309 22.2863 7.64722 22.5176 7.64722C22.7496 7.64722 22.9755 7.55317 23.1389 7.38961C23.3024 7.22622 23.3965 6.99946 23.3965 6.76831C23.3965 6.53716 23.3025 6.3104 23.1389 6.14692Z" fill="#446DBC"/>
<path d="M29.9689 3.44838C29.6256 3.10526 29.0692 3.10526 28.7258 3.44838L27.1811 4.99315C26.8378 5.33636 26.8378 5.89289 27.1811 6.23619C27.3528 6.40775 27.5776 6.49362 27.8026 6.49362C28.0276 6.49362 28.2524 6.40775 28.4241 6.23619L29.9689 4.69142C30.3121 4.34821 30.3121 3.79168 29.9689 3.44838Z" fill="#446DBC"/>
<path d="M17.8337 5.00385L16.2741 3.44423C15.9308 3.10111 15.3744 3.10111 15.031 3.44423C14.6878 3.78745 14.6878 4.34397 15.031 4.68727L16.5907 6.24689C16.7624 6.41845 16.9873 6.50432 17.2122 6.50432C17.4371 6.50432 17.662 6.41845 17.8337 6.24689C18.1769 5.90368 18.1769 5.34715 17.8337 5.00385Z" fill="#446DBC"/>
</svg>
