<svg width="45" height="45" viewBox="0 0 45 45" fill="none" xmlns="http://www.w3.org/2000/svg">
<g clip-path="url(#clip0)">
<path d="M44.2608 21.4601C43.9148 21.1016 43.4866 20.8541 43.0173 20.7353C43.2957 20.2928 43.4355 19.7771 43.4163 19.2405C43.3665 17.8394 42.1631 16.6992 40.7339 16.6992H35.513L35.5078 8.87695C35.5078 7.18094 34.128 5.80078 32.4316 5.80078C30.7353 5.80078 29.3555 7.18094 29.3555 8.87695V10.9472C29.3555 11.4783 29.2432 11.9909 29.0365 12.4588C25.1656 12.3136 22.0605 9.12071 22.0605 5.21473V4.2627C22.0605 3.65673 21.5679 3.16406 20.9619 3.16406H9.62402C9.01806 3.16406 8.52539 3.65673 8.52539 4.2627V5.00977C8.52539 9.0081 5.27275 12.2607 1.27441 12.2607H1.09863C0.492668 12.2607 0 12.7534 0 13.3594V26.543C0 34.9757 6.86028 41.8359 15.293 41.8359C21.2747 41.8359 26.6789 38.3656 29.1783 32.959H38.3677C38.9675 32.959 39.5539 32.7118 39.9765 32.2813C40.3926 31.8573 40.6161 31.3028 40.6051 30.7198C40.5996 30.4232 40.5341 30.1403 40.4201 29.8828H40.7339C42.1631 29.8828 43.3665 28.7426 43.4163 27.3415C43.4355 26.8005 43.2937 26.281 43.0104 25.8361C44.1159 25.5387 44.9571 24.5531 44.9983 23.3865C45.024 22.6638 44.7621 21.9795 44.2608 21.4601ZM15.293 40.5176C7.58743 40.5176 1.31836 34.2485 1.31836 26.543V13.5791C6.02325 13.5551 9.84375 9.72015 9.84375 5.00977V4.48242H20.7422V5.21473C20.7422 9.54266 23.967 13.1307 28.1398 13.7037C27.9815 13.8479 27.8105 13.9808 27.6255 14.0985L24.0244 16.3899C23.7064 16.5924 23.3394 16.6992 22.9628 16.6992H22.1519C21.9061 15.8866 21.1507 15.293 20.2588 15.293H16.5674C15.708 15.293 14.9754 15.844 14.7031 16.6113H11.4697C10.5246 16.6113 9.75586 17.3804 9.75586 18.3252V29.6631C9.75586 30.6083 10.5246 31.377 11.4697 31.377H14.5898V37.862C8.66787 37.5193 3.95508 32.5933 3.95508 26.5869V15.6648C8.48282 15.3352 12.0911 11.6397 12.282 7.0752H14.5898V12.876C14.5898 13.2402 14.8851 13.5352 15.249 13.5352C15.6129 13.5352 15.9082 13.2402 15.9082 12.876V6.41602C15.9082 6.05175 15.6129 5.75684 15.249 5.75684H11.6307C11.2668 5.75684 10.9716 6.05175 10.9716 6.41602V6.69445C10.9716 10.9269 7.52838 14.3701 3.2959 14.3701C2.93198 14.3701 2.63672 14.665 2.63672 15.0293V26.5869C2.63672 33.5413 8.29468 39.1992 15.249 39.1992C15.6129 39.1992 15.9082 38.9043 15.9082 38.54V32.6277C16.0624 32.6706 16.2241 32.6953 16.3916 32.6953H20.2588C20.9049 32.6953 21.4796 32.3839 21.8405 31.9033L22.5436 32.3015C23.3023 32.7317 24.1641 32.959 25.0358 32.959H27.711C25.3228 37.5818 20.5523 40.5176 15.293 40.5176ZM14.5898 30.0586H11.4697C11.2517 30.0586 11.0742 29.8811 11.0742 29.6631V18.3252C11.0742 18.1072 11.2517 17.9297 11.4697 17.9297H14.5898V30.0586ZM42.3159 24.6094H37.1777C36.8138 24.6094 36.5186 24.9043 36.5186 25.2686C36.5186 25.6328 36.8138 25.9277 37.1777 25.9277H40.7812C41.1421 25.9277 41.4792 26.0709 41.7302 26.3308C41.9808 26.5903 42.1116 26.933 42.0986 27.2948C42.0739 27.9949 41.4614 28.5645 40.7339 28.5645H38.4082C38.3934 28.5645 38.3787 28.5658 38.3643 28.5665C38.3498 28.5658 38.3351 28.5645 38.3203 28.5645H37.1777C36.8138 28.5645 36.5186 28.8594 36.5186 29.2236C36.5186 29.5879 36.8138 29.8828 37.1777 29.8828H38.3203C38.3351 29.8828 38.3498 29.8814 38.3643 29.8808C38.3787 29.8814 38.3934 29.8828 38.4082 29.8828C38.8837 29.8828 39.2782 30.2694 39.2871 30.7449C39.2912 30.9708 39.202 31.1885 39.0358 31.3581C38.8593 31.5376 38.6159 31.6406 38.368 31.6406H25.0358C24.3914 31.6406 23.7545 31.4727 23.1939 31.1548L22.2363 30.612V29.121C22.2363 28.7571 21.9411 28.4618 21.5771 28.4618C21.2132 28.4618 20.918 28.7571 20.918 29.121V30.7178C20.918 31.0814 20.6224 31.377 20.2588 31.377H16.3916C16.1252 31.377 15.9082 31.16 15.9082 30.8936V17.2705C15.9082 16.9069 16.2038 16.6113 16.5674 16.6113H20.2588C20.6224 16.6113 20.918 16.9069 20.918 17.2705V26.0448C20.918 26.4091 21.2132 26.704 21.5771 26.704C21.9411 26.704 22.2363 26.4091 22.2363 26.0448V18.0176H22.9628C23.5904 18.0176 24.2025 17.8394 24.7319 17.5023L28.3334 15.2106C29.799 14.2781 30.6738 12.6841 30.6738 10.9472V8.87695C30.6738 7.90775 31.4624 7.11914 32.4316 7.11914C33.4008 7.11914 34.1895 7.90775 34.1895 8.8773L34.1946 16.9196C34.1949 17.5249 34.688 18.0176 35.2932 18.0176H40.7339C41.4614 18.0176 42.0739 18.5872 42.0986 19.2872C42.1116 19.649 41.9805 19.9917 41.7302 20.2512C41.4792 20.5111 41.1421 20.6543 40.7812 20.6543H37.1777C36.8138 20.6543 36.5186 20.9492 36.5186 21.3135C36.5186 21.6777 36.8138 21.9727 37.1777 21.9727H42.3633C42.7241 21.9727 43.0613 22.1158 43.3122 22.3757C43.5629 22.6353 43.6937 22.9779 43.6806 23.3398C43.6559 24.0398 43.0434 24.6094 42.3159 24.6094Z" fill="#446DBC"/>
</g>
<defs>
<clipPath id="clip0">
<rect width="45" height="45" fill="white"/>
</clipPath>
</defs>
</svg>
