<svg width="45" height="45" viewBox="0 0 45 45" fill="none" xmlns="http://www.w3.org/2000/svg">
<path d="M23.7255 28.4917C24.5062 28.431 25.218 28.0327 25.68 27.3975L32.7022 17.6895C32.9175 17.3917 32.8852 16.9807 32.6242 16.7197C32.3632 16.4595 31.9522 16.4272 31.6545 16.6417L21.945 23.6662C21.312 24.1267 20.9137 24.8385 20.853 25.6192C20.7922 26.4 21.075 27.1642 21.6277 27.717C22.131 28.221 22.8097 28.5 23.5155 28.5C23.5852 28.5 23.655 28.497 23.7255 28.4917ZM22.3485 25.7362C22.3747 25.3935 22.5502 25.0807 22.8262 24.8797L28.749 20.595L24.4657 26.5162C24.2632 26.7945 23.9505 26.9692 23.6077 26.9962C23.2665 27.0187 22.9312 26.9002 22.6875 26.6565C22.446 26.4142 22.3215 26.0782 22.3485 25.7362Z" fill="#86E0ED"/>
<path d="M40.5255 14.673C40.518 14.6572 40.518 14.6407 40.5098 14.625C40.5008 14.61 40.4865 14.6018 40.4768 14.5875C39.7185 13.287 38.8215 12.0772 37.803 10.9808L39.414 9.3705L40.4745 10.431L43.656 7.24875L40.4745 4.06725L37.2923 7.24875L38.3535 8.31L36.7425 9.92025C35.646 8.90175 34.437 8.004 33.1358 7.24575C33.1215 7.236 33.1133 7.22175 33.0983 7.21275C33.0825 7.20375 33.066 7.2045 33.0503 7.19625C30.7305 5.85975 28.1243 4.9695 25.3455 4.64325V3.75H26.4705C27.5048 3.75 28.3455 2.90925 28.3455 1.875C28.3455 0.84075 27.504 0 26.4698 0H19.7198C18.6855 0 17.8448 0.84075 17.8448 1.875C17.8448 2.90925 18.6855 3.75 19.7198 3.75H20.8448V4.617C20.0348 4.70325 19.2263 4.83525 18.4268 5.01825C18.0233 5.1105 17.7705 5.51325 17.8635 5.91675C17.9558 6.32025 18.3585 6.57375 18.762 6.48C19.452 6.32175 20.1488 6.2025 20.847 6.12225L21.6518 6.06C21.8978 6.04125 22.1243 6.02775 22.3448 6.01725V7.5C22.3448 7.91475 22.68 8.25 23.0948 8.25C23.5095 8.25 23.8448 7.91475 23.8448 7.5V6.0225C26.6655 6.15225 29.3235 6.90975 31.6868 8.15625L30.9473 9.4365C30.7403 9.79575 30.8633 10.254 31.2218 10.461C31.3395 10.5293 31.4685 10.5615 31.596 10.5615C31.8555 10.5615 32.1075 10.4272 32.2463 10.1865L32.9835 8.90925C35.3303 10.398 37.3238 12.3915 38.8125 14.7382L37.5353 15.4755C37.1775 15.6825 37.0545 16.1408 37.2623 16.5C37.4018 16.7407 37.653 16.875 37.9125 16.875C38.04 16.875 38.169 16.8427 38.2868 16.7745L39.567 16.035C40.8308 18.432 41.5905 21.1335 41.7038 23.9993H40.2225C39.8078 23.9993 39.4725 24.3345 39.4725 24.7493C39.4725 25.164 39.8078 25.4993 40.2225 25.4993H41.7038C41.5905 28.365 40.8308 31.0665 39.567 33.4635L38.2868 32.724C37.9283 32.517 37.4693 32.6385 37.2623 32.9985C37.0553 33.3577 37.1783 33.816 37.5368 34.023L38.814 34.7603C37.3253 37.107 35.3318 39.1005 32.985 40.5892L32.2478 39.312C32.04 38.952 31.5803 38.8298 31.2233 39.0375C30.864 39.2445 30.741 39.7035 30.9488 40.062L31.6883 41.3423C29.325 42.5887 26.667 43.3462 23.8463 43.476V42C23.8463 41.5853 23.511 41.25 23.0963 41.25C22.6815 41.25 22.3463 41.5853 22.3463 42V43.482C21.1485 43.4408 19.947 43.2908 18.7643 43.0192C18.3608 42.9225 17.958 43.179 17.8658 43.5825C17.7728 43.986 18.0255 44.3887 18.429 44.481C19.926 44.826 21.4553 45 22.9725 45C23.0093 45 23.0445 44.9977 23.0813 44.997C23.0865 44.997 23.0903 45 23.0948 45C23.1008 45 23.106 44.9963 23.112 44.9963C26.7173 44.9715 30.0998 43.998 33.0263 42.3165C33.0495 42.306 33.0743 42.3008 33.0968 42.2873C33.1118 42.2782 33.12 42.264 33.1343 42.2542C36.1635 40.4888 38.6948 37.9605 40.464 34.9335C40.4783 34.9132 40.4963 34.8975 40.509 34.875C40.518 34.8592 40.5173 34.8428 40.5248 34.827C42.2378 31.857 43.2225 28.4175 43.2225 24.75C43.2225 21.0825 42.2378 17.643 40.5255 14.673ZM40.4738 6.18825L41.5343 7.24875L40.4738 8.31L39.4125 7.24875L40.4738 6.18825ZM22.3448 4.51575V2.25H19.7198C19.5135 2.25 19.3448 2.08125 19.3448 1.875C19.3448 1.66875 19.5135 1.5 19.7198 1.5H26.4698C26.676 1.5 26.8448 1.66875 26.8448 1.875C26.8448 2.08125 26.676 2.25 26.4698 2.25H23.8448V4.51575C23.5838 4.50525 23.3348 4.5 23.0948 4.5C23.0738 4.5 23.0498 4.5015 23.0288 4.5015C23.01 4.5015 22.9913 4.5 22.9725 4.5C22.8495 4.5 22.7265 4.50825 22.6035 4.5105C22.5165 4.51275 22.4348 4.512 22.3448 4.51575Z" fill="#86E0ED"/>
<path d="M16.3447 10.5H12.5947C12.18 10.5 11.8447 10.8353 11.8447 11.25C11.8447 11.6648 12.18 12 12.5947 12H16.3447C16.7595 12 17.0947 11.6648 17.0947 11.25C17.0947 10.8353 16.7595 10.5 16.3447 10.5Z" fill="#86E0ED"/>
<path d="M16.3447 15.75H8.84473C8.42998 15.75 8.09473 16.0853 8.09473 16.5C8.09473 16.9147 8.42998 17.25 8.84473 17.25H16.3447C16.7595 17.25 17.0947 16.9147 17.0947 16.5C17.0947 16.0853 16.7595 15.75 16.3447 15.75Z" fill="#86E0ED"/>
<path d="M16.3447 21H5.09473C4.67998 21 4.34473 21.3353 4.34473 21.75C4.34473 22.1647 4.67998 22.5 5.09473 22.5H16.3447C16.7595 22.5 17.0947 22.1647 17.0947 21.75C17.0947 21.3353 16.7595 21 16.3447 21Z" fill="#86E0ED"/>
<path d="M16.3447 26.25H2.09473C1.67998 26.25 1.34473 26.5853 1.34473 27C1.34473 27.4148 1.67998 27.75 2.09473 27.75H16.3447C16.7595 27.75 17.0947 27.4148 17.0947 27C17.0947 26.5853 16.7595 26.25 16.3447 26.25Z" fill="#86E0ED"/>
<path d="M16.3447 31.5H6.59473C6.17998 31.5 5.84473 31.8353 5.84473 32.25C5.84473 32.6647 6.17998 33 6.59473 33H16.3447C16.7595 33 17.0947 32.6647 17.0947 32.25C17.0947 31.8353 16.7595 31.5 16.3447 31.5Z" fill="#86E0ED"/>
<path d="M16.3447 36.75H11.0947C10.68 36.75 10.3447 37.0853 10.3447 37.5C10.3447 37.9147 10.68 38.25 11.0947 38.25H16.3447C16.7595 38.25 17.0947 37.9147 17.0947 37.5C17.0947 37.0853 16.7595 36.75 16.3447 36.75Z" fill="#86E0ED"/>
</svg>
