<svg width="34" height="45" viewBox="0 0 34 45" fill="none" xmlns="http://www.w3.org/2000/svg">
<path d="M33.2324 19.5284C32.9184 18.6471 32.0832 18.0592 31.1475 18.0609C30.2127 18.0637 29.3809 18.6545 29.0703 19.5363H24.5082V16.5855H27.459C27.8663 16.5856 28.1966 16.2554 28.1967 15.8481C28.1967 15.848 28.1967 15.8479 28.1967 15.8478V12.761C29.3491 12.3536 29.9531 11.0892 29.5457 9.93671C29.1383 8.78433 27.8739 8.18033 26.7214 8.58773C25.5689 8.99513 24.965 10.2596 25.3724 11.412C25.5952 12.0423 26.091 12.5381 26.7213 12.761V15.1101H24.5082V13.6347C24.5083 13.2274 24.1781 12.8971 23.7708 12.897C23.7707 12.897 23.7706 12.897 23.7705 12.897H22.2951V9.0724C23.4474 8.665 24.0514 7.40058 23.644 6.2481C23.2366 5.09571 21.9722 4.49171 20.8197 4.89911C19.6673 5.30651 19.0634 6.57093 19.4708 7.72341C19.6935 8.35369 20.1894 8.84952 20.8196 9.0724V12.8969H17.8688V1.11957C17.8689 0.712266 17.5388 0.381959 17.1315 0.381866C17.1314 0.381866 17.1312 0.381866 17.1311 0.381866C8.03051 0.381866 0.901611 6.97077 0.901611 15.3816C0.901611 19.377 2.48758 24.667 5.04115 29.1862C5.49973 29.9974 6.098 30.8504 6.73123 31.7538C8.07026 33.6625 9.56042 35.809 9.72244 37.6774C9.15533 38.0782 8.82345 38.734 8.83627 39.4283C8.83839 39.9271 9.01065 40.4103 9.32454 40.798C8.88791 41.2288 8.64373 41.8176 8.64751 42.431C8.6488 43.6528 9.6389 44.6429 10.8606 44.6442H23.4016C24.6316 44.6365 25.6227 43.6332 25.615 42.4032C25.6149 42.3952 25.6148 42.3872 25.6147 42.3791C25.6143 41.7791 25.3691 41.2053 24.9358 40.7901C25.2537 40.3875 25.4264 39.8894 25.426 39.3764C25.4238 38.208 24.4748 37.2626 23.3064 37.2648C23.2752 37.2649 23.244 37.2656 23.2129 37.267H17.8688V23.2247H19.3442V25.4378C19.3441 25.8451 19.6743 26.1754 20.0816 26.1755C20.0817 26.1755 20.0818 26.1755 20.0819 26.1755H22.2951V27.0492C21.1427 27.4566 20.5388 28.7211 20.9463 29.8734C21.3537 31.0257 22.6182 31.6297 23.7705 31.2222C24.9228 30.8148 25.5268 29.5503 25.1193 28.398C24.8965 27.7677 24.4006 27.272 23.7705 27.0492V25.4378C23.7706 25.0305 23.4404 24.7002 23.0331 24.7001C23.033 24.7001 23.0329 24.7001 23.0328 24.7001H20.8196V23.2247H23.7705C24.1778 23.2248 24.5081 22.8947 24.5082 22.4874C24.5082 22.4873 24.5082 22.4871 24.5082 22.487V21.0116H29.0704C29.48 22.1609 30.7437 22.7606 31.8931 22.351C33.0423 21.9415 33.642 20.6778 33.2324 19.5284ZM27.459 9.94603C27.8664 9.94603 28.1967 10.2763 28.1967 10.6837C28.1967 11.0911 27.8664 11.4214 27.459 11.4214C27.0516 11.4214 26.7213 11.0911 26.7213 10.6837C26.7217 10.2765 27.0518 9.94649 27.459 9.94603ZM7.93932 30.9065C7.32693 30.0334 6.74884 29.2093 6.32559 28.46C3.92703 24.2146 2.37702 19.0809 2.37702 15.3816C2.37702 8.02477 8.47572 2.21386 16.3934 1.87314V7.02674C16.1976 7.04141 15.9977 7.0592 15.784 7.08539C15.4708 7.12348 15.2166 7.35659 15.1515 7.66532L14.9267 8.73444C14.7415 8.77843 14.5569 8.82813 14.3727 8.88355L13.6374 8.06368C13.4268 7.82808 13.0895 7.75301 12.7989 7.87713C11.9732 8.23317 11.1939 8.68824 10.478 9.23221C10.226 9.42216 10.1228 9.75146 10.2212 10.0513L10.5598 11.083C10.4204 11.2141 10.2847 11.3502 10.1532 11.4893L9.12259 11.1507C8.82281 11.0536 8.49435 11.1564 8.30346 11.4071C7.75876 12.1232 7.30332 12.9028 6.94729 13.7291C6.82335 14.0197 6.89842 14.3569 7.13383 14.5677L7.95407 15.3025C7.89893 15.4848 7.84959 15.6675 7.80607 15.8507L6.65884 16.0798C6.31397 16.1486 6.06564 16.4514 6.06564 16.8031V19.3187C6.06564 19.6704 6.31397 19.9732 6.65894 20.042L7.80616 20.271C7.84978 20.454 7.89911 20.6368 7.95416 20.8192L7.13365 21.5541C6.89851 21.765 6.82354 22.102 6.9471 22.3927C7.30323 23.2188 7.75858 23.9986 8.30328 24.7146C8.49398 24.9656 8.82262 25.0684 9.12241 24.9711L10.153 24.6324C10.2848 24.7715 10.4202 24.9076 10.5596 25.0387L10.221 26.0689C10.1227 26.3687 10.2257 26.6978 10.4775 26.8881C11.1933 27.4329 11.973 27.8884 12.799 28.2446C13.0897 28.368 13.4266 28.293 13.6376 28.0581L14.3728 27.2382C14.5569 27.2937 14.7416 27.3434 14.9269 27.3873L15.1513 28.4557C15.2161 28.7647 15.4705 28.9982 15.7838 29.0364C15.9978 29.0625 16.1977 29.0803 16.3936 29.095V37.2671H11.166C10.8644 35.093 9.32445 32.8815 7.93932 30.9065ZM10.4918 18.0608C10.4965 21.4398 13.0357 24.2777 16.3934 24.6566V27.1935L16.2713 26.6128C16.2097 26.3187 15.976 26.0913 15.6802 26.038C15.243 25.9584 14.8131 25.8425 14.3951 25.6914C14.3149 25.6629 14.2305 25.6484 14.1454 25.6482C13.9357 25.6482 13.7359 25.7375 13.5961 25.8938L12.9024 26.6676C12.518 26.4755 12.147 26.2576 11.7919 26.0156L12.1121 25.0409C12.2059 24.7553 12.1171 24.4414 11.8877 24.2471C11.5475 23.9591 11.2317 23.6435 10.9436 23.3034C10.7488 23.0755 10.4359 22.9874 10.1508 23.08L9.17645 23.4007C8.93429 23.0455 8.7164 22.6743 8.52413 22.2898L9.29854 21.596C9.52188 21.3955 9.60173 21.0797 9.50058 20.7971C9.34972 20.379 9.2338 19.9491 9.15404 19.5119C9.10019 19.2138 8.86947 18.9789 8.57227 18.9197L7.54096 18.7136V17.4082L8.57227 17.2022C8.86938 17.1431 9.10019 16.9081 9.15404 16.61C9.2338 16.1725 9.34972 15.7424 9.50048 15.324C9.60183 15.0413 9.52178 14.7254 9.29808 14.5251L8.52432 13.832C8.71676 13.4476 8.93457 13.0765 9.17626 12.7211L10.151 13.0417C10.4361 13.1343 10.7489 13.0462 10.9438 12.8184C11.2326 12.478 11.5486 12.1617 11.8886 11.8725C12.1171 11.6785 12.2055 11.3655 12.112 11.0807L11.7921 10.106C12.1472 9.86414 12.5181 9.64633 12.9022 9.45407L13.5959 10.2278C13.7966 10.451 14.1122 10.5309 14.3949 10.4302C14.8129 10.2791 15.2428 10.1632 15.6801 10.0837C15.9757 10.0306 16.2094 9.80347 16.2711 9.50949L16.3934 8.92882V11.465C13.0357 11.844 10.4965 14.6817 10.4918 18.0608ZM16.3934 12.9558V23.1658C13.574 22.7622 11.6156 20.1493 12.0192 17.3299C12.3439 15.0622 14.1256 13.2805 16.3934 12.9558ZM24.1393 42.431C24.1389 42.8383 23.8088 43.1684 23.4016 43.1688H10.8606C10.4458 43.1617 10.1151 42.8197 10.1221 42.4049C10.1223 42.3963 10.1226 42.3877 10.1229 42.3791C10.1233 41.9719 10.4534 41.6418 10.8606 41.6414H23.4016C23.8165 41.6484 24.1472 41.9905 24.1401 42.4053C24.1401 42.4139 24.1398 42.4225 24.1393 42.431ZM23.2129 38.7425C23.5845 38.7082 23.9136 38.9818 23.9478 39.3534C23.9501 39.3783 23.951 39.4033 23.9506 39.4283C23.9502 39.8355 23.6201 40.1657 23.2129 40.166H11.0494C10.6345 40.159 10.3038 39.8171 10.3109 39.4021C10.311 39.3936 10.3113 39.385 10.3117 39.3764C10.3275 39.0087 10.6384 38.7233 11.0061 38.7392C11.0206 38.7399 11.035 38.741 11.0494 38.7424H23.2129V38.7425ZM23.0328 28.3887C23.4402 28.3887 23.7705 28.719 23.7705 29.1264C23.7705 29.5338 23.4402 29.8641 23.0328 29.8641C22.6254 29.8641 22.2951 29.5338 22.2951 29.1264C22.2954 28.7191 22.6255 28.3891 23.0328 28.3887ZM21.5573 6.2575C21.9647 6.2575 22.2951 6.58781 22.2951 6.99521C22.2951 7.40261 21.9647 7.73291 21.5573 7.73291C21.15 7.73291 20.8196 7.40261 20.8196 6.99521C20.82 6.58799 21.1501 6.25796 21.5573 6.2575ZM23.0328 21.7493H17.8688V14.3723H23.0328V21.7493ZM31.1475 21.0116C30.7401 21.0116 30.4098 20.6813 30.4098 20.2739C30.4098 19.8665 30.7401 19.5362 31.1475 19.5362C31.5549 19.5362 31.8852 19.8665 31.8852 20.2739C31.8848 20.6812 31.5547 21.0112 31.1475 21.0116Z" fill="#86E0ED"/>
</svg>
