<svg width="18" height="18" viewBox="0 0 18 18" fill="none" xmlns="http://www.w3.org/2000/svg">
<g clip-path="url(#clip0)">
<path d="M4.01627 9.48222L6.09004 10.2562L6.89272 12.8376C6.94408 13.003 7.14625 13.0641 7.28044 12.9544L8.4364 12.012C8.55757 11.9133 8.73016 11.9083 8.85679 12.0003L10.9417 13.514C11.0853 13.6183 11.2886 13.5397 11.3246 13.3662L12.852 6.01947C12.8913 5.82999 12.7051 5.67192 12.5247 5.7417L4.01384 9.02493C3.80381 9.10593 3.80564 9.40329 4.01627 9.48222ZM6.76336 9.8442L10.8163 7.34799C10.8891 7.30326 10.9641 7.40175 10.9015 7.45977L7.55668 10.569C7.43911 10.6784 7.36327 10.8249 7.34179 10.9838L7.22785 11.8282C7.21276 11.941 7.05439 11.9521 7.02328 11.843L6.58507 10.3033C6.53488 10.1277 6.60802 9.94008 6.76336 9.8442Z" fill="#039BE5"/>
</g>
<circle cx="9" cy="9" r="8.5" stroke="#039BE5"/>
<defs>
<clipPath id="clip0">
<rect x="3.85718" y="5.14285" width="9" height="9" fill="white"/>
</clipPath>
</defs>
</svg>
