<svg width="14" height="16" viewBox="0 0 14 16" fill="none" xmlns="http://www.w3.org/2000/svg">
<path d="M6.942 8.62125C6.95857 8.62125 6.97513 8.62125 6.99501 8.62125C7.00164 8.62125 7.00827 8.62125 7.01489 8.62125C7.02483 8.62125 7.03809 8.62125 7.04803 8.62125C8.01883 8.60468 8.80408 8.26341 9.38391 7.61069C10.6595 6.17271 10.4475 3.7076 10.4243 3.47235C10.3415 1.70636 9.50651 0.861462 8.81734 0.467178C8.30377 0.172292 7.70406 0.0132533 7.03477 0H7.01158C7.00827 0 7.00164 0 6.99833 0H6.97845C6.61067 0 5.88837 0.0596397 5.19588 0.453924C4.50009 0.848209 3.65188 1.6931 3.56905 3.47235C3.54585 3.7076 3.3338 6.17271 4.60943 7.61069C5.18594 8.26341 5.9712 8.60468 6.942 8.62125ZM4.4537 3.55519C4.4537 3.54525 4.45701 3.53531 4.45701 3.52868C4.56635 1.15303 6.25283 0.897909 6.97513 0.897909H6.98839C6.99501 0.897909 7.00495 0.897909 7.01489 0.897909C7.90949 0.917788 9.4303 1.28225 9.53301 3.52868C9.53301 3.53862 9.53301 3.54856 9.53633 3.55519C9.53964 3.57838 9.77157 5.83144 8.71794 7.0176C8.30046 7.48809 7.74382 7.72003 7.01158 7.72665C7.00495 7.72665 7.00164 7.72665 6.99501 7.72665C6.98839 7.72665 6.98507 7.72665 6.97845 7.72665C6.24952 7.72003 5.68957 7.48809 5.2754 7.0176C4.22508 5.83806 4.45039 3.57507 4.4537 3.55519Z" fill="black"/>
<path d="M13.8039 12.7099C13.8039 12.7066 13.8039 12.7033 13.8039 12.7C13.8039 12.6735 13.8006 12.6469 13.8006 12.6171C13.7807 11.9611 13.7376 10.427 12.2996 9.93666C12.2897 9.93334 12.2764 9.93003 12.2665 9.92672C10.7722 9.54569 9.5297 8.68422 9.51645 8.67428C9.31434 8.53181 9.03602 8.58151 8.89355 8.78362C8.75107 8.98574 8.80077 9.26405 9.00288 9.40653C9.05921 9.44629 10.3779 10.3641 12.0279 10.7882C12.7999 11.0632 12.8861 11.8882 12.9093 12.6436C12.9093 12.6735 12.9093 12.7 12.9126 12.7265C12.9159 13.0247 12.896 13.4852 12.843 13.7503C12.3063 14.0551 10.2023 15.1087 7.00164 15.1087C3.81423 15.1087 1.69702 14.0518 1.15695 13.747C1.10394 13.4819 1.08075 13.0214 1.08737 12.7232C1.08737 12.6966 1.09069 12.6701 1.09069 12.6403C1.11388 11.8849 1.20003 11.0599 1.97203 10.7849C3.62206 10.3608 4.94076 9.43966 4.99709 9.40321C5.1992 9.26074 5.2489 8.98242 5.10643 8.78031C4.96395 8.5782 4.68564 8.5285 4.48352 8.67097C4.47027 8.68091 3.2344 9.54237 1.73347 9.9234C1.72022 9.92672 1.71028 9.93003 1.70034 9.93334C0.262359 10.427 0.219285 11.9611 0.199406 12.6138C0.199406 12.6436 0.199406 12.6701 0.196092 12.6966C0.196092 12.7 0.196092 12.7033 0.196092 12.7066C0.192779 12.8789 0.189466 13.7635 0.365071 14.2075C0.398205 14.2937 0.457844 14.3666 0.537364 14.4163C0.636763 14.4825 3.01904 16 7.00496 16C10.9909 16 13.3731 14.4792 13.4725 14.4163C13.5488 14.3666 13.6117 14.2937 13.6448 14.2075C13.8105 13.7668 13.8072 12.8822 13.8039 12.7099Z" fill="black"/>
</svg>
