<svg width="18" height="18" viewBox="0 0 18 18" fill="none" xmlns="http://www.w3.org/2000/svg">
<g clip-path="url(#clip0)">
<path d="M17.3662 10.4198C17.9032 5.89952 17.1082 3.04577 15.6742 1.75502L15.6749 1.75427C13.3604 -0.449982 5.54394 -0.776232 2.77494 1.85327C1.53144 3.13952 1.09344 5.02727 1.04544 7.36427C0.997437 9.70202 0.940437 14.0813 5.02119 15.2693H5.02494L5.02119 17.0835C5.02119 17.0835 4.99344 17.8185 5.46294 17.9663C5.99994 18.1403 6.24294 17.799 7.91319 15.804C10.7062 16.0463 12.8512 15.4913 13.0949 15.4103C13.6589 15.2213 16.8502 14.799 17.3662 10.4198ZM8.18844 14.5275C8.18844 14.5275 6.42069 16.7318 5.87094 17.304C5.69094 17.49 5.49369 17.4728 5.49669 17.1038C5.49669 16.8615 5.51019 14.0918 5.51019 14.0918C2.05044 13.1003 2.25444 9.37127 2.29194 7.42052C2.32944 5.46902 2.68644 3.87077 3.73944 2.79452C6.16869 0.516769 13.0214 1.02602 14.7674 2.66702C16.9019 4.55927 16.1422 9.90527 16.1467 10.0875C15.7079 13.743 13.1219 13.9748 12.6464 14.133C12.4432 14.2005 10.5569 14.6858 8.18844 14.5275Z" fill="#8E24AA"/>
<path d="M9.16639 3.22278C8.87764 3.22278 8.87764 3.67278 9.16639 3.67653C11.4066 3.69378 13.2516 5.25528 13.2719 8.11953C13.2719 8.42178 13.7144 8.41803 13.7106 8.11578H13.7099C13.6859 5.02953 11.6714 3.24003 9.16639 3.22278Z" fill="#8E24AA"/>
<path d="M12.1132 7.64477C12.1065 7.94327 12.5482 7.95752 12.552 7.65527C12.5887 5.95352 11.5395 4.55178 9.56771 4.40403C9.27895 4.38303 9.24895 4.83678 9.53696 4.85778C11.247 4.98753 12.1477 6.15452 12.1132 7.64477Z" fill="#8E24AA"/>
<path d="M11.6407 9.58049C11.2702 9.36599 10.8929 9.49949 10.7369 9.71024L10.4107 10.1325C10.2449 10.347 9.93518 10.3185 9.93518 10.3185C7.67467 9.72074 7.07017 7.35524 7.07017 7.35524C7.07017 7.35524 7.04242 7.03499 7.24942 6.86324L7.65742 6.52574C7.86142 6.36374 7.99042 5.97374 7.78267 5.59049C7.22767 4.58774 6.85492 4.24199 6.66517 3.97649C6.46567 3.72674 6.16567 3.67049 5.85367 3.83924H5.84692C5.19817 4.21874 4.48792 4.92899 4.71517 5.66024C5.10292 6.43124 5.81542 8.88899 8.08642 10.746C9.15367 11.6242 10.8427 12.5242 11.5597 12.732L11.5664 12.7425C12.2729 12.978 12.9599 12.24 13.3267 11.5717V11.5665C13.4894 11.2432 13.4354 10.9372 13.1977 10.737C12.7762 10.326 12.1402 9.87224 11.6407 9.58049Z" fill="#8E24AA"/>
<path d="M9.87664 6.07798C10.5974 6.11998 10.9469 6.49648 10.9844 7.26973C10.9979 7.57198 11.4366 7.55098 11.4231 7.24873C11.3751 6.23923 10.8486 5.67673 9.90064 5.62423C9.61189 5.60698 9.58489 6.06073 9.87664 6.07798Z" fill="#8E24AA"/>
</g>
<defs>
<clipPath id="clip0">
<rect width="18" height="18" fill="white"/>
</clipPath>
</defs>
</svg>
